<?xml version='1.0' encoding='utf-8'?>
<svg xmlns="http://www.w3.org/2000/svg" version="1.1" width="224" height="224">
  <defs />
  <g>
    <path d="M 10.570822715759277 134.58847045898438 C 20.11176300048828 165.8963165283203 61.707489013671875 168.7471923828125 71.23604583740234 145.23268127441406" stroke-width="2.0" fill="none" stroke="rgb(0, 0, 0)" stroke-opacity="1.0" stroke-linecap="round" stroke-linejoin="round" data-orig-style="" style="display:none" />
    <path d="M 198.37010192871094 90.95701599121094 C 200.46966552734375 100.78750610351562 196.13172912597656 120.17073059082031 185.68353271484375 138.38595581054688" stroke-width="2.0" fill="none" stroke="rgb(0, 0, 0)" stroke-opacity="1.0" stroke-linecap="round" stroke-linejoin="round" data-orig-style="" style="display:none" />
    <path d="M 93.22352600097656 160.32598876953125 C 93.98210906982422 186.53778076171875 131.84970092773438 198.52401733398438 147.07376098632812 186.89511108398438" stroke-width="2.0" fill="none" stroke="rgb(0, 0, 0)" stroke-opacity="1.0" stroke-linecap="round" stroke-linejoin="round" data-orig-style="" style="display:none" />
    <path d="M 94.29889678955078 37.265167236328125 C 117.66249084472656 10.83793830871582 145.2921600341797 18.47030258178711 147.7569580078125 45.842384338378906" stroke-width="2.0" fill="none" stroke="rgb(0, 0, 0)" stroke-opacity="1.0" stroke-linecap="round" stroke-linejoin="round" />
    <path d="M 164.12240600585938 60.36711120605469 C 184.48428344726562 36.639060974121094 189.60069274902344 39.66388702392578 206.87362670898438 48.143470764160156" stroke-width="2.0" fill="none" stroke="rgb(0, 0, 0)" stroke-opacity="1.0" stroke-linecap="round" stroke-linejoin="round" data-orig-style="" style="display:none" />
    <path d="M 67.55851745605469 60.253822326660156 C 79.70751190185547 52.30119705200195 81.43521118164062 52.405799865722656 96.27591705322266 39.722206115722656" stroke-width="2.0" fill="none" stroke="rgb(0, 0, 0)" stroke-opacity="1.0" stroke-linecap="round" stroke-linejoin="round" />
    <path d="M 21.989456176757812 102.0152359008789 C 3.4595251083374023 113.8049545288086 6.8678741455078125 147.92105102539062 37.305084228515625 160.34530639648438" stroke-width="2.0" fill="none" stroke="rgb(0, 0, 0)" stroke-opacity="1.0" stroke-linecap="round" stroke-linejoin="round" data-orig-style="" style="display:none" />
    <path d="M 103.86665344238281 180.19473266601562 C 121.06724548339844 198.02725219726562 152.04623413085938 194.48648071289062 158.03753662109375 169.55609130859375" stroke-width="2.0" fill="none" stroke="rgb(0, 0, 0)" stroke-opacity="1.0" stroke-linecap="round" stroke-linejoin="round" data-orig-style="" style="display:none" />
    <path d="M 12.446693420410156 110.29205322265625 C 26.26707649230957 85.80320739746094 56.68225860595703 64.20588684082031 76.29090881347656 56.89104080200195" stroke-width="2.0" fill="none" stroke="rgb(0, 0, 0)" stroke-opacity="1.0" stroke-linecap="round" stroke-linejoin="round" data-orig-style="" style="display:none" />
    <path d="M 83.10423278808594 51.88154220581055 C 92.89167022705078 43.9186897277832 96.97896575927734 42.427284240722656 105.20166015625 34.221435546875" stroke-width="2.0" fill="none" stroke="rgb(0, 0, 0)" stroke-opacity="1.0" stroke-linecap="round" stroke-linejoin="round" />
    <path d="M 107.88005828857422 25.139312744140625 C 130.4336395263672 13.761810302734375 154.15957641601562 30.130115509033203 144.66741943359375 52.937286376953125" stroke-width="2.0" fill="none" stroke="rgb(0, 0, 0)" stroke-opacity="1.0" stroke-linecap="round" stroke-linejoin="round" />
    <path d="M 28.447580337524414 156.77659606933594 C 51.020225524902344 169.55381774902344 69.94497680664062 153.14163208007812 76.58116149902344 134.98191833496094" stroke-width="2.0" fill="none" stroke="rgb(0, 0, 0)" stroke-opacity="1.0" stroke-linecap="round" stroke-linejoin="round" data-orig-style="" style="display:none" />
    <path d="M 193.1676025390625 41.10828399658203 C 215.13290405273438 42.387901306152344 218.29034423828125 63.27582550048828 206.298095703125 84.5592269897461" stroke-width="2.0" fill="none" stroke="rgb(0, 0, 0)" stroke-opacity="1.0" stroke-linecap="round" stroke-linejoin="round" data-orig-style="" style="display:none" />
    <path d="M 125.45805358886719 124.86630249023438 C 78.2921142578125 139.2142333984375 93.48685455322266 180.14080810546875 123.47280883789062 187.48533630371094" stroke-width="2.0" fill="none" stroke="rgb(0, 0, 0)" stroke-opacity="1.0" stroke-linecap="round" stroke-linejoin="round" data-orig-style="" style="display:none" />
    <path d="M 149.07901000976562 84.87849426269531 C 166.56787109375 64.72100067138672 171.2615203857422 57.18889236450195 180.81365966796875 49.961971282958984" stroke-width="2.0" fill="none" stroke="rgb(0, 0, 0)" stroke-opacity="1.0" stroke-linecap="round" stroke-linejoin="round" data-orig-style="" style="display:none" />
    <path d="M 204.01773071289062 44.532100677490234 C 215.71652221679688 46.327423095703125 215.91238403320312 72.54991149902344 205.94186401367188 84.98320007324219" stroke-width="2.0" fill="none" stroke="rgb(0, 0, 0)" stroke-opacity="1.0" stroke-linecap="round" stroke-linejoin="round" data-orig-style="" style="display:none" />
    <path d="M 21.887243270874023 113.33528137207031 C 52.280609130859375 109.17779541015625 72.00218200683594 132.56976318359375 45.744346618652344 134.785400390625" stroke-width="2.0" fill="none" stroke="rgb(0, 0, 0)" stroke-opacity="1.0" stroke-linecap="round" stroke-linejoin="round" data-orig-style="" style="display:none" />
    <path d="M 144.76608276367188 92.285400390625 C 161.99929809570312 68.19451141357422 164.5060272216797 67.42247009277344 177.67564392089844 56.13603210449219" stroke-width="2.0" fill="none" stroke="rgb(0, 0, 0)" stroke-opacity="1.0" stroke-linecap="round" stroke-linejoin="round" data-orig-style="" style="display:none" />
    <path d="M 127.20967102050781 53.63433074951172 C 142.6629638671875 60.54267883300781 144.44857788085938 81.7021255493164 159.5281524658203 70.87665557861328" stroke-width="2.0" fill="none" stroke="rgb(0, 0, 0)" stroke-opacity="1.0" stroke-linecap="round" stroke-linejoin="round" />
    <path d="M 102.6270751953125 105.52140045166016 C 87.73381042480469 125.92674255371094 79.03453063964844 153.3689422607422 53.71565628051758 158.0106201171875" stroke-width="2.0" fill="none" stroke="rgb(0, 0, 0)" stroke-opacity="1.0" stroke-linecap="round" stroke-linejoin="round" data-orig-style="" style="display:none" />
    <path d="M 87.22126007080078 117.7944564819336 C 87.94564056396484 127.42581176757812 66.54568481445312 158.12570190429688 51.58452606201172 159.39959716796875" stroke-width="2.0" fill="none" stroke="rgb(0, 0, 0)" stroke-opacity="1.0" stroke-linecap="round" stroke-linejoin="round" data-orig-style="" style="display:none" />
    <path d="M 141.9554901123047 99.46229553222656 C 158.2930145263672 74.76190185546875 156.2022705078125 74.59848022460938 171.32571411132812 60.72534942626953" stroke-width="2.0" fill="none" stroke="rgb(0, 0, 0)" stroke-opacity="1.0" stroke-linecap="round" stroke-linejoin="round" data-orig-style="" style="display:none" />
    <path d="M 125.2678451538086 50.197357177734375 C 136.69300842285156 56.53200912475586 137.4209747314453 73.55567932128906 156.5998992919922 74.3718490600586" stroke-width="2.0" fill="none" stroke="rgb(0, 0, 0)" stroke-opacity="1.0" stroke-linecap="round" stroke-linejoin="round" />
    <path d="M 116.6650619506836 55.77622985839844 C 142.14193725585938 39.66835021972656 123.2354736328125 58.23768615722656 142.3946075439453 57.08600616455078" stroke-width="2.0" fill="none" stroke="rgb(0, 0, 0)" stroke-opacity="1.0" stroke-linecap="round" stroke-linejoin="round" />
    <path d="M 95.23033142089844 105.54901885986328 C 113.831298828125 91.35015869140625 103.70639038085938 109.28099060058594 119.37394714355469 121.87373352050781" stroke-width="2.0" fill="none" stroke="rgb(0, 0, 0)" stroke-opacity="1.0" stroke-linecap="round" stroke-linejoin="round" data-orig-style="" style="display:none" />
    <path d="M 178.75469970703125 142.1371612548828 C 172.94505310058594 150.3448486328125 163.12551879882812 181.3115997314453 143.52691650390625 186.45065307617188" stroke-width="2.0" fill="none" stroke="rgb(0, 0, 0)" stroke-opacity="1.0" stroke-linecap="round" stroke-linejoin="round" data-orig-style="" style="display:none" />
    <path d="M 104.37926483154297 96.18769073486328 C 130.51171875 92.5533218383789 112.75814819335938 114.73074340820312 126.79695892333984 127.31684875488281" stroke-width="2.0" fill="none" stroke="rgb(0, 0, 0)" stroke-opacity="1.0" stroke-linecap="round" stroke-linejoin="round" data-orig-style="" style="display:none" />
    <path d="M 114.63197326660156 139.7117156982422 C 117.95216369628906 129.15109252929688 164.37608337402344 142.47940063476562 162.07188415527344 153.42189025878906" stroke-width="2.0" fill="none" stroke="rgb(0, 0, 0)" stroke-opacity="1.0" stroke-linecap="round" stroke-linejoin="round" data-orig-style="" style="display:none" />
    <path d="M 93.48831176757812 107.96483612060547 C 114.01148986816406 82.8704833984375 122.18348693847656 101.4135513305664 136.70970153808594 104.87444305419922" stroke-width="2.0" fill="none" stroke="rgb(0, 0, 0)" stroke-opacity="1.0" stroke-linecap="round" stroke-linejoin="round" data-orig-style="" style="display:none" />
    <path d="M 125.83283996582031 122.94035339355469 C 140.74420166015625 128.27342224121094 167.91366577148438 138.85873413085938 170.88206481933594 142.9580078125" stroke-width="2.0" fill="none" stroke="rgb(0, 0, 0)" stroke-opacity="1.0" stroke-linecap="round" stroke-linejoin="round" data-orig-style="" style="display:none" />
    <path d="M 164.0735626220703 150.31109619140625 C 164.7640838623047 152.037353515625 154.33055114746094 186.69297790527344 134.14761352539062 178.90802001953125" stroke-width="2.0" fill="none" stroke="rgb(0, 0, 0)" stroke-opacity="1.0" stroke-linecap="round" stroke-linejoin="round" data-orig-style="" style="display:none" />
    <path d="M 191.92164611816406 117.77031707763672 C 183.128662109375 135.30963134765625 179.29437255859375 155.7507781982422 160.13690185546875 170.1636505126953" stroke-width="2.0" fill="none" stroke="rgb(0, 0, 0)" stroke-opacity="1.0" stroke-linecap="round" stroke-linejoin="round" data-orig-style="" style="display:none" />
  </g>
</svg>