<?xml version='1.0' encoding='utf-8'?>
<svg xmlns="http://www.w3.org/2000/svg" version="1.1" width="224" height="224">
  <defs />
  <g>
    <path d="M 18.579925537109375 171.7811737060547 C 29.952407836914062 203.42681884765625 74.95938110351562 207.1431884765625 87.46610260009766 161.7212677001953" stroke-width="2.0" fill="none" stroke="rgb(0, 0, 0)" stroke-opacity="1.0" stroke-linecap="round" stroke-linejoin="round" data-orig-style="" style="display:none" />
    <path d="M 119.91117858886719 145.70974731445312 C 151.8174591064453 139.77980041503906 172.38726806640625 150.4254913330078 195.79769897460938 139.2674102783203" stroke-width="2.0" fill="none" stroke="rgb(0, 0, 0)" stroke-opacity="1.0" stroke-linecap="round" stroke-linejoin="round" data-orig-style="" style="display:none" />
    <path d="M 78.02356719970703 123.63179016113281 C 88.34793853759766 136.04383850097656 100.83805847167969 186.45831298828125 61.39693832397461 196.04129028320312" stroke-width="2.0" fill="none" stroke="rgb(0, 0, 0)" stroke-opacity="1.0" stroke-linecap="round" stroke-linejoin="round" data-orig-style="" style="display:none" />
    <path d="M 15.652227401733398 115.53807830810547 C 7.197848320007324 145.25698852539062 10.775713920593262 183.25204467773438 39.26359558105469 194.64259338378906" stroke-width="2.0" fill="none" stroke="rgb(0, 0, 0)" stroke-opacity="1.0" stroke-linecap="round" stroke-linejoin="round" data-orig-style="" style="display:none" />
    <path d="M 158.02481079101562 120.41119384765625 C 205.77749633789062 111.32150268554688 198.520751953125 105.75117492675781 204.78111267089844 109.40528869628906" stroke-width="2.0" fill="none" stroke="rgb(0, 0, 0)" stroke-opacity="1.0" stroke-linecap="round" stroke-linejoin="round" data-orig-style="" style="display:none" />
    <path d="M 52.852745056152344 47.64213180541992 C 89.86048889160156 21.56088638305664 112.83261108398438 21.96219253540039 126.48207092285156 30.60025978088379" stroke-width="2.0" fill="none" stroke="rgb(0, 0, 0)" stroke-opacity="1.0" stroke-linecap="round" stroke-linejoin="round" data-orig-style="" style="display:none" />
    <path d="M 15.54963493347168 118.0224609375 C 26.182334899902344 67.927734375 54.63426208496094 45.12587356567383 74.4651870727539 36.896392822265625" stroke-width="2.0" fill="none" stroke="rgb(0, 0, 0)" stroke-opacity="1.0" stroke-linecap="round" stroke-linejoin="round" />
    <path d="M 169.69232177734375 36.011566162109375 C 191.59657287597656 31.833332061767578 207.08047485351562 45.52642059326172 213.50950622558594 58.544464111328125" stroke-width="2.0" fill="none" stroke="rgb(0, 0, 0)" stroke-opacity="1.0" stroke-linecap="round" stroke-linejoin="round" data-orig-style="" style="display:none" />
    <path d="M 58.10538864135742 84.12521362304688 C 65.28565979003906 83.87134552001953 72.73646545410156 96.94773864746094 88.04401397705078 100.252685546875" stroke-width="2.0" fill="none" stroke="rgb(0, 0, 0)" stroke-opacity="1.0" stroke-linecap="round" stroke-linejoin="round" data-orig-style="" style="display:none" />
    <path d="M 133.6022186279297 32.178749084472656 C 146.39645385742188 23.736217498779297 143.97430419921875 22.511402130126953 167.34317016601562 30.41216468811035" stroke-width="2.0" fill="none" stroke="rgb(0, 0, 0)" stroke-opacity="1.0" stroke-linecap="round" stroke-linejoin="round" data-orig-style="" style="display:none" />
    <path d="M 146.2649688720703 27.07071304321289 C 158.0021209716797 27.220027923583984 172.9335174560547 32.340579986572266 187.88131713867188 37.26436996459961" stroke-width="2.0" fill="none" stroke="rgb(0, 0, 0)" stroke-opacity="1.0" stroke-linecap="round" stroke-linejoin="round" data-orig-style="" style="display:none" />
    <path d="M 129.03659057617188 133.95188903808594 C 93.81669616699219 164.04444885253906 94.43170928955078 161.77455139160156 77.97590637207031 178.87234497070312" stroke-width="2.0" fill="none" stroke="rgb(0, 0, 0)" stroke-opacity="1.0" stroke-linecap="round" stroke-linejoin="round" data-orig-style="" style="display:none" />
    <path d="M 181.4609375 115.89217376708984 C 211.96670532226562 108.2192153930664 203.46939086914062 113.81639862060547 200.92335510253906 130.0731201171875" stroke-width="2.0" fill="none" stroke="rgb(0, 0, 0)" stroke-opacity="1.0" stroke-linecap="round" stroke-linejoin="round" data-orig-style="" style="display:none" />
    <path d="M 82.6124267578125 163.7443389892578 C 106.58087921142578 158.2721710205078 121.73613739013672 150.55517578125 148.56629943847656 130.73760986328125" stroke-width="2.0" fill="none" stroke="rgb(0, 0, 0)" stroke-opacity="1.0" stroke-linecap="round" stroke-linejoin="round" data-orig-style="" style="display:none" />
    <path d="M 125.38172149658203 145.14903259277344 C 156.8483123779297 139.7766571044922 170.14784240722656 148.22618103027344 193.18118286132812 140.02389526367188" stroke-width="2.0" fill="none" stroke="rgb(0, 0, 0)" stroke-opacity="1.0" stroke-linecap="round" stroke-linejoin="round" data-orig-style="" style="display:none" />
    <path d="M 176.92422485351562 37.247779846191406 C 191.83795166015625 34.46227264404297 205.23336791992188 45.13420867919922 211.5596923828125 53.970542907714844" stroke-width="2.0" fill="none" stroke="rgb(0, 0, 0)" stroke-opacity="1.0" stroke-linecap="round" stroke-linejoin="round" data-orig-style="" style="display:none" />
    <path d="M 103.08728790283203 81.6955795288086 C 92.67958068847656 122.72683715820312 104.99607849121094 128.67437744140625 89.3732681274414 151.47769165039062" stroke-width="2.0" fill="none" stroke="rgb(0, 0, 0)" stroke-opacity="1.0" stroke-linecap="round" stroke-linejoin="round" data-orig-style="" style="display:none" />
    <path d="M 191.17941284179688 40.26123046875 C 208.18704223632812 44.65330505371094 219.2843780517578 59.72394943237305 213.02462768554688 66.59405517578125" stroke-width="2.0" fill="none" stroke="rgb(0, 0, 0)" stroke-opacity="1.0" stroke-linecap="round" stroke-linejoin="round" data-orig-style="" style="display:none" />
    <path d="M 161.52865600585938 53.871639251708984 C 169.87991333007812 38.182228088378906 180.65667724609375 53.71449279785156 175.10813903808594 54.362667083740234" stroke-width="2.0" fill="none" stroke="rgb(0, 0, 0)" stroke-opacity="1.0" stroke-linecap="round" stroke-linejoin="round" data-orig-style="" style="display:none" />
    <path d="M 150.1129913330078 31.64230728149414 C 127.86219024658203 54.24016571044922 137.5370330810547 75.45148468017578 146.02001953125 87.81431579589844" stroke-width="2.0" fill="none" stroke="rgb(0, 0, 0)" stroke-opacity="1.0" stroke-linecap="round" stroke-linejoin="round" data-orig-style="" style="display:none" />
    <path d="M 208.61569213867188 69.86695861816406 C 210.38119506835938 70.67662048339844 195.49237060546875 103.22358703613281 157.22842407226562 101.46617126464844" stroke-width="2.0" fill="none" stroke="rgb(0, 0, 0)" stroke-opacity="1.0" stroke-linecap="round" stroke-linejoin="round" data-orig-style="" style="display:none" />
    <path d="M 208.2263641357422 68.17174530029297 C 214.3840789794922 64.8420181274414 209.510498046875 93.97722625732422 171.23361206054688 98.34710693359375" stroke-width="2.0" fill="none" stroke="rgb(0, 0, 0)" stroke-opacity="1.0" stroke-linecap="round" stroke-linejoin="round" data-orig-style="" style="display:none" />
    <path d="M 170.03468322753906 56.810272216796875 C 183.9589080810547 46.37218475341797 187.62123107910156 61.594825744628906 179.62159729003906 60.690162658691406" stroke-width="2.0" fill="none" stroke="rgb(0, 0, 0)" stroke-opacity="1.0" stroke-linecap="round" stroke-linejoin="round" data-orig-style="" style="display:none" />
    <path d="M 147.42481994628906 33.450965881347656 C 120.51148986816406 59.95149230957031 133.2681884765625 78.989013671875 146.54246520996094 90.20668029785156" stroke-width="2.0" fill="none" stroke="rgb(0, 0, 0)" stroke-opacity="1.0" stroke-linecap="round" stroke-linejoin="round" data-orig-style="" style="display:none" />
    <path d="M 118.91951751708984 73.1385498046875 C 126.41268920898438 82.9842529296875 146.03952026367188 100.4376220703125 167.5936279296875 96.63965606689453" stroke-width="2.0" fill="none" stroke="rgb(0, 0, 0)" stroke-opacity="1.0" stroke-linecap="round" stroke-linejoin="round" data-orig-style="" style="display:none" />
    <path d="M 130.67611694335938 110.71234130859375 C 135.796630859375 122.19512939453125 136.1405487060547 120.31356811523438 143.6256103515625 114.27501678466797" stroke-width="2.0" fill="none" stroke="rgb(0, 0, 0)" stroke-opacity="1.0" stroke-linecap="round" stroke-linejoin="round" data-orig-style="" style="display:none" />
    <path d="M 103.94893646240234 82.61061096191406 C 120.56696319580078 76.92332458496094 133.81871032714844 100.71037292480469 147.26173400878906 93.1817626953125" stroke-width="2.0" fill="none" stroke="rgb(0, 0, 0)" stroke-opacity="1.0" stroke-linecap="round" stroke-linejoin="round" data-orig-style="" style="display:none" />
    <path d="M 116.34384155273438 98.44319915771484 C 129.69509887695312 106.87447357177734 126.75450134277344 112.29688262939453 138.0975341796875 105.11331176757812" stroke-width="2.0" fill="none" stroke="rgb(0, 0, 0)" stroke-opacity="1.0" stroke-linecap="round" stroke-linejoin="round" data-orig-style="" style="display:none" />
    <path d="M 118.38786315917969 42.38341522216797 C 97.46971130371094 67.94117736816406 100.21981811523438 76.61956787109375 101.07167053222656 96.27171325683594" stroke-width="2.0" fill="none" stroke="rgb(0, 0, 0)" stroke-opacity="1.0" stroke-linecap="round" stroke-linejoin="round" data-orig-style="" style="display:none" />
    <path d="M 109.02871704101562 53.891273498535156 C 96.96511840820312 77.50867462158203 98.95923614501953 89.76403045654297 106.07716369628906 93.86929321289062" stroke-width="2.0" fill="none" stroke="rgb(0, 0, 0)" stroke-opacity="1.0" stroke-linecap="round" stroke-linejoin="round" data-orig-style="" style="display:none" />
    <path d="M 78.90965270996094 101.33325958251953 C 59.701499938964844 120.66943359375 39.727622985839844 141.1915283203125 38.95868682861328 157.0424041748047" stroke-width="2.0" fill="none" stroke="rgb(0, 0, 0)" stroke-opacity="1.0" stroke-linecap="round" stroke-linejoin="round" data-orig-style="" style="display:none" />
    <path d="M 42.72782897949219 145.3902587890625 C 43.457481384277344 147.0637664794922 37.73374938964844 162.63389587402344 58.364501953125 164.17039489746094" stroke-width="2.0" fill="none" stroke="rgb(0, 0, 0)" stroke-opacity="1.0" stroke-linecap="round" stroke-linejoin="round" data-orig-style="" style="display:none" />
  </g>
</svg>