<?xml version='1.0' encoding='utf-8'?>
<svg xmlns="http://www.w3.org/2000/svg" version="1.1" width="224" height="224">
  <defs />
  <g>
    <path d="M 64.334228515625 203.5878448486328 C 81.47697448730469 201.436767578125 58.18751907348633 205.83270263671875 81.76665496826172 204.50216674804688" stroke-width="2.0" fill="none" stroke="rgb(0, 0, 0)" stroke-opacity="1.0" stroke-linecap="round" stroke-linejoin="round" data-orig-style="" style="display:none" />
    <path d="M 57.585750579833984 205.24949645996094 C 85.19205474853516 205.11672973632812 110.03201293945312 206.72235107421875 128.9207763671875 206.31480407714844" stroke-width="2.0" fill="none" stroke="rgb(0, 0, 0)" stroke-opacity="1.0" stroke-linecap="round" stroke-linejoin="round" data-orig-style="" style="display:none" />
    <path d="M 161.6020050048828 54.466514587402344 C 182.4055633544922 21.43659210205078 202.45297241210938 30.451831817626953 197.49221801757812 54.62804412841797" stroke-width="2.0" fill="none" stroke="rgb(0, 0, 0)" stroke-opacity="1.0" stroke-linecap="round" stroke-linejoin="round" data-orig-style="" style="display:none" />
    <path d="M 36.16284942626953 90.27020263671875 C 25.511077880859375 124.42488098144531 48.647621154785156 143.05506896972656 79.70056915283203 161.3045654296875" stroke-width="2.0" fill="none" stroke="rgb(0, 0, 0)" stroke-opacity="1.0" stroke-linecap="round" stroke-linejoin="round" />
    <path d="M 108.51297760009766 67.62322235107422 C 129.8781280517578 76.1436538696289 134.48934936523438 72.23731994628906 154.9770050048828 60.51345443725586" stroke-width="2.0" fill="none" stroke="rgb(0, 0, 0)" stroke-opacity="1.0" stroke-linecap="round" stroke-linejoin="round" data-orig-style="" style="display:none" />
    <path d="M 38.84352111816406 30.188167572021484 C 48.90864944458008 15.141454696655273 68.3808822631836 13.462591171264648 84.46529388427734 33.57481384277344" stroke-width="2.0" fill="none" stroke="rgb(0, 0, 0)" stroke-opacity="1.0" stroke-linecap="round" stroke-linejoin="round" data-orig-style="" style="display:none" />
    <path d="M 175.49789428710938 132.94302368164062 C 176.668212890625 152.14051818847656 158.3828125 172.12306213378906 138.35519409179688 172.93101501464844" stroke-width="2.0" fill="none" stroke="rgb(0, 0, 0)" stroke-opacity="1.0" stroke-linecap="round" stroke-linejoin="round" data-orig-style="" style="display:none" />
    <path d="M 37.88960647583008 46.36639404296875 C 34.01972961425781 27.504955291748047 45.31215286254883 27.280189514160156 54.615474700927734 16.67416763305664" stroke-width="2.0" fill="none" stroke="rgb(0, 0, 0)" stroke-opacity="1.0" stroke-linecap="round" stroke-linejoin="round" data-orig-style="" style="display:none" />
    <path d="M 34.55591583251953 126.33116912841797 C 35.77495193481445 63.12590408325195 49.75543975830078 67.99115753173828 58.47779846191406 53.41089630126953" stroke-width="2.0" fill="none" stroke="rgb(0, 0, 0)" stroke-opacity="1.0" stroke-linecap="round" stroke-linejoin="round" />
    <path d="M 79.56787109375 29.519927978515625 C 97.22557067871094 49.47889709472656 88.98849487304688 51.738800048828125 109.92445373535156 76.701904296875" stroke-width="2.0" fill="none" stroke="rgb(0, 0, 0)" stroke-opacity="1.0" stroke-linecap="round" stroke-linejoin="round" data-orig-style="" style="display:none" />
    <path d="M 118.26435852050781 164.3854522705078 C 123.0252456665039 187.63088989257812 108.0823974609375 202.6128692626953 129.53292846679688 207.4293975830078" stroke-width="2.0" fill="none" stroke="rgb(0, 0, 0)" stroke-opacity="1.0" stroke-linecap="round" stroke-linejoin="round" data-orig-style="" style="display:none" />
    <path d="M 60.93052673339844 23.45673179626465 C 81.82928466796875 21.795059204101562 85.34033966064453 36.08731460571289 90.69480895996094 54.13637161254883" stroke-width="2.0" fill="none" stroke="rgb(0, 0, 0)" stroke-opacity="1.0" stroke-linecap="round" stroke-linejoin="round" data-orig-style="" style="display:none" />
    <path d="M 59.57255935668945 20.745342254638672 C 89.41155242919922 25.72530174255371 85.69013977050781 38.94038391113281 96.71968078613281 61.55759048461914" stroke-width="2.0" fill="none" stroke="rgb(0, 0, 0)" stroke-opacity="1.0" stroke-linecap="round" stroke-linejoin="round" data-orig-style="" style="display:none" />
    <path d="M 45.22791290283203 60.70178985595703 C 50.607967376708984 55.162391662597656 59.69587707519531 59.55379867553711 67.20801544189453 38.461402893066406" stroke-width="2.0" fill="none" stroke="rgb(0, 0, 0)" stroke-opacity="1.0" stroke-linecap="round" stroke-linejoin="round" data-orig-style="" style="display:none" />
    <path d="M 161.27105712890625 113.55838012695312 C 180.1219482421875 118.2433853149414 183.94271850585938 145.56878662109375 163.82217407226562 165.3489532470703" stroke-width="2.0" fill="none" stroke="rgb(0, 0, 0)" stroke-opacity="1.0" stroke-linecap="round" stroke-linejoin="round" data-orig-style="" style="display:none" />
    <path d="M 157.29818725585938 67.46392059326172 C 170.69683837890625 57.367279052734375 171.4881134033203 67.8909912109375 182.4434356689453 52.8203010559082" stroke-width="2.0" fill="none" stroke="rgb(0, 0, 0)" stroke-opacity="1.0" stroke-linecap="round" stroke-linejoin="round" data-orig-style="" style="display:none" />
    <path d="M 72.81819152832031 33.712581634521484 C 70.89273071289062 55.71767807006836 54.502803802490234 52.53156280517578 52.77238464355469 55.01988983154297" stroke-width="2.0" fill="none" stroke="rgb(0, 0, 0)" stroke-opacity="1.0" stroke-linecap="round" stroke-linejoin="round" data-orig-style="" style="display:none" />
    <path d="M 104.89207458496094 66.35017395019531 C 130.42330932617188 81.8318862915039 139.2607421875 70.90829467773438 155.46673583984375 66.45121765136719" stroke-width="2.0" fill="none" stroke="rgb(0, 0, 0)" stroke-opacity="1.0" stroke-linecap="round" stroke-linejoin="round" data-orig-style="" style="display:none" />
    <path d="M 196.871826171875 44.24521255493164 C 198.77737426757812 50.84396743774414 202.5229034423828 78.20091247558594 192.52589416503906 83.53474426269531" stroke-width="2.0" fill="none" stroke="rgb(0, 0, 0)" stroke-opacity="1.0" stroke-linecap="round" stroke-linejoin="round" data-orig-style="" style="display:none" />
    <path d="M 92.82564544677734 155.3241729736328 C 89.48434448242188 165.4336700439453 95.26673126220703 207.42172241210938 71.37059020996094 208.03453063964844" stroke-width="2.0" fill="none" stroke="rgb(0, 0, 0)" stroke-opacity="1.0" stroke-linecap="round" stroke-linejoin="round" data-orig-style="" style="display:none" />
    <path d="M 95.1740951538086 156.10113525390625 C 91.67329406738281 172.5455322265625 94.41063690185547 209.25161743164062 71.60808563232422 207.99661254882812" stroke-width="2.0" fill="none" stroke="rgb(0, 0, 0)" stroke-opacity="1.0" stroke-linecap="round" stroke-linejoin="round" data-orig-style="" style="display:none" />
    <path d="M 88.94835662841797 88.49494934082031 C 98.98114776611328 113.22676849365234 96.87347412109375 112.55378723144531 115.03268432617188 124.91169738769531" stroke-width="2.0" fill="none" stroke="rgb(0, 0, 0)" stroke-opacity="1.0" stroke-linecap="round" stroke-linejoin="round" />
    <path d="M 174.5355682373047 98.9439697265625 C 194.2742462158203 86.7536392211914 192.60716247558594 93.73954010009766 197.5169677734375 78.24097442626953" stroke-width="2.0" fill="none" stroke="rgb(0, 0, 0)" stroke-opacity="1.0" stroke-linecap="round" stroke-linejoin="round" data-orig-style="" style="display:none" />
    <path d="M 83.46885681152344 95.6845703125 C 96.14219665527344 116.92733764648438 95.21630859375 117.63250732421875 106.44843292236328 129.91175842285156" stroke-width="2.0" fill="none" stroke="rgb(0, 0, 0)" stroke-opacity="1.0" stroke-linecap="round" stroke-linejoin="round" />
    <path d="M 141.57891845703125 84.91453552246094 C 161.92303466796875 97.87564086914062 153.4312744140625 106.50180053710938 176.71820068359375 116.80176544189453" stroke-width="2.0" fill="none" stroke="rgb(0, 0, 0)" stroke-opacity="1.0" stroke-linecap="round" stroke-linejoin="round" data-orig-style="" style="display:none" />
    <path d="M 116.93785858154297 126.93608093261719 C 128.79168701171875 117.00447082519531 138.7195281982422 130.4564666748047 161.91134643554688 120.03030395507812" stroke-width="2.0" fill="none" stroke="rgb(0, 0, 0)" stroke-opacity="1.0" stroke-linecap="round" stroke-linejoin="round" data-orig-style="" style="display:none" />
    <path d="M 114.01485443115234 166.50155639648438 C 123.4328384399414 177.7451934814453 154.44793701171875 171.41697692871094 163.02850341796875 160.1712188720703" stroke-width="2.0" fill="none" stroke="rgb(0, 0, 0)" stroke-opacity="1.0" stroke-linecap="round" stroke-linejoin="round" data-orig-style="" style="display:none" />
    <path d="M 90.39012908935547 160.21546936035156 C 100.23029327392578 171.5823974609375 132.9805145263672 179.0244140625 156.72222900390625 161.2724609375" stroke-width="2.0" fill="none" stroke="rgb(0, 0, 0)" stroke-opacity="1.0" stroke-linecap="round" stroke-linejoin="round" data-orig-style="" style="display:none" />
    <path d="M 88.4018783569336 159.09947204589844 C 98.10687255859375 169.072509765625 121.05322265625 178.10157775878906 146.3066864013672 165.32571411132812" stroke-width="2.0" fill="none" stroke="rgb(0, 0, 0)" stroke-opacity="1.0" stroke-linecap="round" stroke-linejoin="round" data-orig-style="" style="display:none" />
    <path d="M 98.61351013183594 155.2676544189453 C 103.94122314453125 162.42088317871094 115.80825805664062 165.9715118408203 124.54510498046875 159.7304229736328" stroke-width="2.0" fill="none" stroke="rgb(0, 0, 0)" stroke-opacity="1.0" stroke-linecap="round" stroke-linejoin="round" data-orig-style="" style="display:none" />
    <path d="M 162.9329833984375 115.27864837646484 C 180.78945922851562 121.79219055175781 182.79689025878906 146.5651092529297 163.30056762695312 165.5069122314453" stroke-width="2.0" fill="none" stroke="rgb(0, 0, 0)" stroke-opacity="1.0" stroke-linecap="round" stroke-linejoin="round" data-orig-style="" style="display:none" />
    <path d="M 193.74620056152344 84.97431945800781 C 198.78114318847656 92.24755096435547 190.0220489501953 111.2947006225586 174.4495391845703 108.94395446777344" stroke-width="2.0" fill="none" stroke="rgb(0, 0, 0)" stroke-opacity="1.0" stroke-linecap="round" stroke-linejoin="round" data-orig-style="" style="display:none" />
  </g>
</svg>