<?xml version="1.0" ?>
<svg xmlns="http://www.w3.org/2000/svg" version="1.1" width="224" height="224">
  <defs/>
  <g>
    <path d="M 47.978206634521484 114.39585876464844 C 29.42919158935547 104.24779510498047 17.323760986328125 157.06358337402344 38.61665344238281 170.44189453125" stroke-width="2.0" fill="none" stroke="rgb(0, 0, 0)" stroke-opacity="1.0" stroke-linecap="round" stroke-linejoin="round"/>
    <path d="M 130.86822509765625 83.068359375 C 154.9710693359375 96.34969329833984 169.38644409179688 95.36711883544922 140.644287109375 122.87604522705078" stroke-width="2.0" fill="none" stroke="rgb(0, 0, 0)" stroke-opacity="1.0" stroke-linecap="round" stroke-linejoin="round"/>
    <path d="M 137.7359161376953 39.510135650634766 C 166.49862670898438 76.73345947265625 178.83065795898438 73.38655853271484 178.027587890625 79.54983520507812" stroke-width="2.0" fill="none" stroke="rgb(0, 0, 0)" stroke-opacity="1.0" stroke-linecap="round" stroke-linejoin="round"/>
    <path d="M 46.96035385131836 70.21615600585938 C 70.81959533691406 59.401065826416016 76.75697326660156 45.997596740722656 82.50275421142578 46.34961700439453" stroke-width="2.0" fill="none" stroke="rgb(0, 0, 0)" stroke-opacity="1.0" stroke-linecap="round" stroke-linejoin="round"/>
    <path d="M 152.58192443847656 42.6278190612793 C 176.96717834472656 57.850013732910156 202.43751525878906 75.76261138916016 170.03021240234375 93.60346221923828" stroke-width="2.0" fill="none" stroke="rgb(0, 0, 0)" stroke-opacity="1.0" stroke-linecap="round" stroke-linejoin="round"/>
    <path d="M 48.158546447753906 131.30079650878906 C 37.69489288330078 156.8578643798828 59.70762634277344 185.62115478515625 74.44811248779297 180.5355682373047" stroke-width="2.0" fill="none" stroke="rgb(0, 0, 0)" stroke-opacity="1.0" stroke-linecap="round" stroke-linejoin="round"/>
    <path d="M 142.67237854003906 37.60399627685547 C 168.9901123046875 40.043880462646484 197.22801208496094 75.20559692382812 178.04515075683594 86.1773910522461" stroke-width="2.0" fill="none" stroke="rgb(0, 0, 0)" stroke-opacity="1.0" stroke-linecap="round" stroke-linejoin="round"/>
    <path d="M 189.45863342285156 130.3431854248047 C 200.81890869140625 144.9720001220703 201.84124755859375 172.8191375732422 188.19647216796875 179.4256591796875" stroke-width="2.0" fill="none" stroke="rgb(0, 0, 0)" stroke-opacity="1.0" stroke-linecap="round" stroke-linejoin="round"/>
    <path d="M 43.81629180908203 87.76685333251953 C 22.270771026611328 64.25743103027344 70.7952880859375 40.26156234741211 79.7398910522461 46.407135009765625" stroke-width="2.0" fill="none" stroke="rgb(0, 0, 0)" stroke-opacity="1.0" stroke-linecap="round" stroke-linejoin="round"/>
    <path d="M 142.69088745117188 122.51543426513672 C 178.9911651611328 97.96122741699219 188.60177612304688 105.48286437988281 199.36410522460938 139.25076293945312" stroke-width="2.0" fill="none" stroke="rgb(0, 0, 0)" stroke-opacity="1.0" stroke-linecap="round" stroke-linejoin="round"/>
    <path d="M 189.21438598632812 123.1451416015625 C 201.37759399414062 131.97817993164062 206.53492736816406 165.31631469726562 191.05020141601562 176.85726928710938" stroke-width="2.0" fill="none" stroke="rgb(0, 0, 0)" stroke-opacity="1.0" stroke-linecap="round" stroke-linejoin="round"/>
    <path d="M 155.39805603027344 97.91374206542969 C 176.6951904296875 63.85258483886719 197.60394287109375 84.85623931884766 156.9494171142578 106.64892578125" stroke-width="2.0" fill="none" stroke="rgb(0, 0, 0)" stroke-opacity="1.0" stroke-linecap="round" stroke-linejoin="round"/>
    <path d="M 63.65997314453125 105.73946380615234 C 74.95266723632812 83.4665298461914 98.06358337402344 87.13286590576172 108.1498031616211 80.11363983154297" stroke-width="2.0" fill="none" stroke="rgb(0, 0, 0)" stroke-opacity="1.0" stroke-linecap="round" stroke-linejoin="round"/>
    <path d="M 63.36943435668945 104.310791015625 C 81.55859375 78.10972595214844 105.99006652832031 86.1749038696289 121.3100814819336 80.99300384521484" stroke-width="2.0" fill="none" stroke="rgb(0, 0, 0)" stroke-opacity="1.0" stroke-linecap="round" stroke-linejoin="round"/>
    <path d="M 44.389774322509766 118.19622802734375 C 26.62554931640625 122.3802490234375 17.641197204589844 161.11282348632812 41.57913589477539 171.92813110351562" stroke-width="2.0" fill="none" stroke="rgb(0, 0, 0)" stroke-opacity="1.0" stroke-linecap="round" stroke-linejoin="round"/>
    <path d="M 43.43334197998047 76.58902740478516 C 57.327735900878906 76.66517639160156 70.12356567382812 56.06382751464844 82.57859802246094 46.97093963623047" stroke-width="2.0" fill="none" stroke="rgb(0, 0, 0)" stroke-opacity="1.0" stroke-linecap="round" stroke-linejoin="round"/>
    <path d="M 118.73567199707031 79.8689193725586 C 138.1666259765625 88.97306823730469 175.48550415039062 95.42334747314453 140.8673858642578 117.2923355102539" stroke-width="2.0" fill="none" stroke="rgb(0, 0, 0)" stroke-opacity="1.0" stroke-linecap="round" stroke-linejoin="round"/>
    <path d="M 177.280029296875 141.23330688476562 C 176.3043212890625 164.43496704101562 166.12481689453125 184.60049438476562 156.0802001953125 183.02120971679688" stroke-width="2.0" fill="none" stroke="rgb(0, 0, 0)" stroke-opacity="1.0" stroke-linecap="round" stroke-linejoin="round"/>
    <path d="M 102.29791259765625 80.97517395019531 C 117.84291076660156 82.57504272460938 152.8181610107422 86.34556579589844 156.99676513671875 99.153564453125" stroke-width="2.0" fill="none" stroke="rgb(0, 0, 0)" stroke-opacity="1.0" stroke-linecap="round" stroke-linejoin="round"/>
    <path d="M 167.72979736328125 113.29375457763672 C 181.2327117919922 138.55335998535156 180.052001953125 132.27084350585938 185.4123077392578 145.9043731689453" stroke-width="2.0" fill="none" stroke="rgb(0, 0, 0)" stroke-opacity="1.0" stroke-linecap="round" stroke-linejoin="round"/>
    <path d="M 138.96844482421875 36.950477600097656 C 163.131591796875 38.001792907714844 189.63592529296875 63.92450714111328 183.61683654785156 78.91742706298828" stroke-width="2.0" fill="none" stroke="rgb(0, 0, 0)" stroke-opacity="1.0" stroke-linecap="round" stroke-linejoin="round"/>
    <path d="M 172.44667053222656 131.0532989501953 C 177.8782501220703 147.7901611328125 173.52349853515625 172.89767456054688 159.23092651367188 181.6079864501953" stroke-width="2.0" fill="none" stroke="rgb(0, 0, 0)" stroke-opacity="1.0" stroke-linecap="round" stroke-linejoin="round"/>
    <path d="M 176.4930419921875 143.29876708984375 C 172.0101318359375 162.11776733398438 166.20391845703125 183.5496826171875 156.5133819580078 182.47601318359375" stroke-width="2.0" fill="none" stroke="rgb(0, 0, 0)" stroke-opacity="1.0" stroke-linecap="round" stroke-linejoin="round"/>
    <path d="M 61.72831726074219 94.87246704101562 C 59.6043701171875 103.54753875732422 82.9156494140625 126.96048736572266 105.08482360839844 132.2070770263672" stroke-width="2.0" fill="none" stroke="rgb(0, 0, 0)" stroke-opacity="1.0" stroke-linecap="round" stroke-linejoin="round"/>
    <path d="M 133.64065551757812 129.0251007080078 C 174.42457580566406 108.4563980102539 173.05755615234375 114.92613983154297 183.44252014160156 115.64490509033203" stroke-width="2.0" fill="none" stroke="rgb(0, 0, 0)" stroke-opacity="1.0" stroke-linecap="round" stroke-linejoin="round"/>
    <path d="M 48.499046325683594 136.25146484375 C 72.41593933105469 136.19827270507812 85.07300567626953 133.4148406982422 104.45951843261719 122.65444946289062" stroke-width="2.0" fill="none" stroke="rgb(0, 0, 0)" stroke-opacity="1.0" stroke-linecap="round" stroke-linejoin="round"/>
    <path d="M 52.607139587402344 103.44381713867188 C 67.97343444824219 108.82331848144531 85.97621154785156 130.6160888671875 110.7232894897461 131.8011474609375" stroke-width="2.0" fill="none" stroke="rgb(0, 0, 0)" stroke-opacity="1.0" stroke-linecap="round" stroke-linejoin="round"/>
    <path d="M 147.10931396484375 126.999755859375 C 180.72178649902344 147.9427947998047 176.79664611816406 134.96615600585938 172.59738159179688 154.5191650390625" stroke-width="2.0" fill="none" stroke="rgb(0, 0, 0)" stroke-opacity="1.0" stroke-linecap="round" stroke-linejoin="round"/>
    <path d="M 43.21345901489258 124.15963745117188 C 88.3462905883789 130.52816772460938 88.18888092041016 136.89785766601562 129.6127166748047 121.81209564208984" stroke-width="2.0" fill="none" stroke="rgb(0, 0, 0)" stroke-opacity="1.0" stroke-linecap="round" stroke-linejoin="round"/>
    <path d="M 159.72943115234375 100.32392883300781 C 148.67037963867188 110.09765625 136.81057739257812 122.33305358886719 127.09196472167969 131.62672424316406" stroke-width="2.0" fill="none" stroke="rgb(0, 0, 0)" stroke-opacity="1.0" stroke-linecap="round" stroke-linejoin="round"/>
    <path d="M 152.8494415283203 109.03311157226562 C 140.18264770507812 116.41726684570312 132.81109619140625 130.11593627929688 113.09858703613281 130.90249633789062" stroke-width="2.0" fill="none" stroke="rgb(0, 0, 0)" stroke-opacity="1.0" stroke-linecap="round" stroke-linejoin="round"/>
    <path d="M 153.05850219726562 109.08531951904297 C 140.99398803710938 116.3554916381836 131.70364379882812 129.73141479492188 114.75244140625 131.1846923828125" stroke-width="2.0" fill="none" stroke="rgb(0, 0, 0)" stroke-opacity="1.0" stroke-linecap="round" stroke-linejoin="round"/>
  </g>
</svg>
