<?xml version='1.0' encoding='utf-8'?>
<svg xmlns="http://www.w3.org/2000/svg" version="1.1" width="224" height="224">
  <defs />
  <g>
    <path d="M 85.62515258789062 94.9045181274414 C 74.59044647216797 143.12017822265625 79.42068481445312 164.23435974121094 87.10533905029297 179.98760986328125" stroke-width="2.0" fill="none" stroke="rgb(0, 0, 0)" stroke-opacity="1.0" stroke-linecap="round" stroke-linejoin="round" data-orig-style="" style="display:none" />
    <path d="M 161.05453491210938 72.10543060302734 C 177.07080078125 80.52143859863281 169.49461364746094 107.02849578857422 160.19822692871094 131.94039916992188" stroke-width="2.0" fill="none" stroke="rgb(0, 0, 0)" stroke-opacity="1.0" stroke-linecap="round" stroke-linejoin="round" />
    <path d="M 159.9217987060547 130.0767059326172 C 157.66912841796875 139.36167907714844 148.84512329101562 170.49386596679688 153.08050537109375 183.25819396972656" stroke-width="2.0" fill="none" stroke="rgb(0, 0, 0)" stroke-opacity="1.0" stroke-linecap="round" stroke-linejoin="round" data-orig-style="" style="display:none" />
    <path d="M 138.62481689453125 24.068655014038086 C 163.19387817382812 25.232847213745117 176.44451904296875 48.39868927001953 174.53244018554688 63.13456726074219" stroke-width="2.0" fill="none" stroke="rgb(0, 0, 0)" stroke-opacity="1.0" stroke-linecap="round" stroke-linejoin="round" data-orig-style="" style="display:none" />
    <path d="M 46.66343688964844 61.323646545410156 C 55.39735412597656 85.60826110839844 79.90379333496094 84.25078582763672 86.61396026611328 97.4344711303711" stroke-width="2.0" fill="none" stroke="rgb(0, 0, 0)" stroke-opacity="1.0" stroke-linecap="round" stroke-linejoin="round" data-orig-style="" style="display:none" />
    <path d="M 53.2210578918457 37.71564483642578 C 77.69114685058594 19.464130401611328 83.81321716308594 27.952808380126953 95.21674346923828 27.210697174072266" stroke-width="2.0" fill="none" stroke="rgb(0, 0, 0)" stroke-opacity="1.0" stroke-linecap="round" stroke-linejoin="round" data-orig-style="" style="display:none" />
    <path d="M 45.292503356933594 69.15595245361328 C 37.7109375 49.964054107666016 57.24273681640625 32.78048324584961 69.27581787109375 27.2647705078125" stroke-width="2.0" fill="none" stroke="rgb(0, 0, 0)" stroke-opacity="1.0" stroke-linecap="round" stroke-linejoin="round" data-orig-style="" style="display:none" />
    <path d="M 51.481632232666016 76.8890609741211 C 32.351341247558594 55.95946502685547 53.58930969238281 37.072853088378906 63.675010681152344 29.365345001220703" stroke-width="2.0" fill="none" stroke="rgb(0, 0, 0)" stroke-opacity="1.0" stroke-linecap="round" stroke-linejoin="round" data-orig-style="" style="display:none" />
    <path d="M 79.24359130859375 101.43466186523438 C 90.49211883544922 98.55284118652344 84.49907684326172 101.32450103759766 85.49223327636719 110.68264770507812" stroke-width="2.0" fill="none" stroke="rgb(0, 0, 0)" stroke-opacity="1.0" stroke-linecap="round" stroke-linejoin="round" data-orig-style="" style="display:none" />
    <path d="M 88.82771301269531 27.202857971191406 C 113.41011047363281 24.128602981567383 118.78314208984375 24.28171730041504 130.58642578125 25.804187774658203" stroke-width="2.0" fill="none" stroke="rgb(0, 0, 0)" stroke-opacity="1.0" stroke-linecap="round" stroke-linejoin="round" data-orig-style="" style="display:none" />
    <path d="M 81.9251480102539 165.0469970703125 C 91.42692565917969 185.03939819335938 80.86856842041016 191.34291076660156 106.5976333618164 185.95875549316406" stroke-width="2.0" fill="none" stroke="rgb(0, 0, 0)" stroke-opacity="1.0" stroke-linecap="round" stroke-linejoin="round" data-orig-style="" style="display:none" />
    <path d="M 81.65338897705078 33.698448181152344 C 84.01434326171875 36.75803756713867 82.92778778076172 44.7103157043457 88.11857604980469 44.79704666137695" stroke-width="2.0" fill="none" stroke="rgb(0, 0, 0)" stroke-opacity="1.0" stroke-linecap="round" stroke-linejoin="round" data-orig-style="" style="display:none" />
    <path d="M 88.47010040283203 27.20707130432129 C 112.76666259765625 24.199752807617188 119.10435485839844 24.202430725097656 130.31288146972656 25.891773223876953" stroke-width="2.0" fill="none" stroke="rgb(0, 0, 0)" stroke-opacity="1.0" stroke-linecap="round" stroke-linejoin="round" data-orig-style="" style="display:none" />
    <path d="M 87.3168716430664 74.32518768310547 C 91.27497100830078 129.1044921875 99.79502868652344 112.07679748535156 105.67814636230469 154.89599609375" stroke-width="2.0" fill="none" stroke="rgb(0, 0, 0)" stroke-opacity="1.0" stroke-linecap="round" stroke-linejoin="round" data-orig-style="" style="display:none" />
    <path d="M 145.22454833984375 70.9423599243164 C 165.5598602294922 73.92828369140625 175.3544464111328 78.93438720703125 170.19970703125 104.24018096923828" stroke-width="2.0" fill="none" stroke="rgb(0, 0, 0)" stroke-opacity="1.0" stroke-linecap="round" stroke-linejoin="round" />
    <path d="M 172.46371459960938 55.3912467956543 C 175.11904907226562 57.656734466552734 173.2005615234375 71.55352020263672 160.1057586669922 73.35023498535156" stroke-width="2.0" fill="none" stroke="rgb(0, 0, 0)" stroke-opacity="1.0" stroke-linecap="round" stroke-linejoin="round" data-orig-style="" style="display:none" />
    <path d="M 122.89517211914062 24.715919494628906 C 139.85052490234375 24.065963745117188 149.23904418945312 25.313884735107422 157.67535400390625 29.571250915527344" stroke-width="2.0" fill="none" stroke="rgb(0, 0, 0)" stroke-opacity="1.0" stroke-linecap="round" stroke-linejoin="round" data-orig-style="" style="display:none" />
    <path d="M 87.72758483886719 35.77035903930664 C 86.10516357421875 67.05255889892578 87.38671875 71.06365966796875 87.03006744384766 105.70506286621094" stroke-width="2.0" fill="none" stroke="rgb(0, 0, 0)" stroke-opacity="1.0" stroke-linecap="round" stroke-linejoin="round" data-orig-style="" style="display:none" />
    <path d="M 127.54068756103516 29.31209945678711 C 141.4337615966797 46.753395080566406 125.77503967285156 55.14752960205078 136.89578247070312 71.09659576416016" stroke-width="2.0" fill="none" stroke="rgb(0, 0, 0)" stroke-opacity="1.0" stroke-linecap="round" stroke-linejoin="round" data-orig-style="" style="display:none" />
    <path d="M 101.20049285888672 120.45025634765625 C 119.80156707763672 189.05735778808594 94.5405502319336 195.05416870117188 122.09465026855469 192.01426696777344" stroke-width="2.0" fill="none" stroke="rgb(0, 0, 0)" stroke-opacity="1.0" stroke-linecap="round" stroke-linejoin="round" data-orig-style="" style="display:none" />
    <path d="M 131.10687255859375 110.75566101074219 C 130.0561065673828 146.15890502929688 113.09166717529297 176.50286865234375 120.50043487548828 191.00555419921875" stroke-width="2.0" fill="none" stroke="rgb(0, 0, 0)" stroke-opacity="1.0" stroke-linecap="round" stroke-linejoin="round" data-orig-style="" style="display:none" />
    <path d="M 86.58025360107422 34.45014953613281 C 86.43342590332031 63.15389633178711 87.9084243774414 61.62052917480469 87.2671127319336 97.38853454589844" stroke-width="2.0" fill="none" stroke="rgb(0, 0, 0)" stroke-opacity="1.0" stroke-linecap="round" stroke-linejoin="round" data-orig-style="" style="display:none" />
    <path d="M 85.60716247558594 43.38376998901367 C 90.64910125732422 59.84779357910156 86.47005462646484 67.54932403564453 91.84966278076172 76.4765853881836" stroke-width="2.0" fill="none" stroke="rgb(0, 0, 0)" stroke-opacity="1.0" stroke-linecap="round" stroke-linejoin="round" data-orig-style="" style="display:none" />
    <path d="M 107.46194458007812 91.54972839355469 C 115.81883239746094 95.32318115234375 113.42130279541016 106.66720581054688 123.05758666992188 97.01254272460938" stroke-width="2.0" fill="none" stroke="rgb(0, 0, 0)" stroke-opacity="1.0" stroke-linecap="round" stroke-linejoin="round" data-orig-style="" style="display:none" />
    <path d="M 127.33184814453125 52.24119567871094 C 130.42860412597656 74.9327392578125 118.57218933105469 88.83671569824219 127.9935302734375 103.48448944091797" stroke-width="2.0" fill="none" stroke="rgb(0, 0, 0)" stroke-opacity="1.0" stroke-linecap="round" stroke-linejoin="round" />
    <path d="M 122.54232788085938 77.87265014648438 C 131.15599060058594 85.4918212890625 115.2382583618164 101.41921997070312 131.34414672851562 112.76779174804688" stroke-width="2.0" fill="none" stroke="rgb(0, 0, 0)" stroke-opacity="1.0" stroke-linecap="round" stroke-linejoin="round" data-orig-style="" style="display:none" />
    <path d="M 123.64584350585938 91.46119689941406 C 132.70272827148438 95.05854797363281 125.33385467529297 110.22150421142578 137.3062744140625 115.31697845458984" stroke-width="2.0" fill="none" stroke="rgb(0, 0, 0)" stroke-opacity="1.0" stroke-linecap="round" stroke-linejoin="round" data-orig-style="" style="display:none" />
    <path d="M 126.54132080078125 100.00426483154297 C 131.69581604003906 110.5363540649414 123.8623275756836 119.25883483886719 121.5599365234375 131.61734008789062" stroke-width="2.0" fill="none" stroke="rgb(0, 0, 0)" stroke-opacity="1.0" stroke-linecap="round" stroke-linejoin="round" data-orig-style="" style="display:none" />
    <path d="M 138.26229858398438 121.12175750732422 C 145.13636779785156 118.85195922851562 142.0910186767578 128.47531127929688 144.14674377441406 127.40318298339844" stroke-width="2.0" fill="none" stroke="rgb(0, 0, 0)" stroke-opacity="1.0" stroke-linecap="round" stroke-linejoin="round" data-orig-style="" style="display:none" />
    <path d="M 113.22157287597656 121.33271026611328 C 110.38508605957031 130.9893798828125 111.125 160.36260986328125 107.95935821533203 184.5197296142578" stroke-width="2.0" fill="none" stroke="rgb(0, 0, 0)" stroke-opacity="1.0" stroke-linecap="round" stroke-linejoin="round" data-orig-style="" style="display:none" />
    <path d="M 142.8774871826172 122.03330993652344 C 146.3363037109375 136.32151794433594 141.59791564941406 145.94329833984375 144.2609100341797 160.3518829345703" stroke-width="2.0" fill="none" stroke="rgb(0, 0, 0)" stroke-opacity="1.0" stroke-linecap="round" stroke-linejoin="round" data-orig-style="" style="display:none" />
    <path d="M 167.25250244140625 103.77552795410156 C 164.79490661621094 124.10940551757812 154.624267578125 147.73928833007812 154.32879638671875 169.81900024414062" stroke-width="2.0" fill="none" stroke="rgb(0, 0, 0)" stroke-opacity="1.0" stroke-linecap="round" stroke-linejoin="round" data-orig-style="" style="display:none" />
  </g>
</svg>