<?xml version='1.0' encoding='utf-8'?>
<svg xmlns="http://www.w3.org/2000/svg" version="1.1" width="224" height="224">
  <defs />
  <g>
    <path d="M 98.82000732421875 124.76123809814453 C 114.47909545898438 180.27700805664062 100.52185821533203 193.03062438964844 110.14924621582031 215.506103515625" stroke-width="2.0" fill="none" stroke="rgb(0, 0, 0)" stroke-opacity="1.0" stroke-linecap="round" stroke-linejoin="round" data-orig-style="" style="display:none" />
    <path d="M 80.35819244384766 143.86770629882812 C 65.09100341796875 166.96783447265625 64.56612396240234 166.3715057373047 68.62905883789062 175.7094268798828" stroke-width="2.0" fill="none" stroke="rgb(0, 0, 0)" stroke-opacity="1.0" stroke-linecap="round" stroke-linejoin="round" data-orig-style="" style="display:none" />
    <path d="M 101.189697265625 67.05941772460938 C 94.52255249023438 102.96442413330078 88.39361572265625 101.98501586914062 111.69290924072266 82.34659576416016" stroke-width="2.0" fill="none" stroke="rgb(0, 0, 0)" stroke-opacity="1.0" stroke-linecap="round" stroke-linejoin="round" data-orig-style="" style="display:none" />
    <path d="M 75.72598266601562 167.81549072265625 C 62.449798583984375 107.65013885498047 73.11497497558594 106.4375228881836 86.77558898925781 97.8797607421875" stroke-width="2.0" fill="none" stroke="rgb(0, 0, 0)" stroke-opacity="1.0" stroke-linecap="round" stroke-linejoin="round" data-orig-style="" style="display:none" />
    <path d="M 83.12603759765625 132.0565643310547 C 86.69500732421875 179.8616943359375 72.28858184814453 150.07891845703125 82.39956665039062 210.89991760253906" stroke-width="2.0" fill="none" stroke="rgb(0, 0, 0)" stroke-opacity="1.0" stroke-linecap="round" stroke-linejoin="round" data-orig-style="" style="display:none" />
    <path d="M 98.39205169677734 16.990589141845703 C 102.46043395996094 16.617809295654297 121.97443389892578 27.31848907470703 123.26051330566406 11.299851417541504" stroke-width="2.0" fill="none" stroke="rgb(0, 0, 0)" stroke-opacity="1.0" stroke-linecap="round" stroke-linejoin="round" />
    <path d="M 89.80915069580078 128.34507751464844 C 112.51276397705078 211.2395477294922 89.90048217773438 211.2259063720703 102.00189208984375 215.296142578125" stroke-width="2.0" fill="none" stroke="rgb(0, 0, 0)" stroke-opacity="1.0" stroke-linecap="round" stroke-linejoin="round" data-orig-style="" style="display:none" />
    <path d="M 101.06410217285156 112.30120849609375 C 110.52800750732422 145.62840270996094 95.5292739868164 132.9376220703125 106.50408935546875 200.3031463623047" stroke-width="2.0" fill="none" stroke="rgb(0, 0, 0)" stroke-opacity="1.0" stroke-linecap="round" stroke-linejoin="round" data-orig-style="" style="display:none" />
    <path d="M 111.82685089111328 127.95532989501953 C 115.66873168945312 186.92160034179688 102.51983642578125 192.85882568359375 115.2139892578125 213.53445434570312" stroke-width="2.0" fill="none" stroke="rgb(0, 0, 0)" stroke-opacity="1.0" stroke-linecap="round" stroke-linejoin="round" data-orig-style="" style="display:none" />
    <path d="M 73.91820526123047 148.41546630859375 C 88.13539123535156 216.0215301513672 66.97345733642578 210.74269104003906 85.2347183227539 211.4552764892578" stroke-width="2.0" fill="none" stroke="rgb(0, 0, 0)" stroke-opacity="1.0" stroke-linecap="round" stroke-linejoin="round" data-orig-style="" style="display:none" />
    <path d="M 98.5979995727539 125.26819610595703 C 114.01947021484375 214.26231384277344 98.92271423339844 216.18658447265625 114.00018310546875 213.47195434570312" stroke-width="2.0" fill="none" stroke="rgb(0, 0, 0)" stroke-opacity="1.0" stroke-linecap="round" stroke-linejoin="round" data-orig-style="" style="display:none" />
    <path d="M 96.75424194335938 16.480804443359375 C 109.6379165649414 17.472049713134766 120.01229095458984 27.24542999267578 123.50926208496094 10.964249610900879" stroke-width="2.0" fill="none" stroke="rgb(0, 0, 0)" stroke-opacity="1.0" stroke-linecap="round" stroke-linejoin="round" />
    <path d="M 109.390625 39.01876449584961 C 113.67509460449219 43.93365478515625 110.33182525634766 55.13542175292969 106.3534927368164 117.40889739990234" stroke-width="2.0" fill="none" stroke="rgb(0, 0, 0)" stroke-opacity="1.0" stroke-linecap="round" stroke-linejoin="round" data-orig-style="" style="display:none" />
    <path d="M 110.84083557128906 63.35444641113281 C 111.4097900390625 119.22798919677734 127.56605529785156 98.7061538696289 119.21342468261719 125.34719848632812" stroke-width="2.0" fill="none" stroke="rgb(0, 0, 0)" stroke-opacity="1.0" stroke-linecap="round" stroke-linejoin="round" data-orig-style="" style="display:none" />
    <path d="M 70.01737976074219 136.12689208984375 C 77.47843933105469 88.99655151367188 83.48055267333984 101.13036346435547 96.78504943847656 96.23362731933594" stroke-width="2.0" fill="none" stroke="rgb(0, 0, 0)" stroke-opacity="1.0" stroke-linecap="round" stroke-linejoin="round" data-orig-style="" style="display:none" />
    <path d="M 117.02003479003906 110.97579956054688 C 130.47647094726562 127.5789794921875 108.94163513183594 137.4017791748047 111.8752670288086 174.60867309570312" stroke-width="2.0" fill="none" stroke="rgb(0, 0, 0)" stroke-opacity="1.0" stroke-linecap="round" stroke-linejoin="round" data-orig-style="" style="display:none" />
    <path d="M 104.84778594970703 19.558746337890625 C 126.55491638183594 35.48876953125 102.2982406616211 30.81037139892578 106.42927551269531 113.2300033569336" stroke-width="2.0" fill="none" stroke="rgb(0, 0, 0)" stroke-opacity="1.0" stroke-linecap="round" stroke-linejoin="round" data-orig-style="" style="display:none" />
    <path d="M 107.14698791503906 28.143247604370117 C 100.84705352783203 61.71695327758789 98.08161163330078 67.88746643066406 89.3598861694336 108.43603515625" stroke-width="2.0" fill="none" stroke="rgb(0, 0, 0)" stroke-opacity="1.0" stroke-linecap="round" stroke-linejoin="round" data-orig-style="" style="display:none" />
    <path d="M 110.92752838134766 93.71887969970703 C 129.70594787597656 120.35084533691406 124.81388854980469 114.3287582397461 111.78075408935547 148.85110473632812" stroke-width="2.0" fill="none" stroke="rgb(0, 0, 0)" stroke-opacity="1.0" stroke-linecap="round" stroke-linejoin="round" data-orig-style="" style="display:none" />
    <path d="M 107.28923797607422 19.709169387817383 C 108.42259216308594 50.22012710571289 102.50920867919922 53.445030212402344 94.50048065185547 95.83528900146484" stroke-width="2.0" fill="none" stroke="rgb(0, 0, 0)" stroke-opacity="1.0" stroke-linecap="round" stroke-linejoin="round" data-orig-style="" style="display:none" />
    <path d="M 111.67408752441406 24.144437789916992 C 115.06468963623047 48.096622467041016 108.25056457519531 56.58668899536133 107.16654205322266 113.75955963134766" stroke-width="2.0" fill="none" stroke="rgb(0, 0, 0)" stroke-opacity="1.0" stroke-linecap="round" stroke-linejoin="round" data-orig-style="" style="display:none" />
    <path d="M 94.3191909790039 87.59909057617188 C 56.76105880737305 136.2602081298828 112.90943145751953 107.86204528808594 68.62226867675781 178.51736450195312" stroke-width="2.0" fill="none" stroke="rgb(0, 0, 0)" stroke-opacity="1.0" stroke-linecap="round" stroke-linejoin="round" data-orig-style="" style="display:none" />
    <path d="M 112.91724395751953 16.059486389160156 C 123.48213195800781 28.44310760498047 108.94966125488281 28.134395599365234 117.18607330322266 26.07572364807129" stroke-width="2.0" fill="none" stroke="rgb(0, 0, 0)" stroke-opacity="1.0" stroke-linecap="round" stroke-linejoin="round" />
    <path d="M 116.17750549316406 107.53507995605469 C 131.98944091796875 126.80874633789062 110.91313171386719 130.3699951171875 111.10919189453125 170.63417053222656" stroke-width="2.0" fill="none" stroke="rgb(0, 0, 0)" stroke-opacity="1.0" stroke-linecap="round" stroke-linejoin="round" data-orig-style="" style="display:none" />
    <path d="M 87.63341522216797 94.5220947265625 C 73.99117279052734 133.7803955078125 100.15966796875 117.1302261352539 93.09049987792969 152.53994750976562" stroke-width="2.0" fill="none" stroke="rgb(0, 0, 0)" stroke-opacity="1.0" stroke-linecap="round" stroke-linejoin="round" data-orig-style="" style="display:none" />
    <path d="M 84.30107879638672 100.70044708251953 C 80.5343246459961 141.52426147460938 102.16984558105469 115.6980972290039 81.80412292480469 174.28909301757812" stroke-width="2.0" fill="none" stroke="rgb(0, 0, 0)" stroke-opacity="1.0" stroke-linecap="round" stroke-linejoin="round" data-orig-style="" style="display:none" />
    <path d="M 83.39007568359375 100.70443725585938 C 79.00151824951172 139.77139282226562 102.23755645751953 111.24433898925781 77.80741119384766 181.5364227294922" stroke-width="2.0" fill="none" stroke="rgb(0, 0, 0)" stroke-opacity="1.0" stroke-linecap="round" stroke-linejoin="round" data-orig-style="" style="display:none" />
    <path d="M 108.34730529785156 105.69453430175781 C 126.34619140625 137.20407104492188 90.13401794433594 124.32058715820312 100.7603759765625 180.32875061035156" stroke-width="2.0" fill="none" stroke="rgb(0, 0, 0)" stroke-opacity="1.0" stroke-linecap="round" stroke-linejoin="round" data-orig-style="" style="display:none" />
    <path d="M 87.07913208007812 95.54180908203125 C 70.12008666992188 137.079833984375 104.32124328613281 118.55349731445312 85.83007049560547 160.09432983398438" stroke-width="2.0" fill="none" stroke="rgb(0, 0, 0)" stroke-opacity="1.0" stroke-linecap="round" stroke-linejoin="round" data-orig-style="" style="display:none" />
    <path d="M 92.00027465820312 89.04801940917969 C 67.50263977050781 122.91767120361328 94.03753662109375 101.20826721191406 92.05111694335938 159.74655151367188" stroke-width="2.0" fill="none" stroke="rgb(0, 0, 0)" stroke-opacity="1.0" stroke-linecap="round" stroke-linejoin="round" data-orig-style="" style="display:none" />
    <path d="M 93.02176666259766 100.00853729248047 C 127.30233764648438 112.4930419921875 97.3168716430664 123.37752532958984 113.755126953125 122.77970886230469" stroke-width="2.0" fill="none" stroke="rgb(0, 0, 0)" stroke-opacity="1.0" stroke-linecap="round" stroke-linejoin="round" data-orig-style="" style="display:none" />
    <path d="M 99.09284210205078 18.980106353759766 C 122.0401611328125 27.444326400756836 101.66405487060547 26.159805297851562 104.28373718261719 66.85490417480469" stroke-width="2.0" fill="none" stroke="rgb(0, 0, 0)" stroke-opacity="1.0" stroke-linecap="round" stroke-linejoin="round" />
  </g>
</svg>