<?xml version='1.0' encoding='utf-8'?>
<svg xmlns="http://www.w3.org/2000/svg" version="1.1" width="224" height="224">
  <defs />
  <g>
    <path d="M 25.466190338134766 155.99375915527344 C 40.55255889892578 168.46041870117188 73.68238067626953 180.09341430664062 88.0131607055664 145.63711547851562" stroke-width="2.0" fill="none" stroke="rgb(0, 0, 0)" stroke-opacity="1.0" stroke-linecap="round" stroke-linejoin="round" data-orig-style="" style="display:none" />
    <path d="M 75.93510437011719 131.1309356689453 C 21.649368286132812 144.08116149902344 27.38599395751953 138.2627716064453 24.940658569335938 155.85684204101562" stroke-width="2.0" fill="none" stroke="rgb(0, 0, 0)" stroke-opacity="1.0" stroke-linecap="round" stroke-linejoin="round" data-orig-style="" style="display:none" />
    <path d="M 36.70980453491211 8.820368766784668 C 48.969459533691406 41.24309539794922 53.58358383178711 34.25064468383789 56.807456970214844 26.03982162475586" stroke-width="2.0" fill="none" stroke="rgb(0, 0, 0)" stroke-opacity="1.0" stroke-linecap="round" stroke-linejoin="round" data-orig-style="" style="display:none" />
    <path d="M 44.0720100402832 27.022247314453125 C 80.2728500366211 57.9588508605957 65.26109313964844 43.33136749267578 83.68646240234375 63.00119400024414" stroke-width="2.0" fill="none" stroke="rgb(0, 0, 0)" stroke-opacity="1.0" stroke-linecap="round" stroke-linejoin="round" data-orig-style="" style="display:none" />
    <path d="M 73.67710876464844 50.90669250488281 C 98.0683364868164 75.18060302734375 97.42008972167969 84.06501007080078 120.91442108154297 101.92680358886719" stroke-width="2.0" fill="none" stroke="rgb(0, 0, 0)" stroke-opacity="1.0" stroke-linecap="round" stroke-linejoin="round" data-orig-style="" style="display:none" />
    <path d="M 142.0749969482422 118.81776428222656 C 174.6338348388672 99.9522476196289 169.2021942138672 115.69828033447266 203.51283264160156 81.13145446777344" stroke-width="2.0" fill="none" stroke="rgb(0, 0, 0)" stroke-opacity="1.0" stroke-linecap="round" stroke-linejoin="round" data-orig-style="" style="display:none" />
    <path d="M 142.7975616455078 118.66048431396484 C 137.40292358398438 127.41144561767578 130.09925842285156 133.75762939453125 126.02264404296875 131.4788360595703" stroke-width="2.0" fill="none" stroke="rgb(0, 0, 0)" stroke-opacity="1.0" stroke-linecap="round" stroke-linejoin="round" data-orig-style="" style="display:none" />
    <path d="M 15.081787109375 52.073875427246094 C 36.12534713745117 91.01712799072266 23.953052520751953 90.20285034179688 57.87806701660156 113.53231811523438" stroke-width="2.0" fill="none" stroke="rgb(0, 0, 0)" stroke-opacity="1.0" stroke-linecap="round" stroke-linejoin="round" data-orig-style="" style="display:none" />
    <path d="M 44.1762580871582 137.76181030273438 C 19.291723251342773 138.80923461914062 21.65538787841797 156.56382751464844 33.803993225097656 164.56015014648438" stroke-width="2.0" fill="none" stroke="rgb(0, 0, 0)" stroke-opacity="1.0" stroke-linecap="round" stroke-linejoin="round" data-orig-style="" style="display:none" />
    <path d="M 108.11138916015625 92.86590576171875 C 130.18338012695312 108.83737182617188 120.34896087646484 113.04947662353516 146.89451599121094 95.730712890625" stroke-width="2.0" fill="none" stroke="rgb(0, 0, 0)" stroke-opacity="1.0" stroke-linecap="round" stroke-linejoin="round" data-orig-style="" style="display:none" />
    <path d="M 8.1279296875 33.61621856689453 C 25.749515533447266 56.16269302368164 18.183399200439453 46.03800964355469 29.01001739501953 61.763671875" stroke-width="2.0" fill="none" stroke="rgb(0, 0, 0)" stroke-opacity="1.0" stroke-linecap="round" stroke-linejoin="round" data-orig-style="" style="display:none" />
    <path d="M 165.18768310546875 102.78172302246094 C 191.23434448242188 86.82723236083984 193.1627960205078 92.72854614257812 203.5447998046875 67.06037902832031" stroke-width="2.0" fill="none" stroke="rgb(0, 0, 0)" stroke-opacity="1.0" stroke-linecap="round" stroke-linejoin="round" data-orig-style="" style="display:none" />
    <path d="M 167.58969116210938 97.91747283935547 C 191.96054077148438 80.47039794921875 192.2147216796875 81.30327606201172 203.01309204101562 66.009765625" stroke-width="2.0" fill="none" stroke="rgb(0, 0, 0)" stroke-opacity="1.0" stroke-linecap="round" stroke-linejoin="round" data-orig-style="" style="display:none" />
    <path d="M 169.6153106689453 104.71146392822266 C 157.3641357421875 111.564208984375 161.4085235595703 113.198974609375 139.47393798828125 121.27702331542969" stroke-width="2.0" fill="none" stroke="rgb(0, 0, 0)" stroke-opacity="1.0" stroke-linecap="round" stroke-linejoin="round" data-orig-style="" style="display:none" />
    <path d="M 78.28845977783203 119.2234878540039 C 96.55130004882812 142.30545043945312 75.64833068847656 172.36204528808594 59.16985321044922 171.96231079101562" stroke-width="2.0" fill="none" stroke="rgb(0, 0, 0)" stroke-opacity="1.0" stroke-linecap="round" stroke-linejoin="round" data-orig-style="" style="display:none" />
    <path d="M 15.820368766784668 10.448970794677734 C 46.75526428222656 34.675148010253906 40.520057678222656 37.50953674316406 47.19858932495117 23.248769760131836" stroke-width="2.0" fill="none" stroke="rgb(0, 0, 0)" stroke-opacity="1.0" stroke-linecap="round" stroke-linejoin="round" data-orig-style="" style="display:none" />
    <path d="M 124.61768341064453 135.13449096679688 C 120.13301849365234 140.55078125 120.94528198242188 136.99441528320312 119.26242065429688 140.59242248535156" stroke-width="2.0" fill="none" stroke="rgb(0, 0, 0)" stroke-opacity="1.0" stroke-linecap="round" stroke-linejoin="round" data-orig-style="" style="display:none" />
    <path d="M 56.69134521484375 169.4293212890625 C 66.02095031738281 172.14199829101562 79.92290496826172 176.00057983398438 87.85490417480469 141.22357177734375" stroke-width="2.0" fill="none" stroke="rgb(0, 0, 0)" stroke-opacity="1.0" stroke-linecap="round" stroke-linejoin="round" data-orig-style="" style="display:none" />
    <path d="M 116.12922668457031 133.83499145507812 C 94.59900665283203 155.90823364257812 92.87010955810547 153.08978271484375 80.21343994140625 165.91651916503906" stroke-width="2.0" fill="none" stroke="rgb(0, 0, 0)" stroke-opacity="1.0" stroke-linecap="round" stroke-linejoin="round" data-orig-style="" style="display:none" />
    <path d="M 80.29688262939453 119.88849639892578 C 95.32862091064453 150.64617919921875 69.63422393798828 174.9739990234375 58.137672424316406 171.97267150878906" stroke-width="2.0" fill="none" stroke="rgb(0, 0, 0)" stroke-opacity="1.0" stroke-linecap="round" stroke-linejoin="round" data-orig-style="" style="display:none" />
    <path d="M 41.30699157714844 98.998291015625 C 65.9708251953125 114.42426300048828 56.624446868896484 123.58155822753906 86.65406036376953 122.37591552734375" stroke-width="2.0" fill="none" stroke="rgb(0, 0, 0)" stroke-opacity="1.0" stroke-linecap="round" stroke-linejoin="round" />
    <path d="M 44.68256378173828 25.641695022583008 C 86.25318145751953 62.63935089111328 66.24909973144531 41.77099609375 89.63277435302734 72.30519104003906" stroke-width="2.0" fill="none" stroke="rgb(0, 0, 0)" stroke-opacity="1.0" stroke-linecap="round" stroke-linejoin="round" data-orig-style="" style="display:none" />
    <path d="M 151.19813537597656 111.52104949951172 C 141.63560485839844 117.08170318603516 143.75350952148438 132.07350158691406 116.5944595336914 138.6206817626953" stroke-width="2.0" fill="none" stroke="rgb(0, 0, 0)" stroke-opacity="1.0" stroke-linecap="round" stroke-linejoin="round" data-orig-style="" style="display:none" />
    <path d="M 26.918760299682617 20.680953979492188 C 65.67915344238281 43.344154357910156 48.95481872558594 41.446510314941406 59.82900619506836 44.00725555419922" stroke-width="2.0" fill="none" stroke="rgb(0, 0, 0)" stroke-opacity="1.0" stroke-linecap="round" stroke-linejoin="round" data-orig-style="" style="display:none" />
    <path d="M 112.5634994506836 99.14247131347656 C 137.78684997558594 108.36331176757812 129.30661010742188 114.11319732666016 158.60174560546875 99.00927734375" stroke-width="2.0" fill="none" stroke="rgb(0, 0, 0)" stroke-opacity="1.0" stroke-linecap="round" stroke-linejoin="round" data-orig-style="" style="display:none" />
    <path d="M 133.07565307617188 122.65031433105469 C 118.65190124511719 140.09097290039062 106.74794006347656 149.67227172851562 85.93641662597656 157.8306884765625" stroke-width="2.0" fill="none" stroke="rgb(0, 0, 0)" stroke-opacity="1.0" stroke-linecap="round" stroke-linejoin="round" data-orig-style="" style="display:none" />
    <path d="M 20.040712356567383 62.28117370605469 C 44.475341796875 91.42691040039062 26.36074447631836 84.63238525390625 49.954750061035156 99.39395141601562" stroke-width="2.0" fill="none" stroke="rgb(0, 0, 0)" stroke-opacity="1.0" stroke-linecap="round" stroke-linejoin="round" data-orig-style="" style="display:none" />
    <path d="M 94.65355682373047 107.0403823852539 C 95.94807434082031 104.93647766113281 92.90022277832031 108.9146728515625 93.68211364746094 109.82778930664062" stroke-width="2.0" fill="none" stroke="rgb(0, 0, 0)" stroke-opacity="1.0" stroke-linecap="round" stroke-linejoin="round" data-orig-style="" style="display:none" />
    <path d="M 60.91286849975586 93.26753997802734 C 62.37461853027344 93.87332916259766 57.77021408081055 97.44559478759766 63.55116271972656 102.96099853515625" stroke-width="2.0" fill="none" stroke="rgb(0, 0, 0)" stroke-opacity="1.0" stroke-linecap="round" stroke-linejoin="round" />
    <path d="M 80.38019561767578 120.17423248291016 C 86.5682144165039 132.03895568847656 82.08125305175781 138.21298217773438 92.74110412597656 144.77883911132812" stroke-width="2.0" fill="none" stroke="rgb(0, 0, 0)" stroke-opacity="1.0" stroke-linecap="round" stroke-linejoin="round" />
    <path d="M 53.62858963012695 112.02632904052734 C 80.48954772949219 117.55327606201172 65.25472259521484 125.2640380859375 95.83743286132812 113.21727752685547" stroke-width="2.0" fill="none" stroke="rgb(0, 0, 0)" stroke-opacity="1.0" stroke-linecap="round" stroke-linejoin="round" />
    <path d="M 73.38961029052734 116.50142669677734 C 86.85905456542969 138.06817626953125 87.59537506103516 143.68544006347656 86.17364501953125 158.09991455078125" stroke-width="2.0" fill="none" stroke="rgb(0, 0, 0)" stroke-opacity="1.0" stroke-linecap="round" stroke-linejoin="round" />
  </g>
</svg>