<?xml version='1.0' encoding='utf-8'?>
<svg xmlns="http://www.w3.org/2000/svg" version="1.1" width="224" height="224">
  <defs />
  <g>
    <path d="M 93.8021011352539 114.4494400024414 C 51.315921783447266 169.25949096679688 46.568824768066406 173.85781860351562 15.517664909362793 204.25399780273438" stroke-width="2.0" fill="none" stroke="rgb(0, 0, 0)" stroke-opacity="1.0" stroke-linecap="round" stroke-linejoin="round" data-orig-style="" style="display:none" />
    <path d="M 179.1395263671875 25.64035415649414 C 199.16775512695312 35.0793342590332 211.1374969482422 54.38745880126953 205.7826690673828 76.34783935546875" stroke-width="2.0" fill="none" stroke="rgb(0, 0, 0)" stroke-opacity="1.0" stroke-linecap="round" stroke-linejoin="round" data-orig-style="" style="display:none" />
    <path d="M 82.33658599853516 124.79927825927734 C 42.458106994628906 173.41783142089844 40.82062530517578 185.60472106933594 9.440523147583008 206.65260314941406" stroke-width="2.0" fill="none" stroke="rgb(0, 0, 0)" stroke-opacity="1.0" stroke-linecap="round" stroke-linejoin="round" data-orig-style="" style="display:none" />
    <path d="M 82.0057373046875 50.54871368408203 C 105.52364349365234 21.204450607299805 128.9254913330078 13.33116626739502 148.15538024902344 15.994718551635742" stroke-width="2.0" fill="none" stroke="rgb(0, 0, 0)" stroke-opacity="1.0" stroke-linecap="round" stroke-linejoin="round" />
    <path d="M 75.69741821289062 60.60662841796875 C 92.96678924560547 34.694278717041016 107.73900604248047 21.36309242248535 127.96878814697266 18.772672653198242" stroke-width="2.0" fill="none" stroke="rgb(0, 0, 0)" stroke-opacity="1.0" stroke-linecap="round" stroke-linejoin="round" />
    <path d="M 149.09909057617188 109.70845794677734 C 138.22927856445312 117.43901824951172 124.75599670410156 117.84351348876953 135.1773223876953 115.46717071533203" stroke-width="2.0" fill="none" stroke="rgb(0, 0, 0)" stroke-opacity="1.0" stroke-linecap="round" stroke-linejoin="round" data-orig-style="" style="display:none" />
    <path d="M 116.0015869140625 21.046743392944336 C 142.6031036376953 10.086946487426758 164.94810485839844 16.750917434692383 173.0048828125 21.954748153686523" stroke-width="2.0" fill="none" stroke="rgb(0, 0, 0)" stroke-opacity="1.0" stroke-linecap="round" stroke-linejoin="round" />
    <path d="M 197.60946655273438 41.7620849609375 C 208.690185546875 53.46677780151367 210.90933227539062 85.36553192138672 195.184326171875 95.83827209472656" stroke-width="2.0" fill="none" stroke="rgb(0, 0, 0)" stroke-opacity="1.0" stroke-linecap="round" stroke-linejoin="round" data-orig-style="" style="display:none" />
    <path d="M 154.2532501220703 15.48382568359375 C 172.38519287109375 17.528705596923828 178.53244018554688 23.827608108520508 188.46856689453125 32.3902587890625" stroke-width="2.0" fill="none" stroke="rgb(0, 0, 0)" stroke-opacity="1.0" stroke-linecap="round" stroke-linejoin="round" data-orig-style="" style="display:none" />
    <path d="M 68.42936706542969 98.1104736328125 C 97.59774780273438 98.17549133300781 80.34709930419922 129.09991455078125 119.2620620727539 91.55216217041016" stroke-width="2.0" fill="none" stroke="rgb(0, 0, 0)" stroke-opacity="1.0" stroke-linecap="round" stroke-linejoin="round" data-orig-style="" style="display:none" />
    <path d="M 70.0245132446289 102.45443725585938 C 119.6803207397461 104.97047424316406 79.29241943359375 131.06448364257812 134.31117248535156 95.11138916015625" stroke-width="2.0" fill="none" stroke="rgb(0, 0, 0)" stroke-opacity="1.0" stroke-linecap="round" stroke-linejoin="round" data-orig-style="" style="display:none" />
    <path d="M 203.46124267578125 61.671024322509766 C 207.64427185058594 78.01920318603516 200.28768920898438 100.84884643554688 187.23190307617188 107.13192749023438" stroke-width="2.0" fill="none" stroke="rgb(0, 0, 0)" stroke-opacity="1.0" stroke-linecap="round" stroke-linejoin="round" data-orig-style="" style="display:none" />
    <path d="M 120.39773559570312 84.55073547363281 C 111.13799285888672 125.994873046875 92.1129150390625 120.30729675292969 86.58912658691406 130.86456298828125" stroke-width="2.0" fill="none" stroke="rgb(0, 0, 0)" stroke-opacity="1.0" stroke-linecap="round" stroke-linejoin="round" data-orig-style="" style="display:none" />
    <path d="M 175.38436889648438 22.88886260986328 C 191.7008819580078 31.609928131103516 203.77552795410156 43.1004524230957 206.273193359375 61.285423278808594" stroke-width="2.0" fill="none" stroke="rgb(0, 0, 0)" stroke-opacity="1.0" stroke-linecap="round" stroke-linejoin="round" data-orig-style="" style="display:none" />
    <path d="M 78.23973083496094 57.16218948364258 C 98.34624481201172 27.93838882446289 117.2501220703125 17.54487419128418 134.04397583007812 17.47174835205078" stroke-width="2.0" fill="none" stroke="rgb(0, 0, 0)" stroke-opacity="1.0" stroke-linecap="round" stroke-linejoin="round" />
    <path d="M 198.32113647460938 43.45435333251953 C 207.8452911376953 57.00276565551758 209.2373809814453 87.0068359375 194.6737823486328 96.32089233398438" stroke-width="2.0" fill="none" stroke="rgb(0, 0, 0)" stroke-opacity="1.0" stroke-linecap="round" stroke-linejoin="round" data-orig-style="" style="display:none" />
    <path d="M 104.54862976074219 53.29545974731445 C 101.8215103149414 77.35891723632812 115.66710662841797 77.55225372314453 94.26316833496094 111.94033813476562" stroke-width="2.0" fill="none" stroke="rgb(0, 0, 0)" stroke-opacity="1.0" stroke-linecap="round" stroke-linejoin="round" data-orig-style="" style="display:none" />
    <path d="M 159.60325622558594 92.17083740234375 C 167.0955352783203 122.76525115966797 162.1472625732422 111.7027359008789 167.2542266845703 117.09011840820312" stroke-width="2.0" fill="none" stroke="rgb(0, 0, 0)" stroke-opacity="1.0" stroke-linecap="round" stroke-linejoin="round" data-orig-style="" style="display:none" />
    <path d="M 83.80177307128906 67.96923065185547 C 118.03064727783203 36.97528076171875 119.63841247558594 57.97216796875 148.63641357421875 55.16231155395508" stroke-width="2.0" fill="none" stroke="rgb(0, 0, 0)" stroke-opacity="1.0" stroke-linecap="round" stroke-linejoin="round" />
    <path d="M 83.78499603271484 54.60283279418945 C 118.5802001953125 30.92535400390625 103.64875030517578 46.134273529052734 121.89616394042969 44.62715148925781" stroke-width="2.0" fill="none" stroke="rgb(0, 0, 0)" stroke-opacity="1.0" stroke-linecap="round" stroke-linejoin="round" />
    <path d="M 110.40372467041016 55.29762649536133 C 147.969970703125 42.809669494628906 142.3501739501953 62.13897705078125 165.03936767578125 73.74684143066406" stroke-width="2.0" fill="none" stroke="rgb(0, 0, 0)" stroke-opacity="1.0" stroke-linecap="round" stroke-linejoin="round" />
    <path d="M 88.02740478515625 127.88691711425781 C 121.93070983886719 103.21078491210938 128.76144409179688 134.02606201171875 157.63958740234375 92.34918975830078" stroke-width="2.0" fill="none" stroke="rgb(0, 0, 0)" stroke-opacity="1.0" stroke-linecap="round" stroke-linejoin="round" data-orig-style="" style="display:none" />
    <path d="M 189.4658203125 99.67170715332031 C 186.6822509765625 111.53475952148438 176.18470764160156 112.65484619140625 170.9019012451172 115.64122009277344" stroke-width="2.0" fill="none" stroke="rgb(0, 0, 0)" stroke-opacity="1.0" stroke-linecap="round" stroke-linejoin="round" data-orig-style="" style="display:none" />
    <path d="M 153.99249267578125 67.35819244384766 C 161.01358032226562 73.82014465332031 158.66871643066406 70.81446075439453 161.53671264648438 78.99064636230469" stroke-width="2.0" fill="none" stroke="rgb(0, 0, 0)" stroke-opacity="1.0" stroke-linecap="round" stroke-linejoin="round" data-orig-style="" style="display:none" />
    <path d="M 114.84620666503906 43.611106872558594 C 139.62139892578125 45.848541259765625 130.09864807128906 55.683231353759766 148.20140075683594 52.939430236816406" stroke-width="2.0" fill="none" stroke="rgb(0, 0, 0)" stroke-opacity="1.0" stroke-linecap="round" stroke-linejoin="round" />
    <path d="M 132.0704345703125 43.97475814819336 C 154.49998474121094 57.38976287841797 146.08775329589844 63.161739349365234 166.17665100097656 74.29163360595703" stroke-width="2.0" fill="none" stroke="rgb(0, 0, 0)" stroke-opacity="1.0" stroke-linecap="round" stroke-linejoin="round" data-orig-style="" style="display:none" />
    <path d="M 139.00936889648438 53.241180419921875 C 162.08010864257812 71.563720703125 155.05247497558594 71.26327514648438 168.307861328125 76.69925689697266" stroke-width="2.0" fill="none" stroke="rgb(0, 0, 0)" stroke-opacity="1.0" stroke-linecap="round" stroke-linejoin="round" data-orig-style="" style="display:none" />
    <path d="M 157.32089233398438 72.28179931640625 C 175.83045959472656 84.2480697631836 153.66888427734375 106.95857238769531 167.23135375976562 113.77420806884766" stroke-width="2.0" fill="none" stroke="rgb(0, 0, 0)" stroke-opacity="1.0" stroke-linecap="round" stroke-linejoin="round" data-orig-style="" style="display:none" />
    <path d="M 203.25086975097656 75.26824188232422 C 202.22132873535156 86.01908111572266 197.44277954101562 105.82935333251953 177.25973510742188 112.06427001953125" stroke-width="2.0" fill="none" stroke="rgb(0, 0, 0)" stroke-opacity="1.0" stroke-linecap="round" stroke-linejoin="round" data-orig-style="" style="display:none" />
    <path d="M 140.68505859375 61.61019515991211 C 175.31451416015625 82.06016540527344 162.02638244628906 76.48390197753906 166.8289794921875 106.29534912109375" stroke-width="2.0" fill="none" stroke="rgb(0, 0, 0)" stroke-opacity="1.0" stroke-linecap="round" stroke-linejoin="round" data-orig-style="" style="display:none" />
    <path d="M 167.78311157226562 78.8395767211914 C 162.37374877929688 92.79022979736328 154.9801788330078 113.43859100341797 131.56475830078125 116.93354797363281" stroke-width="2.0" fill="none" stroke="rgb(0, 0, 0)" stroke-opacity="1.0" stroke-linecap="round" stroke-linejoin="round" data-orig-style="" style="display:none" />
    <path d="M 169.53140258789062 19.026256561279297 C 181.51454162597656 24.679336547851562 185.3834228515625 30.036975860595703 191.93341064453125 34.027488708496094" stroke-width="2.0" fill="none" stroke="rgb(0, 0, 0)" stroke-opacity="1.0" stroke-linecap="round" stroke-linejoin="round" data-orig-style="" style="display:none" />
  </g>
</svg>