<?xml version='1.0' encoding='utf-8'?>
<svg xmlns="http://www.w3.org/2000/svg" version="1.1" width="224" height="224">
  <defs />
  <g>
    <path d="M 70.30680084228516 151.541259765625 C 68.40980529785156 183.91082763671875 86.427490234375 201.606201171875 126.80569458007812 194.5291290283203" stroke-width="2.0" fill="none" stroke="rgb(0, 0, 0)" stroke-opacity="1.0" stroke-linecap="round" stroke-linejoin="round" data-orig-style="" style="display:none" />
    <path d="M 119.27935028076172 90.21641540527344 C 138.99830627441406 119.09990692138672 155.21800231933594 130.06593322753906 159.73092651367188 152.30152893066406" stroke-width="2.0" fill="none" stroke="rgb(0, 0, 0)" stroke-opacity="1.0" stroke-linecap="round" stroke-linejoin="round" data-orig-style="" style="display:none" />
    <path d="M 66.30911254882812 39.028785705566406 C 73.16050720214844 12.053747177124023 110.15827941894531 12.015735626220703 129.90101623535156 15.079944610595703" stroke-width="2.0" fill="none" stroke="rgb(0, 0, 0)" stroke-opacity="1.0" stroke-linecap="round" stroke-linejoin="round" data-orig-style="" style="display:none" />
    <path d="M 75.62693786621094 24.05396270751953 C 59.17223358154297 36.22929382324219 74.37831115722656 58.86867141723633 76.29647064208984 66.65948486328125" stroke-width="2.0" fill="none" stroke="rgb(0, 0, 0)" stroke-opacity="1.0" stroke-linecap="round" stroke-linejoin="round" data-orig-style="" style="display:none" />
    <path d="M 84.93618774414062 19.66278076171875 C 109.86475372314453 9.583196640014648 144.4464111328125 14.802515029907227 150.29293823242188 23.827735900878906" stroke-width="2.0" fill="none" stroke="rgb(0, 0, 0)" stroke-opacity="1.0" stroke-linecap="round" stroke-linejoin="round" data-orig-style="" style="display:none" />
    <path d="M 71.72994995117188 160.77267456054688 C 67.87918090820312 124.400146484375 105.95804595947266 122.47732543945312 112.22978210449219 96.64981079101562" stroke-width="2.0" fill="none" stroke="rgb(0, 0, 0)" stroke-opacity="1.0" stroke-linecap="round" stroke-linejoin="round" data-orig-style="" style="display:none" />
    <path d="M 92.86527252197266 16.790584564208984 C 124.79833984375 10.299915313720703 150.19143676757812 16.635093688964844 153.97105407714844 28.002422332763672" stroke-width="2.0" fill="none" stroke="rgb(0, 0, 0)" stroke-opacity="1.0" stroke-linecap="round" stroke-linejoin="round" data-orig-style="" style="display:none" />
    <path d="M 152.5525360107422 53.64381790161133 C 149.60865783691406 77.55253601074219 130.4567413330078 84.78866577148438 121.98674011230469 100.33158874511719" stroke-width="2.0" fill="none" stroke="rgb(0, 0, 0)" stroke-opacity="1.0" stroke-linecap="round" stroke-linejoin="round" />
    <path d="M 83.01242065429688 22.59700584411621 C 64.2177734375 46.347434997558594 74.8490982055664 54.82854461669922 78.55567169189453 65.85432434082031" stroke-width="2.0" fill="none" stroke="rgb(0, 0, 0)" stroke-opacity="1.0" stroke-linecap="round" stroke-linejoin="round" data-orig-style="" style="display:none" />
    <path d="M 157.1671142578125 147.4462127685547 C 159.41078186035156 154.97930908203125 161.46363830566406 177.08494567871094 147.50120544433594 187.54978942871094" stroke-width="2.0" fill="none" stroke="rgb(0, 0, 0)" stroke-opacity="1.0" stroke-linecap="round" stroke-linejoin="round" data-orig-style="" style="display:none" />
    <path d="M 74.58965301513672 152.5140838623047 C 83.80393981933594 106.91329193115234 116.03352355957031 119.45643615722656 111.748046875 88.79326629638672" stroke-width="2.0" fill="none" stroke="rgb(0, 0, 0)" stroke-opacity="1.0" stroke-linecap="round" stroke-linejoin="round" data-orig-style="" style="display:none" />
    <path d="M 150.63046264648438 22.1574764251709 C 160.67300415039062 32.78950881958008 162.9034423828125 44.3001594543457 150.12991333007812 67.72551727294922" stroke-width="2.0" fill="none" stroke="rgb(0, 0, 0)" stroke-opacity="1.0" stroke-linecap="round" stroke-linejoin="round" data-orig-style="" style="display:none" />
    <path d="M 152.5966033935547 53.42051696777344 C 150.34800720214844 74.58938598632812 136.5844268798828 82.81884002685547 123.01400756835938 98.15001678466797" stroke-width="2.0" fill="none" stroke="rgb(0, 0, 0)" stroke-opacity="1.0" stroke-linecap="round" stroke-linejoin="round" />
    <path d="M 76.19641876220703 46.534149169921875 C 73.06127166748047 82.15097045898438 99.6505355834961 77.972412109375 109.87651824951172 97.8443374633789" stroke-width="2.0" fill="none" stroke="rgb(0, 0, 0)" stroke-opacity="1.0" stroke-linecap="round" stroke-linejoin="round" data-orig-style="" style="display:none" />
    <path d="M 79.7486343383789 31.18382453918457 C 71.83989715576172 53.020606994628906 76.7950668334961 57.62458419799805 88.84099578857422 59.176292419433594" stroke-width="2.0" fill="none" stroke="rgb(0, 0, 0)" stroke-opacity="1.0" stroke-linecap="round" stroke-linejoin="round" data-orig-style="" style="display:none" />
    <path d="M 98.2236099243164 115.87043762207031 C 109.84471893310547 100.2836685180664 109.76801300048828 106.00694274902344 111.48094940185547 100.7052230834961" stroke-width="2.0" fill="none" stroke="rgb(0, 0, 0)" stroke-opacity="1.0" stroke-linecap="round" stroke-linejoin="round" data-orig-style="" style="display:none" />
    <path d="M 126.02052307128906 43.40486526489258 C 147.216796875 45.019561767578125 146.71878051757812 51.89755630493164 149.88897705078125 55.71538162231445" stroke-width="2.0" fill="none" stroke="rgb(0, 0, 0)" stroke-opacity="1.0" stroke-linecap="round" stroke-linejoin="round" data-orig-style="" style="display:none" />
    <path d="M 88.30450439453125 18.853961944580078 C 69.31971740722656 47.149131774902344 77.22669219970703 51.32811737060547 82.91952514648438 60.822139739990234" stroke-width="2.0" fill="none" stroke="rgb(0, 0, 0)" stroke-opacity="1.0" stroke-linecap="round" stroke-linejoin="round" data-orig-style="" style="display:none" />
    <path d="M 85.02783966064453 69.29569244384766 C 112.10945129394531 99.37039184570312 105.0592041015625 90.03192138671875 115.51673126220703 108.35993957519531" stroke-width="2.0" fill="none" stroke="rgb(0, 0, 0)" stroke-opacity="1.0" stroke-linecap="round" stroke-linejoin="round" data-orig-style="" style="display:none" />
    <path d="M 119.24951171875 92.63803100585938 C 141.7112579345703 120.47132873535156 157.19651794433594 134.0812530517578 160.3257293701172 155.370849609375" stroke-width="2.0" fill="none" stroke="rgb(0, 0, 0)" stroke-opacity="1.0" stroke-linecap="round" stroke-linejoin="round" data-orig-style="" style="display:none" />
    <path d="M 154.33885192871094 39.64153289794922 C 157.11630249023438 52.338645935058594 157.0596466064453 60.440460205078125 142.7706298828125 73.32597351074219" stroke-width="2.0" fill="none" stroke="rgb(0, 0, 0)" stroke-opacity="1.0" stroke-linecap="round" stroke-linejoin="round" />
    <path d="M 102.53963470458984 128.26100158691406 C 92.78245544433594 161.9641571044922 86.12150573730469 149.9571075439453 92.44278717041016 166.5069122314453" stroke-width="2.0" fill="none" stroke="rgb(0, 0, 0)" stroke-opacity="1.0" stroke-linecap="round" stroke-linejoin="round" data-orig-style="" style="display:none" />
    <path d="M 84.30437469482422 129.48199462890625 C 59.190032958984375 154.3707275390625 69.96644592285156 183.331298828125 90.10969543457031 192.9381561279297" stroke-width="2.0" fill="none" stroke="rgb(0, 0, 0)" stroke-opacity="1.0" stroke-linecap="round" stroke-linejoin="round" data-orig-style="" style="display:none" />
    <path d="M 111.37443542480469 86.63575744628906 C 125.57893371582031 112.5539779663086 116.83541107177734 104.44117736816406 127.83744812011719 114.61763000488281" stroke-width="2.0" fill="none" stroke="rgb(0, 0, 0)" stroke-opacity="1.0" stroke-linecap="round" stroke-linejoin="round" data-orig-style="" style="display:none" />
    <path d="M 146.10531616210938 24.375503540039062 C 152.63986206054688 45.91138458251953 149.7694854736328 48.68696975708008 148.26651000976562 57.407142639160156" stroke-width="2.0" fill="none" stroke="rgb(0, 0, 0)" stroke-opacity="1.0" stroke-linecap="round" stroke-linejoin="round" data-orig-style="" style="display:none" />
    <path d="M 90.166748046875 191.98426818847656 C 98.12066650390625 194.78860473632812 132.6859588623047 201.83096313476562 142.4485321044922 191.7142333984375" stroke-width="2.0" fill="none" stroke="rgb(0, 0, 0)" stroke-opacity="1.0" stroke-linecap="round" stroke-linejoin="round" data-orig-style="" style="display:none" />
    <path d="M 115.8047866821289 132.1462860107422 C 125.33457946777344 138.73098754882812 127.06172180175781 140.82652282714844 146.17327880859375 148.44725036621094" stroke-width="2.0" fill="none" stroke="rgb(0, 0, 0)" stroke-opacity="1.0" stroke-linecap="round" stroke-linejoin="round" data-orig-style="" style="display:none" />
    <path d="M 139.7584228515625 118.12075805664062 C 158.6021728515625 141.40036010742188 163.14610290527344 157.58013916015625 157.39068603515625 173.9332733154297" stroke-width="2.0" fill="none" stroke="rgb(0, 0, 0)" stroke-opacity="1.0" stroke-linecap="round" stroke-linejoin="round" data-orig-style="" style="display:none" />
    <path d="M 90.81600189208984 53.228233337402344 C 106.67589569091797 46.49759292602539 110.0188217163086 57.78582000732422 120.49212646484375 53.73417282104492" stroke-width="2.0" fill="none" stroke="rgb(0, 0, 0)" stroke-opacity="1.0" stroke-linecap="round" stroke-linejoin="round" data-orig-style="" style="display:none" />
    <path d="M 156.63729858398438 160.98501586914062 C 158.8081512451172 169.58309936523438 148.4995574951172 198.4495086669922 125.82736206054688 197.064453125" stroke-width="2.0" fill="none" stroke="rgb(0, 0, 0)" stroke-opacity="1.0" stroke-linecap="round" stroke-linejoin="round" data-orig-style="" style="display:none" />
    <path d="M 101.17743682861328 190.8350830078125 C 113.45213317871094 200.77894592285156 152.44027709960938 187.49545288085938 153.3664093017578 165.3056182861328" stroke-width="2.0" fill="none" stroke="rgb(0, 0, 0)" stroke-opacity="1.0" stroke-linecap="round" stroke-linejoin="round" data-orig-style="" style="display:none" />
    <path d="M 97.68131256103516 184.89405822753906 C 109.30946350097656 192.87330627441406 143.5736846923828 185.5285186767578 153.30850219726562 166.2557373046875" stroke-width="2.0" fill="none" stroke="rgb(0, 0, 0)" stroke-opacity="1.0" stroke-linecap="round" stroke-linejoin="round" data-orig-style="" style="display:none" />
  </g>
</svg>