<?xml version='1.0' encoding='utf-8'?>
<svg xmlns="http://www.w3.org/2000/svg" version="1.1" width="224" height="224">
  <defs />
  <g>
    <path d="M 59.155426025390625 198.12966918945312 C 62.12249755859375 202.20924377441406 83.50068664550781 200.4206085205078 139.37440490722656 199.2862091064453" stroke-width="2.0" fill="none" stroke="rgb(0, 0, 0)" stroke-opacity="1.0" stroke-linecap="round" stroke-linejoin="round" data-orig-style="" style="display:none" />
    <path d="M 128.486328125 71.79518127441406 C 139.7456817626953 111.83650970458984 141.2786102294922 111.0467300415039 143.85971069335938 140.015625" stroke-width="2.0" fill="none" stroke="rgb(0, 0, 0)" stroke-opacity="1.0" stroke-linecap="round" stroke-linejoin="round" />
    <path d="M 90.97644805908203 59.280670166015625 C 143.12281799316406 55.57628631591797 124.91629028320312 51.352088928222656 131.88336181640625 84.54875183105469" stroke-width="2.0" fill="none" stroke="rgb(0, 0, 0)" stroke-opacity="1.0" stroke-linecap="round" stroke-linejoin="round" data-orig-style="" style="display:none" />
    <path d="M 138.25930786132812 112.8235855102539 C 144.38072204589844 146.60580444335938 142.21368408203125 165.63705444335938 143.72076416015625 176.906005859375" stroke-width="2.0" fill="none" stroke="rgb(0, 0, 0)" stroke-opacity="1.0" stroke-linecap="round" stroke-linejoin="round" data-orig-style="" style="display:none" />
    <path d="M 99.03429412841797 68.4349594116211 C 89.24065399169922 109.14950561523438 95.02362060546875 128.60784912109375 85.8670654296875 157.625" stroke-width="2.0" fill="none" stroke="rgb(0, 0, 0)" stroke-opacity="1.0" stroke-linecap="round" stroke-linejoin="round" data-orig-style="" style="display:none" />
    <path d="M 65.90481567382812 159.10214233398438 C 76.27832794189453 189.24993896484375 55.87175750732422 192.57247924804688 68.1748275756836 196.83689880371094" stroke-width="2.0" fill="none" stroke="rgb(0, 0, 0)" stroke-opacity="1.0" stroke-linecap="round" stroke-linejoin="round" data-orig-style="" style="display:none" />
    <path d="M 64.56891632080078 153.55679321289062 C 75.64186096191406 147.72906494140625 92.7772445678711 160.60426330566406 99.76629638671875 144.2429656982422" stroke-width="2.0" fill="none" stroke="rgb(0, 0, 0)" stroke-opacity="1.0" stroke-linecap="round" stroke-linejoin="round" data-orig-style="" style="display:none" />
    <path d="M 115.4853286743164 54.091400146484375 C 128.0769805908203 60.48440933227539 148.27835083007812 53.26346206665039 131.09161376953125 58.00414276123047" stroke-width="2.0" fill="none" stroke="rgb(0, 0, 0)" stroke-opacity="1.0" stroke-linecap="round" stroke-linejoin="round" data-orig-style="" style="display:none" />
    <path d="M 125.53823852539062 53.68145751953125 C 136.837890625 66.17152404785156 126.19400024414062 60.75482940673828 132.70748901367188 105.9149398803711" stroke-width="2.0" fill="none" stroke="rgb(0, 0, 0)" stroke-opacity="1.0" stroke-linecap="round" stroke-linejoin="round" />
    <path d="M 64.60780334472656 153.57766723632812 C 75.03512573242188 147.92245483398438 92.78519439697266 159.7716064453125 100.01524353027344 145.70310974121094" stroke-width="2.0" fill="none" stroke="rgb(0, 0, 0)" stroke-opacity="1.0" stroke-linecap="round" stroke-linejoin="round" data-orig-style="" style="display:none" />
    <path d="M 98.14999389648438 28.358793258666992 C 100.37043762207031 16.333898544311523 113.11936950683594 27.232059478759766 116.03186798095703 11.40257740020752" stroke-width="2.0" fill="none" stroke="rgb(0, 0, 0)" stroke-opacity="1.0" stroke-linecap="round" stroke-linejoin="round" data-orig-style="" style="display:none" />
    <path d="M 90.88946533203125 96.88953399658203 C 97.6972885131836 74.83167266845703 98.5130844116211 73.22322845458984 97.80745697021484 98.66515350341797" stroke-width="2.0" fill="none" stroke="rgb(0, 0, 0)" stroke-opacity="1.0" stroke-linecap="round" stroke-linejoin="round" data-orig-style="" style="display:none" />
    <path d="M 104.77426147460938 17.76837730407715 C 124.2614974975586 20.06688690185547 127.3775634765625 18.300384521484375 131.29261779785156 41.592498779296875" stroke-width="2.0" fill="none" stroke="rgb(0, 0, 0)" stroke-opacity="1.0" stroke-linecap="round" stroke-linejoin="round" data-orig-style="" style="display:none" />
    <path d="M 103.03278350830078 60.90760040283203 C 101.70249938964844 87.93755340576172 100.2098617553711 113.95283508300781 97.0425033569336 147.18035888671875" stroke-width="2.0" fill="none" stroke="rgb(0, 0, 0)" stroke-opacity="1.0" stroke-linecap="round" stroke-linejoin="round" data-orig-style="" style="display:none" />
    <path d="M 93.05587768554688 56.37983703613281 C 102.19044494628906 24.525060653686523 94.17371368408203 28.213809967041016 111.20448303222656 13.810663223266602" stroke-width="2.0" fill="none" stroke="rgb(0, 0, 0)" stroke-opacity="1.0" stroke-linecap="round" stroke-linejoin="round" data-orig-style="" style="display:none" />
    <path d="M 65.36152648925781 153.09634399414062 C 76.19296264648438 147.27487182617188 90.05033111572266 160.3468017578125 99.20149993896484 145.68006896972656" stroke-width="2.0" fill="none" stroke="rgb(0, 0, 0)" stroke-opacity="1.0" stroke-linecap="round" stroke-linejoin="round" data-orig-style="" style="display:none" />
    <path d="M 83.80243682861328 57.738590240478516 C 98.99349975585938 58.691436767578125 99.838623046875 53.16946029663086 138.42897033691406 52.14239501953125" stroke-width="2.0" fill="none" stroke="rgb(0, 0, 0)" stroke-opacity="1.0" stroke-linecap="round" stroke-linejoin="round" data-orig-style="" style="display:none" />
    <path d="M 63.66520690917969 200.43142700195312 C 92.67144012451172 201.21841430664062 152.72801208496094 200.3381805419922 151.879638671875 198.4568634033203" stroke-width="2.0" fill="none" stroke="rgb(0, 0, 0)" stroke-opacity="1.0" stroke-linecap="round" stroke-linejoin="round" data-orig-style="" style="display:none" />
    <path d="M 139.45718383789062 125.12309265136719 C 143.10153198242188 163.43580627441406 142.92347717285156 172.75958251953125 142.04510498046875 180.10195922851562" stroke-width="2.0" fill="none" stroke="rgb(0, 0, 0)" stroke-opacity="1.0" stroke-linecap="round" stroke-linejoin="round" data-orig-style="" style="display:none" />
    <path d="M 85.16139221191406 56.29120635986328 C 105.220458984375 52.889183044433594 78.96757507324219 63.0744743347168 117.36019134521484 46.85609436035156" stroke-width="2.0" fill="none" stroke="rgb(0, 0, 0)" stroke-opacity="1.0" stroke-linecap="round" stroke-linejoin="round" data-orig-style="" style="display:none" />
    <path d="M 70.3440933227539 198.8460235595703 C 104.73783111572266 199.16600036621094 140.23822021484375 200.48245239257812 153.01119995117188 196.7507781982422" stroke-width="2.0" fill="none" stroke="rgb(0, 0, 0)" stroke-opacity="1.0" stroke-linecap="round" stroke-linejoin="round" data-orig-style="" style="display:none" />
    <path d="M 116.07398986816406 15.972935676574707 C 141.08773803710938 36.89045715332031 123.75045776367188 29.484840393066406 126.58354949951172 57.23161697387695" stroke-width="2.0" fill="none" stroke="rgb(0, 0, 0)" stroke-opacity="1.0" stroke-linecap="round" stroke-linejoin="round" data-orig-style="" style="display:none" />
    <path d="M 84.27416229248047 197.78077697753906 C 122.487060546875 198.92860412597656 147.9810028076172 199.65306091308594 154.3902587890625 194.89378356933594" stroke-width="2.0" fill="none" stroke="rgb(0, 0, 0)" stroke-opacity="1.0" stroke-linecap="round" stroke-linejoin="round" data-orig-style="" style="display:none" />
    <path d="M 59.95313262939453 190.9735565185547 C 80.08560180664062 189.98219299316406 88.35543823242188 192.9989776611328 143.80526733398438 191.74266052246094" stroke-width="2.0" fill="none" stroke="rgb(0, 0, 0)" stroke-opacity="1.0" stroke-linecap="round" stroke-linejoin="round" data-orig-style="" style="display:none" />
    <path d="M 128.45213317871094 185.23414611816406 C 167.08419799804688 185.98614501953125 145.64208984375 184.42135620117188 154.02769470214844 193.61862182617188" stroke-width="2.0" fill="none" stroke="rgb(0, 0, 0)" stroke-opacity="1.0" stroke-linecap="round" stroke-linejoin="round" data-orig-style="" style="display:none" />
    <path d="M 75.92898559570312 147.8867645263672 C 75.84038543701172 173.2227783203125 73.95226287841797 194.7295379638672 74.8254623413086 193.61392211914062" stroke-width="2.0" fill="none" stroke="rgb(0, 0, 0)" stroke-opacity="1.0" stroke-linecap="round" stroke-linejoin="round" data-orig-style="" style="display:none" />
    <path d="M 78.26718139648438 200.841552734375 C 146.5679168701172 198.2423095703125 154.37741088867188 201.80235290527344 151.5843963623047 196.80404663085938" stroke-width="2.0" fill="none" stroke="rgb(0, 0, 0)" stroke-opacity="1.0" stroke-linecap="round" stroke-linejoin="round" data-orig-style="" style="display:none" />
    <path d="M 121.45176696777344 138.4490966796875 C 121.81898498535156 146.17129516601562 117.51557159423828 141.29833984375 120.68383026123047 143.8567352294922" stroke-width="2.0" fill="none" stroke="rgb(0, 0, 0)" stroke-opacity="1.0" stroke-linecap="round" stroke-linejoin="round" data-orig-style="" style="display:none" />
    <path d="M 99.92434692382812 126.21897888183594 C 97.95075988769531 165.6559295654297 91.29238891601562 164.6490478515625 94.83029174804688 190.97662353515625" stroke-width="2.0" fill="none" stroke="rgb(0, 0, 0)" stroke-opacity="1.0" stroke-linecap="round" stroke-linejoin="round" data-orig-style="" style="display:none" />
    <path d="M 119.09703826904297 82.53105926513672 C 121.37002563476562 131.25833129882812 112.81350708007812 121.00221252441406 108.53947448730469 138.87908935546875" stroke-width="2.0" fill="none" stroke="rgb(0, 0, 0)" stroke-opacity="1.0" stroke-linecap="round" stroke-linejoin="round" data-orig-style="" style="display:none" />
    <path d="M 109.3987045288086 141.21934509277344 C 111.56238555908203 168.2147674560547 107.04131317138672 173.64755249023438 107.26387786865234 191.28623962402344" stroke-width="2.0" fill="none" stroke="rgb(0, 0, 0)" stroke-opacity="1.0" stroke-linecap="round" stroke-linejoin="round" data-orig-style="" style="display:none" />
    <path d="M 98.21098327636719 136.34710693359375 C 101.95233154296875 192.1803741455078 93.99922943115234 194.20013427734375 105.65467834472656 194.74465942382812" stroke-width="2.0" fill="none" stroke="rgb(0, 0, 0)" stroke-opacity="1.0" stroke-linecap="round" stroke-linejoin="round" data-orig-style="" style="display:none" />
  </g>
</svg>