<?xml version='1.0' encoding='utf-8'?>
<svg xmlns="http://www.w3.org/2000/svg" version="1.1" width="224" height="224">
  <defs />
  <g>
    <path d="M 53.6258659362793 171.26148986816406 C 72.32040405273438 181.19522094726562 48.10825729370117 193.8693389892578 99.51423645019531 191.01611328125" stroke-width="2.0" fill="none" stroke="rgb(0, 0, 0)" stroke-opacity="1.0" stroke-linecap="round" stroke-linejoin="round" data-orig-style="" style="display:none" />
    <path d="M 60.7574577331543 122.76669311523438 C 27.281465530395508 89.13458251953125 59.77674102783203 63.22459030151367 72.15169525146484 60.145423889160156" stroke-width="2.0" fill="none" stroke="rgb(0, 0, 0)" stroke-opacity="1.0" stroke-linecap="round" stroke-linejoin="round" data-orig-style="" style="display:none" />
    <path d="M 161.7258758544922 130.3417510986328 C 172.5098419189453 143.31515502929688 178.80477905273438 155.1440887451172 163.435546875 179.68553161621094" stroke-width="2.0" fill="none" stroke="rgb(0, 0, 0)" stroke-opacity="1.0" stroke-linecap="round" stroke-linejoin="round" data-orig-style="" style="display:none" />
    <path d="M 71.85001373291016 51.0133056640625 C 76.3516845703125 13.86950969696045 83.56681823730469 18.14209747314453 102.23717498779297 36.27839279174805" stroke-width="2.0" fill="none" stroke="rgb(0, 0, 0)" stroke-opacity="1.0" stroke-linecap="round" stroke-linejoin="round" data-orig-style="" style="display:none" />
    <path d="M 138.29757690429688 27.787044525146484 C 155.12237548828125 13.544635772705078 154.75135803222656 28.85275650024414 158.75869750976562 57.03685760498047" stroke-width="2.0" fill="none" stroke="rgb(0, 0, 0)" stroke-opacity="1.0" stroke-linecap="round" stroke-linejoin="round" data-orig-style="" style="display:none" />
    <path d="M 114.74024963378906 193.02664184570312 C 138.6744384765625 193.9521026611328 153.68972778320312 194.336669921875 162.59544372558594 185.92941284179688" stroke-width="2.0" fill="none" stroke="rgb(0, 0, 0)" stroke-opacity="1.0" stroke-linecap="round" stroke-linejoin="round" />
    <path d="M 72.00292205810547 119.94900512695312 C 70.1529312133789 134.62841796875 75.7298355102539 130.24655151367188 82.5849609375 138.97300720214844" stroke-width="2.0" fill="none" stroke="rgb(0, 0, 0)" stroke-opacity="1.0" stroke-linecap="round" stroke-linejoin="round" data-orig-style="" style="display:none" />
    <path d="M 57.64093017578125 175.8642578125 C 39.4830207824707 146.57382202148438 64.00331115722656 139.18775939941406 78.42581176757812 128.3771514892578" stroke-width="2.0" fill="none" stroke="rgb(0, 0, 0)" stroke-opacity="1.0" stroke-linecap="round" stroke-linejoin="round" data-orig-style="" style="display:none" />
    <path d="M 61.839263916015625 58.126197814941406 C 66.52635192871094 36.77799987792969 80.8966293334961 32.621429443359375 83.56519317626953 36.02747344970703" stroke-width="2.0" fill="none" stroke="rgb(0, 0, 0)" stroke-opacity="1.0" stroke-linecap="round" stroke-linejoin="round" data-orig-style="" style="display:none" />
    <path d="M 155.11660766601562 52.49939727783203 C 163.0147705078125 61.38670349121094 171.30596923828125 85.81817626953125 150.76763916015625 102.24603271484375" stroke-width="2.0" fill="none" stroke="rgb(0, 0, 0)" stroke-opacity="1.0" stroke-linecap="round" stroke-linejoin="round" data-orig-style="" style="display:none" />
    <path d="M 92.60225677490234 36.10807800292969 C 97.3016357421875 32.624473571777344 105.59747314453125 39.13116455078125 122.1016616821289 38.124664306640625" stroke-width="2.0" fill="none" stroke="rgb(0, 0, 0)" stroke-opacity="1.0" stroke-linecap="round" stroke-linejoin="round" data-orig-style="" style="display:none" />
    <path d="M 97.0435791015625 37.84243392944336 C 107.60110473632812 37.013397216796875 130.47015380859375 37.29051971435547 141.01681518554688 39.374000549316406" stroke-width="2.0" fill="none" stroke="rgb(0, 0, 0)" stroke-opacity="1.0" stroke-linecap="round" stroke-linejoin="round" data-orig-style="" style="display:none" />
    <path d="M 161.93341064453125 130.9553985595703 C 174.81558227539062 144.96275329589844 177.51124572753906 157.78273010253906 162.1231689453125 181.525146484375" stroke-width="2.0" fill="none" stroke="rgb(0, 0, 0)" stroke-opacity="1.0" stroke-linecap="round" stroke-linejoin="round" data-orig-style="" style="display:none" />
    <path d="M 141.67039489746094 104.8025131225586 C 157.2065887451172 111.66828918457031 162.4320831298828 116.85334014892578 163.9548797607422 134.66351318359375" stroke-width="2.0" fill="none" stroke="rgb(0, 0, 0)" stroke-opacity="1.0" stroke-linecap="round" stroke-linejoin="round" data-orig-style="" style="display:none" />
    <path d="M 142.29734802246094 41.51544952392578 C 156.8396453857422 53.27216720581055 166.74656677246094 67.3154525756836 163.02403259277344 84.49437713623047" stroke-width="2.0" fill="none" stroke="rgb(0, 0, 0)" stroke-opacity="1.0" stroke-linecap="round" stroke-linejoin="round" data-orig-style="" style="display:none" />
    <path d="M 84.80448150634766 45.86863327026367 C 80.38265991210938 63.367671966552734 70.33788299560547 62.40108871459961 74.33235168457031 73.40065002441406" stroke-width="2.0" fill="none" stroke="rgb(0, 0, 0)" stroke-opacity="1.0" stroke-linecap="round" stroke-linejoin="round" data-orig-style="" style="display:none" />
    <path d="M 159.42840576171875 73.56710815429688 C 163.27471923828125 86.41610717773438 150.1638946533203 110.58955383300781 130.36354064941406 106.7271728515625" stroke-width="2.0" fill="none" stroke="rgb(0, 0, 0)" stroke-opacity="1.0" stroke-linecap="round" stroke-linejoin="round" data-orig-style="" style="display:none" />
    <path d="M 158.7383575439453 64.303955078125 C 164.57159423828125 71.71244049072266 163.39773559570312 102.64344024658203 142.73257446289062 103.3843002319336" stroke-width="2.0" fill="none" stroke="rgb(0, 0, 0)" stroke-opacity="1.0" stroke-linecap="round" stroke-linejoin="round" data-orig-style="" style="display:none" />
    <path d="M 150.37399291992188 53.82832717895508 C 167.01876831054688 66.42635345458984 162.2439422607422 100.81259155273438 141.66136169433594 106.56039428710938" stroke-width="2.0" fill="none" stroke="rgb(0, 0, 0)" stroke-opacity="1.0" stroke-linecap="round" stroke-linejoin="round" data-orig-style="" style="display:none" />
    <path d="M 89.2840576171875 67.26422119140625 C 104.76358795166016 58.70347213745117 107.00495910644531 76.81807708740234 102.9344711303711 73.96315002441406" stroke-width="2.0" fill="none" stroke="rgb(0, 0, 0)" stroke-opacity="1.0" stroke-linecap="round" stroke-linejoin="round" data-orig-style="" style="display:none" />
    <path d="M 87.26912689208984 69.07652282714844 C 102.43954467773438 55.440643310546875 112.81361389160156 77.96416473388672 96.51689910888672 72.64350891113281" stroke-width="2.0" fill="none" stroke="rgb(0, 0, 0)" stroke-opacity="1.0" stroke-linecap="round" stroke-linejoin="round" data-orig-style="" style="display:none" />
    <path d="M 96.43380737304688 72.45819854736328 C 110.70123291015625 80.29293060302734 95.43351745605469 85.61396789550781 120.40695190429688 95.99212646484375" stroke-width="2.0" fill="none" stroke="rgb(0, 0, 0)" stroke-opacity="1.0" stroke-linecap="round" stroke-linejoin="round" data-orig-style="" style="display:none" />
    <path d="M 92.81172180175781 67.22935485839844 C 108.80929565429688 70.33557891845703 96.65601348876953 79.83428192138672 114.54733276367188 85.43207550048828" stroke-width="2.0" fill="none" stroke="rgb(0, 0, 0)" stroke-opacity="1.0" stroke-linecap="round" stroke-linejoin="round" data-orig-style="" style="display:none" />
    <path d="M 74.46110534667969 87.08692932128906 C 71.39744567871094 105.41277313232422 106.49503326416016 120.06927490234375 138.01113891601562 103.81788635253906" stroke-width="2.0" fill="none" stroke="rgb(0, 0, 0)" stroke-opacity="1.0" stroke-linecap="round" stroke-linejoin="round" data-orig-style="" style="display:none" />
    <path d="M 119.9693832397461 70.89295959472656 C 127.12171936035156 60.32764434814453 135.82937622070312 70.51576232910156 134.0006103515625 69.65188598632812" stroke-width="2.0" fill="none" stroke="rgb(0, 0, 0)" stroke-opacity="1.0" stroke-linecap="round" stroke-linejoin="round" data-orig-style="" style="display:none" />
    <path d="M 127.33738708496094 68.0140151977539 C 131.57716369628906 55.80168914794922 151.7340087890625 67.644775390625 133.7152099609375 71.57054901123047" stroke-width="2.0" fill="none" stroke="rgb(0, 0, 0)" stroke-opacity="1.0" stroke-linecap="round" stroke-linejoin="round" data-orig-style="" style="display:none" />
    <path d="M 74.7116928100586 82.21955871582031 C 69.83978271484375 106.58778381347656 91.34313201904297 113.35055541992188 112.33258056640625 111.39375305175781" stroke-width="2.0" fill="none" stroke="rgb(0, 0, 0)" stroke-opacity="1.0" stroke-linecap="round" stroke-linejoin="round" data-orig-style="" style="display:none" />
    <path d="M 108.31206512451172 110.54983520507812 C 119.18191528320312 117.78453826904297 106.47688293457031 123.0405044555664 124.94146728515625 134.80226135253906" stroke-width="2.0" fill="none" stroke="rgb(0, 0, 0)" stroke-opacity="1.0" stroke-linecap="round" stroke-linejoin="round" data-orig-style="" style="display:none" />
    <path d="M 132.73788452148438 155.7359161376953 C 132.56539916992188 162.4661102294922 121.59835052490234 183.7392578125 101.89659881591797 186.59463500976562" stroke-width="2.0" fill="none" stroke="rgb(0, 0, 0)" stroke-opacity="1.0" stroke-linecap="round" stroke-linejoin="round" />
    <path d="M 104.48866271972656 141.87759399414062 C 130.6687774658203 138.3571014404297 117.07386779785156 156.39578247070312 136.367919921875 156.7644500732422" stroke-width="2.0" fill="none" stroke="rgb(0, 0, 0)" stroke-opacity="1.0" stroke-linecap="round" stroke-linejoin="round" data-orig-style="" style="display:none" />
    <path d="M 136.56759643554688 161.57144165039062 C 126.9526138305664 190.46646118164062 108.26810455322266 195.79087829589844 153.58348083496094 191.47552490234375" stroke-width="2.0" fill="none" stroke="rgb(0, 0, 0)" stroke-opacity="1.0" stroke-linecap="round" stroke-linejoin="round" />
    <path d="M 87.50169372558594 148.5603790283203 C 94.65721130371094 159.98281860351562 83.79410552978516 178.5284881591797 101.10784149169922 185.93858337402344" stroke-width="2.0" fill="none" stroke="rgb(0, 0, 0)" stroke-opacity="1.0" stroke-linecap="round" stroke-linejoin="round" data-orig-style="" style="display:none" />
  </g>
</svg>