<?xml version='1.0' encoding='utf-8'?>
<svg xmlns="http://www.w3.org/2000/svg" version="1.1" width="224" height="224">
  <defs />
  <g>
    <path d="M 148.9373779296875 148.41380310058594 C 167.15090942382812 160.04623413085938 179.8390655517578 167.94973754882812 209.9525146484375 154.41217041015625" stroke-width="2.0" fill="none" stroke="rgb(0, 0, 0)" stroke-opacity="1.0" stroke-linecap="round" stroke-linejoin="round" />
    <path d="M 9.407772064208984 33.038352966308594 C 17.7760009765625 69.25067901611328 33.340843200683594 77.35694122314453 36.486202239990234 97.92475891113281" stroke-width="2.0" fill="none" stroke="rgb(0, 0, 0)" stroke-opacity="1.0" stroke-linecap="round" stroke-linejoin="round" data-orig-style="" style="display:none" />
    <path d="M 31.600963592529297 49.524757385253906 C 61.08219909667969 71.2099609375 67.2710189819336 68.5867919921875 107.70864868164062 81.9688720703125" stroke-width="2.0" fill="none" stroke="rgb(0, 0, 0)" stroke-opacity="1.0" stroke-linecap="round" stroke-linejoin="round" data-orig-style="" style="display:none" />
    <path d="M 107.17308807373047 142.4391326904297 C 142.7173614501953 150.1214599609375 153.11891174316406 157.79067993164062 177.98513793945312 160.0587158203125" stroke-width="2.0" fill="none" stroke="rgb(0, 0, 0)" stroke-opacity="1.0" stroke-linecap="round" stroke-linejoin="round" data-orig-style="" style="display:none" />
    <path d="M 147.9219970703125 90.85429382324219 C 160.81834411621094 119.2510986328125 173.72657775878906 132.06639099121094 182.5653076171875 138.99679565429688" stroke-width="2.0" fill="none" stroke="rgb(0, 0, 0)" stroke-opacity="1.0" stroke-linecap="round" stroke-linejoin="round" />
    <path d="M 175.24917602539062 144.70083618164062 C 184.96412658691406 146.70574951171875 182.95925903320312 151.45892333984375 190.81600952148438 146.57798767089844" stroke-width="2.0" fill="none" stroke="rgb(0, 0, 0)" stroke-opacity="1.0" stroke-linecap="round" stroke-linejoin="round" />
    <path d="M 184.69789123535156 155.3000030517578 C 193.5701446533203 160.54940795898438 207.75393676757812 159.37860107421875 215.8095703125 152.92626953125" stroke-width="2.0" fill="none" stroke="rgb(0, 0, 0)" stroke-opacity="1.0" stroke-linecap="round" stroke-linejoin="round" />
    <path d="M 38.23722839355469 112.94146728515625 C 35.207603454589844 116.31723022460938 19.54010009765625 145.86795043945312 28.53232192993164 151.28466796875" stroke-width="2.0" fill="none" stroke="rgb(0, 0, 0)" stroke-opacity="1.0" stroke-linecap="round" stroke-linejoin="round" data-orig-style="" style="display:none" />
    <path d="M 23.473527908325195 39.89935302734375 C 51.21217346191406 69.0777359008789 62.866310119628906 63.678932189941406 94.86803436279297 80.35963439941406" stroke-width="2.0" fill="none" stroke="rgb(0, 0, 0)" stroke-opacity="1.0" stroke-linecap="round" stroke-linejoin="round" data-orig-style="" style="display:none" />
    <path d="M 138.54110717773438 78.52037811279297 C 163.64993286132812 69.16801452636719 160.90188598632812 57.41362380981445 206.4849090576172 47.93291473388672" stroke-width="2.0" fill="none" stroke="rgb(0, 0, 0)" stroke-opacity="1.0" stroke-linecap="round" stroke-linejoin="round" data-orig-style="" style="display:none" />
    <path d="M 38.98680877685547 117.8048324584961 C 30.751117706298828 126.35720825195312 19.358213424682617 152.67318725585938 31.454938888549805 151.68704223632812" stroke-width="2.0" fill="none" stroke="rgb(0, 0, 0)" stroke-opacity="1.0" stroke-linecap="round" stroke-linejoin="round" data-orig-style="" style="display:none" />
    <path d="M 52.83707809448242 159.4208221435547 C 63.66865539550781 158.4626922607422 78.99267578125 163.533935546875 89.34214782714844 135.0680389404297" stroke-width="2.0" fill="none" stroke="rgb(0, 0, 0)" stroke-opacity="1.0" stroke-linecap="round" stroke-linejoin="round" data-orig-style="" style="display:none" />
    <path d="M 123.13679504394531 77.12054443359375 C 132.67184448242188 75.24214935302734 125.25680541992188 83.82966613769531 137.5482940673828 78.47933959960938" stroke-width="2.0" fill="none" stroke="rgb(0, 0, 0)" stroke-opacity="1.0" stroke-linecap="round" stroke-linejoin="round" data-orig-style="" style="display:none" />
    <path d="M 168.1493682861328 63.824851989746094 C 190.37196350097656 49.982425689697266 199.8936309814453 50.564857482910156 214.2635498046875 47.06807327270508" stroke-width="2.0" fill="none" stroke="rgb(0, 0, 0)" stroke-opacity="1.0" stroke-linecap="round" stroke-linejoin="round" data-orig-style="" style="display:none" />
    <path d="M 52.85023498535156 158.10739135742188 C 65.00983428955078 159.1240234375 81.69046783447266 161.07769775390625 89.70757293701172 134.93450927734375" stroke-width="2.0" fill="none" stroke="rgb(0, 0, 0)" stroke-opacity="1.0" stroke-linecap="round" stroke-linejoin="round" data-orig-style="" style="display:none" />
    <path d="M 134.99017333984375 82.71495056152344 C 144.333984375 77.45886993408203 140.1188507080078 84.29228210449219 158.25506591796875 69.83786010742188" stroke-width="2.0" fill="none" stroke="rgb(0, 0, 0)" stroke-opacity="1.0" stroke-linecap="round" stroke-linejoin="round" data-orig-style="" style="display:none" />
    <path d="M 33.90101623535156 114.90267944335938 C 39.23065185546875 111.88269805908203 36.51116943359375 111.71170043945312 43.366085052490234 114.94735717773438" stroke-width="2.0" fill="none" stroke="rgb(0, 0, 0)" stroke-opacity="1.0" stroke-linecap="round" stroke-linejoin="round" data-orig-style="" style="display:none" />
    <path d="M 53.70862579345703 159.06964111328125 C 68.9166488647461 160.39573669433594 81.79501342773438 157.952880859375 94.27313232421875 135.2268829345703" stroke-width="2.0" fill="none" stroke="rgb(0, 0, 0)" stroke-opacity="1.0" stroke-linecap="round" stroke-linejoin="round" data-orig-style="" style="display:none" />
    <path d="M 35.13324737548828 108.22627258300781 C 47.3532600402832 101.24993133544922 65.02265930175781 100.38299560546875 81.98856353759766 107.28861236572266" stroke-width="2.0" fill="none" stroke="rgb(0, 0, 0)" stroke-opacity="1.0" stroke-linecap="round" stroke-linejoin="round" data-orig-style="" style="display:none" />
    <path d="M 49.511024475097656 110.16716003417969 C 89.76864624023438 101.30165100097656 70.90597534179688 114.67808532714844 82.47593688964844 123.60049438476562" stroke-width="2.0" fill="none" stroke="rgb(0, 0, 0)" stroke-opacity="1.0" stroke-linecap="round" stroke-linejoin="round" data-orig-style="" style="display:none" />
    <path d="M 101.81859588623047 142.8208465576172 C 136.5479736328125 149.87509155273438 151.7633819580078 159.0811767578125 172.45848083496094 159.7664794921875" stroke-width="2.0" fill="none" stroke="rgb(0, 0, 0)" stroke-opacity="1.0" stroke-linecap="round" stroke-linejoin="round" data-orig-style="" style="display:none" />
    <path d="M 35.04558181762695 109.24423217773438 C 72.67144775390625 93.23528289794922 71.05609893798828 104.20606231689453 82.95396423339844 109.39221954345703" stroke-width="2.0" fill="none" stroke="rgb(0, 0, 0)" stroke-opacity="1.0" stroke-linecap="round" stroke-linejoin="round" data-orig-style="" style="display:none" />
    <path d="M 133.1934051513672 74.98236083984375 C 152.014404296875 87.66586303710938 143.47314453125 86.6591796875 162.23031616210938 110.04399108886719" stroke-width="2.0" fill="none" stroke="rgb(0, 0, 0)" stroke-opacity="1.0" stroke-linecap="round" stroke-linejoin="round" data-orig-style="" style="display:none" />
    <path d="M 35.00660705566406 109.26963806152344 C 58.78089141845703 95.76991271972656 68.8525390625 102.6648178100586 87.57038879394531 105.27635955810547" stroke-width="2.0" fill="none" stroke="rgb(0, 0, 0)" stroke-opacity="1.0" stroke-linecap="round" stroke-linejoin="round" data-orig-style="" style="display:none" />
    <path d="M 75.80516815185547 144.45291137695312 C 109.12425231933594 133.6803436279297 96.36201477050781 142.84210205078125 129.7952880859375 146.9409637451172" stroke-width="2.0" fill="none" stroke="rgb(0, 0, 0)" stroke-opacity="1.0" stroke-linecap="round" stroke-linejoin="round" data-orig-style="" style="display:none" />
    <path d="M 79.130859375 104.08001708984375 C 110.579345703125 86.87206268310547 103.159912109375 104.20870208740234 132.42076110839844 91.9860610961914" stroke-width="2.0" fill="none" stroke="rgb(0, 0, 0)" stroke-opacity="1.0" stroke-linecap="round" stroke-linejoin="round" data-orig-style="" style="display:none" />
    <path d="M 111.89413452148438 102.00572967529297 C 110.76181030273438 119.16459655761719 108.12380981445312 122.84590911865234 109.3168716430664 137.33921813964844" stroke-width="2.0" fill="none" stroke="rgb(0, 0, 0)" stroke-opacity="1.0" stroke-linecap="round" stroke-linejoin="round" data-orig-style="" style="display:none" />
    <path d="M 145.08094787597656 147.68170166015625 C 164.5618133544922 157.1209716796875 173.3612518310547 168.01168823242188 205.32102966308594 155.44712829589844" stroke-width="2.0" fill="none" stroke="rgb(0, 0, 0)" stroke-opacity="1.0" stroke-linecap="round" stroke-linejoin="round" />
    <path d="M 73.31639862060547 152.55799865722656 C 113.01946258544922 134.99256896972656 102.74195861816406 152.71875 141.55831909179688 151.9739990234375" stroke-width="2.0" fill="none" stroke="rgb(0, 0, 0)" stroke-opacity="1.0" stroke-linecap="round" stroke-linejoin="round" data-orig-style="" style="display:none" />
    <path d="M 103.05957794189453 136.9202880859375 C 116.67017364501953 139.72390747070312 114.50576782226562 145.2257843017578 125.97052001953125 147.7655792236328" stroke-width="2.0" fill="none" stroke="rgb(0, 0, 0)" stroke-opacity="1.0" stroke-linecap="round" stroke-linejoin="round" data-orig-style="" style="display:none" />
    <path d="M 111.08811950683594 102.0912857055664 C 117.72309875488281 121.25153350830078 109.95805358886719 125.3660888671875 125.39680480957031 139.85061645507812" stroke-width="2.0" fill="none" stroke="rgb(0, 0, 0)" stroke-opacity="1.0" stroke-linecap="round" stroke-linejoin="round" data-orig-style="" style="display:none" />
    <path d="M 72.36775970458984 134.9455108642578 C 108.9565200805664 130.2619171142578 86.28414916992188 144.243408203125 117.2322006225586 143.12208557128906" stroke-width="2.0" fill="none" stroke="rgb(0, 0, 0)" stroke-opacity="1.0" stroke-linecap="round" stroke-linejoin="round" data-orig-style="" style="display:none" />
  </g>
</svg>