<?xml version='1.0' encoding='utf-8'?>
<svg xmlns="http://www.w3.org/2000/svg" version="1.1" width="224" height="224">
  <defs />
  <g>
    <path d="M 93.44384765625 162.7545166015625 C 98.71214294433594 174.3428955078125 94.02204895019531 192.48077392578125 125.21916961669922 172.86924743652344" stroke-width="2.0" fill="none" stroke="rgb(0, 0, 0)" stroke-opacity="1.0" stroke-linecap="round" stroke-linejoin="round" data-orig-style="" style="display:none" />
    <path d="M 64.98639678955078 50.08770751953125 C 77.47673034667969 28.09527587890625 88.41963195800781 29.737783432006836 99.55766296386719 24.299007415771484" stroke-width="2.0" fill="none" stroke="rgb(0, 0, 0)" stroke-opacity="1.0" stroke-linecap="round" stroke-linejoin="round" data-orig-style="" style="display:none" />
    <path d="M 104.77709197998047 22.852632522583008 C 129.42233276367188 25.242748260498047 132.31141662597656 21.548437118530273 153.70166015625 37.56121826171875" stroke-width="2.0" fill="none" stroke="rgb(0, 0, 0)" stroke-opacity="1.0" stroke-linecap="round" stroke-linejoin="round" />
    <path d="M 112.21173095703125 22.369604110717773 C 134.7930908203125 26.766220092773438 140.1273193359375 24.038467407226562 159.75057983398438 42.55839538574219" stroke-width="2.0" fill="none" stroke="rgb(0, 0, 0)" stroke-opacity="1.0" stroke-linecap="round" stroke-linejoin="round" />
    <path d="M 153.17710876464844 38.735023498535156 C 172.68106079101562 56.3651008605957 165.93446350097656 48.74151611328125 177.1773681640625 64.98992919921875" stroke-width="2.0" fill="none" stroke="rgb(0, 0, 0)" stroke-opacity="1.0" stroke-linecap="round" stroke-linejoin="round" data-orig-style="" style="display:none" />
    <path d="M 135.24880981445312 159.18333435058594 C 138.9097137451172 174.7738037109375 131.36399841308594 179.12173461914062 119.96894073486328 179.84600830078125" stroke-width="2.0" fill="none" stroke="rgb(0, 0, 0)" stroke-opacity="1.0" stroke-linecap="round" stroke-linejoin="round" data-orig-style="" style="display:none" />
    <path d="M 103.7051010131836 93.95632934570312 C 101.70864868164062 159.92623901367188 94.30242919921875 162.43911743164062 91.94952392578125 172.2155303955078" stroke-width="2.0" fill="none" stroke="rgb(0, 0, 0)" stroke-opacity="1.0" stroke-linecap="round" stroke-linejoin="round" data-orig-style="" style="display:none" />
    <path d="M 50.382476806640625 89.71762084960938 C 63.206787109375 99.50890350341797 76.93707275390625 114.46734619140625 108.65995025634766 104.41455841064453" stroke-width="2.0" fill="none" stroke="rgb(0, 0, 0)" stroke-opacity="1.0" stroke-linecap="round" stroke-linejoin="round" data-orig-style="" style="display:none" />
    <path d="M 46.09308624267578 74.36051177978516 C 47.4483642578125 88.47756958007812 48.03313446044922 115.13247680664062 89.04302978515625 101.02600860595703" stroke-width="2.0" fill="none" stroke="rgb(0, 0, 0)" stroke-opacity="1.0" stroke-linecap="round" stroke-linejoin="round" data-orig-style="" style="display:none" />
    <path d="M 174.72341918945312 64.41357421875 C 180.53631591796875 78.62432861328125 189.95155334472656 83.68372344970703 176.80209350585938 94.6065673828125" stroke-width="2.0" fill="none" stroke="rgb(0, 0, 0)" stroke-opacity="1.0" stroke-linecap="round" stroke-linejoin="round" data-orig-style="" style="display:none" />
    <path d="M 44.838783264160156 88.53457641601562 C 40.83953094482422 55.4739990234375 72.19066619873047 55.36289596557617 73.37202453613281 39.28266143798828" stroke-width="2.0" fill="none" stroke="rgb(0, 0, 0)" stroke-opacity="1.0" stroke-linecap="round" stroke-linejoin="round" data-orig-style="" style="display:none" />
    <path d="M 143.92848205566406 67.15240478515625 C 168.8242645263672 55.69361877441406 163.4785919189453 60.24898910522461 174.43455505371094 64.42440795898438" stroke-width="2.0" fill="none" stroke="rgb(0, 0, 0)" stroke-opacity="1.0" stroke-linecap="round" stroke-linejoin="round" data-orig-style="" style="display:none" />
    <path d="M 119.83763122558594 89.01023864746094 C 143.2308349609375 116.10731506347656 127.67596435546875 108.68994903564453 136.64031982421875 120.52644348144531" stroke-width="2.0" fill="none" stroke="rgb(0, 0, 0)" stroke-opacity="1.0" stroke-linecap="round" stroke-linejoin="round" data-orig-style="" style="display:none" />
    <path d="M 180.52850341796875 89.4007797241211 C 178.41433715820312 95.82810974121094 166.3147430419922 110.70958709716797 141.7353057861328 110.92975616455078" stroke-width="2.0" fill="none" stroke="rgb(0, 0, 0)" stroke-opacity="1.0" stroke-linecap="round" stroke-linejoin="round" data-orig-style="" style="display:none" />
    <path d="M 176.92446899414062 68.94670104980469 C 179.87074279785156 78.94026947021484 192.3768768310547 85.56514739990234 173.9529266357422 97.58368682861328" stroke-width="2.0" fill="none" stroke="rgb(0, 0, 0)" stroke-opacity="1.0" stroke-linecap="round" stroke-linejoin="round" data-orig-style="" style="display:none" />
    <path d="M 76.97877502441406 34.8277587890625 C 97.52444458007812 18.763486862182617 106.7560043334961 27.59407615661621 114.48860168457031 22.06174659729004" stroke-width="2.0" fill="none" stroke="rgb(0, 0, 0)" stroke-opacity="1.0" stroke-linecap="round" stroke-linejoin="round" data-orig-style="" style="display:none" />
    <path d="M 162.6824493408203 48.454166412353516 C 179.0838623046875 63.32167053222656 176.31951904296875 68.34121704101562 182.26205444335938 81.15532684326172" stroke-width="2.0" fill="none" stroke="rgb(0, 0, 0)" stroke-opacity="1.0" stroke-linecap="round" stroke-linejoin="round" data-orig-style="" style="display:none" />
    <path d="M 176.5735626220703 91.81767272949219 C 179.74331665039062 95.06898498535156 165.3895263671875 110.21456909179688 141.45712280273438 109.49177551269531" stroke-width="2.0" fill="none" stroke="rgb(0, 0, 0)" stroke-opacity="1.0" stroke-linecap="round" stroke-linejoin="round" data-orig-style="" style="display:none" />
    <path d="M 52.95318603515625 94.22579193115234 C 78.16276550292969 75.50226593017578 68.85244750976562 97.6788558959961 102.96585083007812 70.94670867919922" stroke-width="2.0" fill="none" stroke="rgb(0, 0, 0)" stroke-opacity="1.0" stroke-linecap="round" stroke-linejoin="round" data-orig-style="" style="display:none" />
    <path d="M 59.93611145019531 52.58924102783203 C 81.56246948242188 34.27915573120117 70.46229553222656 48.1584587097168 81.385986328125 42.44280242919922" stroke-width="2.0" fill="none" stroke="rgb(0, 0, 0)" stroke-opacity="1.0" stroke-linecap="round" stroke-linejoin="round" data-orig-style="" style="display:none" />
    <path d="M 48.87555694580078 84.45472717285156 C 70.08757019042969 65.3438720703125 60.38825225830078 83.78192138671875 80.49996185302734 75.23200225830078" stroke-width="2.0" fill="none" stroke="rgb(0, 0, 0)" stroke-opacity="1.0" stroke-linecap="round" stroke-linejoin="round" data-orig-style="" style="display:none" />
    <path d="M 129.93777465820312 103.19248962402344 C 132.75685119628906 162.3040771484375 140.27273559570312 158.4601287841797 137.00509643554688 174.9582977294922" stroke-width="2.0" fill="none" stroke="rgb(0, 0, 0)" stroke-opacity="1.0" stroke-linecap="round" stroke-linejoin="round" data-orig-style="" style="display:none" />
    <path d="M 59.104331970214844 99.74696350097656 C 104.0048599243164 70.29537963867188 84.46408081054688 87.80226135253906 114.58216857910156 71.29414367675781" stroke-width="2.0" fill="none" stroke="rgb(0, 0, 0)" stroke-opacity="1.0" stroke-linecap="round" stroke-linejoin="round" data-orig-style="" style="display:none" />
    <path d="M 116.69694519042969 92.0801010131836 C 135.9787139892578 78.0827865600586 144.25775146484375 107.4283676147461 173.99154663085938 95.60175323486328" stroke-width="2.0" fill="none" stroke="rgb(0, 0, 0)" stroke-opacity="1.0" stroke-linecap="round" stroke-linejoin="round" data-orig-style="" style="display:none" />
    <path d="M 127.31581115722656 94.3258056640625 C 133.1039581298828 121.59201049804688 130.35499572753906 137.10960388183594 137.9308319091797 167.65008544921875" stroke-width="2.0" fill="none" stroke="rgb(0, 0, 0)" stroke-opacity="1.0" stroke-linecap="round" stroke-linejoin="round" data-orig-style="" style="display:none" />
    <path d="M 136.10975646972656 68.36144256591797 C 165.91775512695312 40.03886795043945 152.81521606445312 55.192665100097656 165.19390869140625 47.451446533203125" stroke-width="2.0" fill="none" stroke="rgb(0, 0, 0)" stroke-opacity="1.0" stroke-linecap="round" stroke-linejoin="round" data-orig-style="" style="display:none" />
    <path d="M 94.06889343261719 61.93865203857422 C 120.27132415771484 47.035675048828125 105.49638366699219 62.546871185302734 134.28903198242188 61.064701080322266" stroke-width="2.0" fill="none" stroke="rgb(0, 0, 0)" stroke-opacity="1.0" stroke-linecap="round" stroke-linejoin="round" />
    <path d="M 124.98538208007812 63.019432067871094 C 150.25732421875 39.26197814941406 138.8759002685547 56.76808166503906 158.8356170654297 42.46868896484375" stroke-width="2.0" fill="none" stroke="rgb(0, 0, 0)" stroke-opacity="1.0" stroke-linecap="round" stroke-linejoin="round" />
    <path d="M 83.8765869140625 112.75881958007812 C 113.96772003173828 89.30235290527344 93.41206359863281 104.64891815185547 113.58246612548828 94.38902282714844" stroke-width="2.0" fill="none" stroke="rgb(0, 0, 0)" stroke-opacity="1.0" stroke-linecap="round" stroke-linejoin="round" data-orig-style="" style="display:none" />
    <path d="M 84.71461486816406 90.2698974609375 C 128.01889038085938 56.45154571533203 105.78216552734375 79.17019653320312 136.7423095703125 74.3551025390625" stroke-width="2.0" fill="none" stroke="rgb(0, 0, 0)" stroke-opacity="1.0" stroke-linecap="round" stroke-linejoin="round" data-orig-style="" style="display:none" />
    <path d="M 77.1895980834961 103.46736145019531 C 128.049560546875 70.13320922851562 110.8533706665039 87.19303131103516 143.10092163085938 81.09120178222656" stroke-width="2.0" fill="none" stroke="rgb(0, 0, 0)" stroke-opacity="1.0" stroke-linecap="round" stroke-linejoin="round" data-orig-style="" style="display:none" />
    <path d="M 111.85340881347656 56.429115295410156 C 132.37298583984375 51.32647705078125 121.00228881835938 62.3675537109375 139.80126953125 61.55840301513672" stroke-width="2.0" fill="none" stroke="rgb(0, 0, 0)" stroke-opacity="1.0" stroke-linecap="round" stroke-linejoin="round" />
  </g>
</svg>