<?xml version='1.0' encoding='utf-8'?>
<svg xmlns="http://www.w3.org/2000/svg" version="1.1" width="224" height="224">
  <defs />
  <g>
    <path d="M 19.4512939453125 146.2476348876953 C 12.236695289611816 160.86477661132812 38.285911560058594 167.8697509765625 62.5913200378418 149.513427734375" stroke-width="2.0" fill="none" stroke="rgb(0, 0, 0)" stroke-opacity="1.0" stroke-linecap="round" stroke-linejoin="round" data-orig-style="" style="display:none" />
    <path d="M 71.93199157714844 54.72324752807617 C 74.97654724121094 19.049287796020508 118.04147338867188 25.870933532714844 119.51112365722656 52.84091567993164" stroke-width="2.0" fill="none" stroke="rgb(0, 0, 0)" stroke-opacity="1.0" stroke-linecap="round" stroke-linejoin="round" data-orig-style="" style="display:none" />
    <path d="M 181.5369873046875 139.612060546875 C 210.0731964111328 134.24716186523438 210.6796875 164.4730682373047 191.0991668701172 165.59674072265625" stroke-width="2.0" fill="none" stroke="rgb(0, 0, 0)" stroke-opacity="1.0" stroke-linecap="round" stroke-linejoin="round" data-orig-style="" style="display:none" />
    <path d="M 127.92577362060547 68.50959014892578 C 143.01649475097656 85.55223083496094 141.39268493652344 103.4858169555664 171.40411376953125 108.75775909423828" stroke-width="2.0" fill="none" stroke="rgb(0, 0, 0)" stroke-opacity="1.0" stroke-linecap="round" stroke-linejoin="round" data-orig-style="" style="display:none" />
    <path d="M 33.73019790649414 82.92190551757812 C 57.10932922363281 65.1623306274414 53.48657989501953 83.22225189208984 85.17958068847656 91.87393188476562" stroke-width="2.0" fill="none" stroke="rgb(0, 0, 0)" stroke-opacity="1.0" stroke-linecap="round" stroke-linejoin="round" data-orig-style="" style="display:none" />
    <path d="M 160.47801208496094 71.93353271484375 C 174.88555908203125 61.43360137939453 172.7742156982422 84.74686431884766 156.5005645751953 97.83326721191406" stroke-width="2.0" fill="none" stroke="rgb(0, 0, 0)" stroke-opacity="1.0" stroke-linecap="round" stroke-linejoin="round" data-orig-style="" style="display:none" />
    <path d="M 79.83668518066406 36.37403869628906 C 64.98785400390625 63.68971633911133 91.59288024902344 73.2934799194336 91.6384048461914 78.95266723632812" stroke-width="2.0" fill="none" stroke="rgb(0, 0, 0)" stroke-opacity="1.0" stroke-linecap="round" stroke-linejoin="round" data-orig-style="" style="display:none" />
    <path d="M 191.29373168945312 100.93167114257812 C 211.87088012695312 79.01097106933594 217.2318572998047 106.5496597290039 201.59950256347656 119.15817260742188" stroke-width="2.0" fill="none" stroke="rgb(0, 0, 0)" stroke-opacity="1.0" stroke-linecap="round" stroke-linejoin="round" data-orig-style="" style="display:none" />
    <path d="M 31.915430068969727 86.27833557128906 C 3.4263601303100586 88.65972137451172 8.574822425842285 121.65572357177734 24.08395004272461 139.38397216796875" stroke-width="2.0" fill="none" stroke="rgb(0, 0, 0)" stroke-opacity="1.0" stroke-linecap="round" stroke-linejoin="round" data-orig-style="" style="display:none" />
    <path d="M 80.19976806640625 35.928367614746094 C 64.74065399169922 61.23633575439453 88.08776092529297 72.45771789550781 92.45348358154297 78.6799087524414" stroke-width="2.0" fill="none" stroke="rgb(0, 0, 0)" stroke-opacity="1.0" stroke-linecap="round" stroke-linejoin="round" data-orig-style="" style="display:none" />
    <path d="M 75.31352996826172 151.5889129638672 C 70.8082046508789 172.35157775878906 82.43010711669922 195.151123046875 110.73490142822266 178.0321044921875" stroke-width="2.0" fill="none" stroke="rgb(0, 0, 0)" stroke-opacity="1.0" stroke-linecap="round" stroke-linejoin="round" />
    <path d="M 113.53125 42.45692443847656 C 121.49657440185547 48.940338134765625 129.49221801757812 56.747642517089844 125.36504364013672 66.893310546875" stroke-width="2.0" fill="none" stroke="rgb(0, 0, 0)" stroke-opacity="1.0" stroke-linecap="round" stroke-linejoin="round" data-orig-style="" style="display:none" />
    <path d="M 151.4184112548828 134.87557983398438 C 170.34202575683594 164.31321716308594 196.82981872558594 175.83956909179688 203.84254455566406 153.310791015625" stroke-width="2.0" fill="none" stroke="rgb(0, 0, 0)" stroke-opacity="1.0" stroke-linecap="round" stroke-linejoin="round" data-orig-style="" style="display:none" />
    <path d="M 141.02383422851562 84.77883911132812 C 149.56536865234375 99.025390625 156.9457244873047 104.80300903320312 167.18568420410156 95.5676498413086" stroke-width="2.0" fill="none" stroke="rgb(0, 0, 0)" stroke-opacity="1.0" stroke-linecap="round" stroke-linejoin="round" data-orig-style="" style="display:none" />
    <path d="M 125.39057159423828 53.985809326171875 C 125.83141326904297 55.21261978149414 127.48539733886719 66.82168579101562 112.00302124023438 71.3665771484375" stroke-width="2.0" fill="none" stroke="rgb(0, 0, 0)" stroke-opacity="1.0" stroke-linecap="round" stroke-linejoin="round" data-orig-style="" style="display:none" />
    <path d="M 155.84120178222656 78.06603240966797 C 163.14041137695312 64.88448333740234 184.83543395996094 65.51679992675781 171.52841186523438 84.13728332519531" stroke-width="2.0" fill="none" stroke="rgb(0, 0, 0)" stroke-opacity="1.0" stroke-linecap="round" stroke-linejoin="round" data-orig-style="" style="display:none" />
    <path d="M 107.82089233398438 105.15919494628906 C 96.058349609375 146.2458953857422 85.08554077148438 148.0862579345703 78.72076416015625 156.42807006835938" stroke-width="2.0" fill="none" stroke="rgb(0, 0, 0)" stroke-opacity="1.0" stroke-linecap="round" stroke-linejoin="round" data-orig-style="" style="display:none" />
    <path d="M 121.29869079589844 52.676326751708984 C 137.27670288085938 52.184791564941406 125.98539733886719 72.72661590576172 127.70698547363281 73.88214111328125" stroke-width="2.0" fill="none" stroke="rgb(0, 0, 0)" stroke-opacity="1.0" stroke-linecap="round" stroke-linejoin="round" data-orig-style="" style="display:none" />
    <path d="M 36.76361846923828 128.1457977294922 C 79.56632995605469 114.80506896972656 77.47431945800781 104.5 99.90935516357422 75.04241943359375" stroke-width="2.0" fill="none" stroke="rgb(0, 0, 0)" stroke-opacity="1.0" stroke-linecap="round" stroke-linejoin="round" data-orig-style="" style="display:none" />
    <path d="M 186.00955200195312 105.80619812011719 C 210.96969604492188 77.40776062011719 217.80934143066406 99.94908142089844 204.47637939453125 116.93785858154297" stroke-width="2.0" fill="none" stroke="rgb(0, 0, 0)" stroke-opacity="1.0" stroke-linecap="round" stroke-linejoin="round" data-orig-style="" style="display:none" />
    <path d="M 102.68400573730469 73.46156311035156 C 97.78193664550781 81.7969970703125 102.5973129272461 107.49407958984375 79.95842742919922 127.38105773925781" stroke-width="2.0" fill="none" stroke="rgb(0, 0, 0)" stroke-opacity="1.0" stroke-linecap="round" stroke-linejoin="round" data-orig-style="" style="display:none" />
    <path d="M 123.45660400390625 104.8066177368164 C 132.89920043945312 159.662353515625 111.79067993164062 188.51416015625 90.62388610839844 183.461181640625" stroke-width="2.0" fill="none" stroke="rgb(0, 0, 0)" stroke-opacity="1.0" stroke-linecap="round" stroke-linejoin="round" />
    <path d="M 120.27729034423828 96.52799987792969 C 133.6544952392578 148.65452575683594 115.47224426269531 188.18609619140625 91.91732025146484 183.51687622070312" stroke-width="2.0" fill="none" stroke="rgb(0, 0, 0)" stroke-opacity="1.0" stroke-linecap="round" stroke-linejoin="round" />
    <path d="M 24.915756225585938 146.5961456298828 C 43.53474807739258 147.36026000976562 66.33953094482422 149.7845458984375 88.73611450195312 116.23792266845703" stroke-width="2.0" fill="none" stroke="rgb(0, 0, 0)" stroke-opacity="1.0" stroke-linecap="round" stroke-linejoin="round" data-orig-style="" style="display:none" />
    <path d="M 127.94872283935547 66.569091796875 C 142.04544067382812 84.18641662597656 131.6846160888672 87.75872802734375 153.92591857910156 104.37499237060547" stroke-width="2.0" fill="none" stroke="rgb(0, 0, 0)" stroke-opacity="1.0" stroke-linecap="round" stroke-linejoin="round" data-orig-style="" style="display:none" />
    <path d="M 117.52073669433594 89.82019805908203 C 121.02947235107422 134.17259216308594 114.73626708984375 169.18148803710938 95.53206634521484 174.98703002929688" stroke-width="2.0" fill="none" stroke="rgb(0, 0, 0)" stroke-opacity="1.0" stroke-linecap="round" stroke-linejoin="round" />
    <path d="M 130.52748107910156 92.04899597167969 C 145.6028594970703 106.51533508300781 144.1966552734375 109.90377807617188 174.98379516601562 133.40325927734375" stroke-width="2.0" fill="none" stroke="rgb(0, 0, 0)" stroke-opacity="1.0" stroke-linecap="round" stroke-linejoin="round" data-orig-style="" style="display:none" />
    <path d="M 133.24131774902344 106.9985122680664 C 138.15347290039062 144.66043090820312 172.1949920654297 168.2059326171875 192.1623992919922 162.13824462890625" stroke-width="2.0" fill="none" stroke="rgb(0, 0, 0)" stroke-opacity="1.0" stroke-linecap="round" stroke-linejoin="round" data-orig-style="" style="display:none" />
    <path d="M 125.35724639892578 92.44549560546875 C 141.2711639404297 116.7420425415039 130.39956665039062 125.350341796875 153.61434936523438 145.77630615234375" stroke-width="2.0" fill="none" stroke="rgb(0, 0, 0)" stroke-opacity="1.0" stroke-linecap="round" stroke-linejoin="round" data-orig-style="" style="display:none" />
    <path d="M 124.54003143310547 87.89077758789062 C 127.56011962890625 104.5815658569336 128.6961212158203 105.97958374023438 124.01449584960938 142.53317260742188" stroke-width="2.0" fill="none" stroke="rgb(0, 0, 0)" stroke-opacity="1.0" stroke-linecap="round" stroke-linejoin="round" data-orig-style="" style="display:none" />
    <path d="M 108.135986328125 97.78549194335938 C 75.44538879394531 131.30340576171875 71.5419692993164 133.89358520507812 50.92713165283203 144.51708984375" stroke-width="2.0" fill="none" stroke="rgb(0, 0, 0)" stroke-opacity="1.0" stroke-linecap="round" stroke-linejoin="round" data-orig-style="" style="display:none" />
    <path d="M 124.68146514892578 91.46101379394531 C 128.95614624023438 120.46510314941406 128.82391357421875 156.9625244140625 111.1773452758789 174.1276397705078" stroke-width="2.0" fill="none" stroke="rgb(0, 0, 0)" stroke-opacity="1.0" stroke-linecap="round" stroke-linejoin="round" />
  </g>
</svg>