<?xml version='1.0' encoding='utf-8'?>
<svg xmlns="http://www.w3.org/2000/svg" version="1.1" width="224" height="224">
  <defs />
  <g>
    <path d="M 64.28675842285156 101.76459503173828 C 55.17814636230469 97.12750244140625 58.725868225097656 127.63672637939453 53.630821228027344 175.08128356933594" stroke-width="2.0" fill="none" stroke="rgb(0, 0, 0)" stroke-opacity="1.0" stroke-linecap="round" stroke-linejoin="round" />
    <path d="M 73.38311004638672 95.35706329345703 C 64.07726287841797 37.2702522277832 94.91128540039062 27.65184783935547 106.9092788696289 25.96966552734375" stroke-width="2.0" fill="none" stroke="rgb(0, 0, 0)" stroke-opacity="1.0" stroke-linecap="round" stroke-linejoin="round" data-orig-style="" style="display:none" />
    <path d="M 124.09827423095703 23.522581100463867 C 141.33734130859375 26.350208282470703 158.2405548095703 47.73645782470703 155.1988067626953 72.22663116455078" stroke-width="2.0" fill="none" stroke="rgb(0, 0, 0)" stroke-opacity="1.0" stroke-linecap="round" stroke-linejoin="round" data-orig-style="" style="display:none" />
    <path d="M 146.50408935546875 39.82383728027344 C 157.18634033203125 52.22397232055664 160.60572814941406 77.91780090332031 147.9030303955078 103.56949615478516" stroke-width="2.0" fill="none" stroke="rgb(0, 0, 0)" stroke-opacity="1.0" stroke-linecap="round" stroke-linejoin="round" data-orig-style="" style="display:none" />
    <path d="M 150.21307373046875 45.02429962158203 C 158.61526489257812 58.3337516784668 157.16738891601562 90.31652069091797 146.80972290039062 106.18397521972656" stroke-width="2.0" fill="none" stroke="rgb(0, 0, 0)" stroke-opacity="1.0" stroke-linecap="round" stroke-linejoin="round" data-orig-style="" style="display:none" />
    <path d="M 145.7908172607422 38.981781005859375 C 157.3466796875 52.237037658691406 160.49484252929688 75.56470489501953 148.0377960205078 103.59812927246094" stroke-width="2.0" fill="none" stroke="rgb(0, 0, 0)" stroke-opacity="1.0" stroke-linecap="round" stroke-linejoin="round" data-orig-style="" style="display:none" />
    <path d="M 55.9974365234375 185.46527099609375 C 70.762451171875 191.42828369140625 107.41143035888672 199.47293090820312 151.89654541015625 193.83827209472656" stroke-width="2.0" fill="none" stroke="rgb(0, 0, 0)" stroke-opacity="1.0" stroke-linecap="round" stroke-linejoin="round" data-orig-style="" style="display:none" />
    <path d="M 136.1015167236328 37.05066680908203 C 141.75027465820312 77.47130584716797 137.14724731445312 95.17060089111328 134.4437255859375 103.10929870605469" stroke-width="2.0" fill="none" stroke="rgb(0, 0, 0)" stroke-opacity="1.0" stroke-linecap="round" stroke-linejoin="round" data-orig-style="" style="display:none" />
    <path d="M 108.54686737060547 197.96914672851562 C 155.4683074951172 197.5674285888672 160.70108032226562 195.5494384765625 165.53628540039062 183.02000427246094" stroke-width="2.0" fill="none" stroke="rgb(0, 0, 0)" stroke-opacity="1.0" stroke-linecap="round" stroke-linejoin="round" data-orig-style="" style="display:none" />
    <path d="M 96.62686157226562 28.82677459716797 C 119.1514892578125 15.855362892150879 141.05722045898438 24.51016616821289 149.58255004882812 44.76436233520508" stroke-width="2.0" fill="none" stroke="rgb(0, 0, 0)" stroke-opacity="1.0" stroke-linecap="round" stroke-linejoin="round" data-orig-style="" style="display:none" />
    <path d="M 71.34931945800781 76.17111206054688 C 70.04512786865234 33.99531555175781 99.0447006225586 23.924152374267578 114.7866439819336 23.157752990722656" stroke-width="2.0" fill="none" stroke="rgb(0, 0, 0)" stroke-opacity="1.0" stroke-linecap="round" stroke-linejoin="round" data-orig-style="" style="display:none" />
    <path d="M 82.345703125 54.17497253417969 C 101.49075317382812 27.802091598510742 110.34867858886719 34.93742370605469 133.2908477783203 31.25218391418457" stroke-width="2.0" fill="none" stroke="rgb(0, 0, 0)" stroke-opacity="1.0" stroke-linecap="round" stroke-linejoin="round" data-orig-style="" style="display:none" />
    <path d="M 60.520423889160156 103.23152923583984 C 78.9339599609375 104.01773834228516 114.40980529785156 103.57083892822266 139.73497009277344 104.77316284179688" stroke-width="2.0" fill="none" stroke="rgb(0, 0, 0)" stroke-opacity="1.0" stroke-linecap="round" stroke-linejoin="round" data-orig-style="" style="display:none" />
    <path d="M 79.24737548828125 96.2066650390625 C 80.25801849365234 66.71784210205078 79.98929595947266 80.4958267211914 81.26036071777344 83.14141082763672" stroke-width="2.0" fill="none" stroke="rgb(0, 0, 0)" stroke-opacity="1.0" stroke-linecap="round" stroke-linejoin="round" data-orig-style="" style="display:none" />
    <path d="M 110.7783432006836 102.69519805908203 C 141.8369903564453 107.54955291748047 157.88116455078125 102.19085693359375 164.03738403320312 96.32374572753906" stroke-width="2.0" fill="none" stroke="rgb(0, 0, 0)" stroke-opacity="1.0" stroke-linecap="round" stroke-linejoin="round" data-orig-style="" style="display:none" />
    <path d="M 132.61312866210938 104.69123077392578 C 161.30715942382812 97.90914154052734 169.53817749023438 94.63264465332031 166.103515625 101.83181762695312" stroke-width="2.0" fill="none" stroke="rgb(0, 0, 0)" stroke-opacity="1.0" stroke-linecap="round" stroke-linejoin="round" data-orig-style="" style="display:none" />
    <path d="M 69.34402465820312 104.79570007324219 C 93.22211456298828 101.212646484375 126.47357177734375 106.168212890625 146.77761840820312 104.02837371826172" stroke-width="2.0" fill="none" stroke="rgb(0, 0, 0)" stroke-opacity="1.0" stroke-linecap="round" stroke-linejoin="round" data-orig-style="" style="display:none" />
    <path d="M 115.38835144042969 99.90966033935547 C 141.86944580078125 108.51586151123047 153.53173828125 102.14476013183594 162.9619903564453 96.56414794921875" stroke-width="2.0" fill="none" stroke="rgb(0, 0, 0)" stroke-opacity="1.0" stroke-linecap="round" stroke-linejoin="round" data-orig-style="" style="display:none" />
    <path d="M 101.04685974121094 31.91448211669922 C 141.70265197753906 32.64632797241211 136.78639221191406 41.44025421142578 145.2412109375 89.30519104003906" stroke-width="2.0" fill="none" stroke="rgb(0, 0, 0)" stroke-opacity="1.0" stroke-linecap="round" stroke-linejoin="round" data-orig-style="" style="display:none" />
    <path d="M 55.861785888671875 183.9285125732422 C 64.39948272705078 187.40560913085938 76.4898910522461 195.37525939941406 120.73404693603516 194.98243713378906" stroke-width="2.0" fill="none" stroke="rgb(0, 0, 0)" stroke-opacity="1.0" stroke-linecap="round" stroke-linejoin="round" data-orig-style="" style="display:none" />
    <path d="M 78.4956283569336 83.6575927734375 C 80.20040893554688 105.01309204101562 75.50503540039062 105.16561126708984 81.83784484863281 107.83733367919922" stroke-width="2.0" fill="none" stroke="rgb(0, 0, 0)" stroke-opacity="1.0" stroke-linecap="round" stroke-linejoin="round" data-orig-style="" style="display:none" />
    <path d="M 94.07566833496094 31.469451904296875 C 67.6822738647461 53.71082305908203 90.59515380859375 89.54205322265625 76.13865661621094 105.93601989746094" stroke-width="2.0" fill="none" stroke="rgb(0, 0, 0)" stroke-opacity="1.0" stroke-linecap="round" stroke-linejoin="round" data-orig-style="" style="display:none" />
    <path d="M 154.59120178222656 99.1773452758789 C 163.0469970703125 104.31525421142578 154.8212432861328 110.23817443847656 162.11074829101562 145.52200317382812" stroke-width="2.0" fill="none" stroke="rgb(0, 0, 0)" stroke-opacity="1.0" stroke-linecap="round" stroke-linejoin="round" data-orig-style="" style="display:none" />
    <path d="M 56.96735382080078 123.60665893554688 C 57.64396286010742 161.89273071289062 55.23472213745117 186.2305145263672 55.808815002441406 188.10516357421875" stroke-width="2.0" fill="none" stroke="rgb(0, 0, 0)" stroke-opacity="1.0" stroke-linecap="round" stroke-linejoin="round" />
    <path d="M 132.58912658691406 196.8455810546875 C 143.45811462402344 195.32876586914062 144.35592651367188 197.49888610839844 157.9831085205078 193.53466796875" stroke-width="2.0" fill="none" stroke="rgb(0, 0, 0)" stroke-opacity="1.0" stroke-linecap="round" stroke-linejoin="round" data-orig-style="" style="display:none" />
    <path d="M 60.537567138671875 117.77508544921875 C 61.99296569824219 137.3234100341797 59.793235778808594 152.41201782226562 57.358428955078125 179.45358276367188" stroke-width="2.0" fill="none" stroke="rgb(0, 0, 0)" stroke-opacity="1.0" stroke-linecap="round" stroke-linejoin="round" />
    <path d="M 163.78245544433594 101.70940399169922 C 167.94985961914062 106.16131591796875 167.46810913085938 134.00607299804688 168.8603973388672 156.02810668945312" stroke-width="2.0" fill="none" stroke="rgb(0, 0, 0)" stroke-opacity="1.0" stroke-linecap="round" stroke-linejoin="round" data-orig-style="" style="display:none" />
    <path d="M 167.0783233642578 132.77928161621094 C 167.8023681640625 154.7377166748047 167.42147827148438 173.6232147216797 166.5826873779297 188.57933044433594" stroke-width="2.0" fill="none" stroke="rgb(0, 0, 0)" stroke-opacity="1.0" stroke-linecap="round" stroke-linejoin="round" data-orig-style="" style="display:none" />
    <path d="M 161.2631378173828 112.25936889648438 C 161.5109405517578 155.65516662597656 160.6006622314453 159.10543823242188 159.79420471191406 178.35220336914062" stroke-width="2.0" fill="none" stroke="rgb(0, 0, 0)" stroke-opacity="1.0" stroke-linecap="round" stroke-linejoin="round" data-orig-style="" style="display:none" />
    <path d="M 152.22671508789062 145.010498046875 C 158.04356384277344 151.15953063964844 155.82606506347656 149.45558166503906 157.40318298339844 155.51776123046875" stroke-width="2.0" fill="none" stroke="rgb(0, 0, 0)" stroke-opacity="1.0" stroke-linecap="round" stroke-linejoin="round" data-orig-style="" style="display:none" />
    <path d="M 81.0542221069336 144.26141357421875 C 101.19131469726562 151.7711639404297 102.48583984375 156.85281372070312 130.6249237060547 151.87318420410156" stroke-width="2.0" fill="none" stroke="rgb(0, 0, 0)" stroke-opacity="1.0" stroke-linecap="round" stroke-linejoin="round" data-orig-style="" style="display:none" />
    <path d="M 87.57303619384766 149.53363037109375 C 106.26593780517578 150.40231323242188 147.1906280517578 154.36953735351562 154.89407348632812 147.7235107421875" stroke-width="2.0" fill="none" stroke="rgb(0, 0, 0)" stroke-opacity="1.0" stroke-linecap="round" stroke-linejoin="round" data-orig-style="" style="display:none" />
  </g>
</svg>