<?xml version='1.0' encoding='utf-8'?>
<svg xmlns="http://www.w3.org/2000/svg" version="1.1" width="224" height="224">
  <defs />
  <g>
    <path d="M 73.02813720703125 176.06381225585938 C 52.465213775634766 194.4456787109375 75.45648193359375 199.14593505859375 99.85908508300781 194.0936737060547" stroke-width="2.0" fill="none" stroke="rgb(0, 0, 0)" stroke-opacity="1.0" stroke-linecap="round" stroke-linejoin="round" data-orig-style="" style="display:none" />
    <path d="M 66.36676025390625 79.04864501953125 C 50.746395111083984 118.24656677246094 64.56261444091797 147.21185302734375 71.06866455078125 176.56704711914062" stroke-width="2.0" fill="none" stroke="rgb(0, 0, 0)" stroke-opacity="1.0" stroke-linecap="round" stroke-linejoin="round" data-orig-style="" style="display:none" />
    <path d="M 177.48629760742188 61.63745880126953 C 193.5780029296875 72.20085144042969 202.91183471679688 88.10157012939453 203.66488647460938 112.04249572753906" stroke-width="2.0" fill="none" stroke="rgb(0, 0, 0)" stroke-opacity="1.0" stroke-linecap="round" stroke-linejoin="round" data-orig-style="" style="display:none" />
    <path d="M 76.34339904785156 47.70627212524414 C 91.28105163574219 22.804054260253906 120.74244689941406 28.438682556152344 130.86434936523438 31.606477737426758" stroke-width="2.0" fill="none" stroke="rgb(0, 0, 0)" stroke-opacity="1.0" stroke-linecap="round" stroke-linejoin="round" data-orig-style="" style="display:none" />
    <path d="M 154.99485778808594 51.54779052734375 C 171.86949157714844 53.71961975097656 186.67999267578125 63.863983154296875 197.36924743652344 81.8841781616211" stroke-width="2.0" fill="none" stroke="rgb(0, 0, 0)" stroke-opacity="1.0" stroke-linecap="round" stroke-linejoin="round" data-orig-style="" style="display:none" />
    <path d="M 126.05760192871094 26.802629470825195 C 135.534912109375 9.871667861938477 170.05490112304688 28.667625427246094 145.71853637695312 45.66438293457031" stroke-width="2.0" fill="none" stroke="rgb(0, 0, 0)" stroke-opacity="1.0" stroke-linecap="round" stroke-linejoin="round" data-orig-style="" style="display:none" />
    <path d="M 76.10860443115234 47.3912239074707 C 52.46427917480469 26.178796768188477 98.45645141601562 8.418597221374512 96.08624267578125 32.16524887084961" stroke-width="2.0" fill="none" stroke="rgb(0, 0, 0)" stroke-opacity="1.0" stroke-linecap="round" stroke-linejoin="round" data-orig-style="" style="display:none" />
    <path d="M 124.35009765625 157.6466522216797 C 114.66294860839844 202.01705932617188 87.76795196533203 202.8701171875 144.57098388671875 199.8092498779297" stroke-width="2.0" fill="none" stroke="rgb(0, 0, 0)" stroke-opacity="1.0" stroke-linecap="round" stroke-linejoin="round" data-orig-style="" style="display:none" />
    <path d="M 201.96128845214844 114.00477600097656 C 203.5391082763672 126.30760192871094 207.14703369140625 167.2469024658203 196.01327514648438 179.43121337890625" stroke-width="2.0" fill="none" stroke="rgb(0, 0, 0)" stroke-opacity="1.0" stroke-linecap="round" stroke-linejoin="round" data-orig-style="" style="display:none" />
    <path d="M 126.72509002685547 25.991689682006836 C 136.45086669921875 10.58054256439209 169.16046142578125 28.675804138183594 146.2871856689453 45.568519592285156" stroke-width="2.0" fill="none" stroke="rgb(0, 0, 0)" stroke-opacity="1.0" stroke-linecap="round" stroke-linejoin="round" data-orig-style="" style="display:none" />
    <path d="M 122.75264739990234 30.85268211364746 C 129.29669189453125 11.373117446899414 160.88482666015625 18.468647003173828 150.50091552734375 38.555076599121094" stroke-width="2.0" fill="none" stroke="rgb(0, 0, 0)" stroke-opacity="1.0" stroke-linecap="round" stroke-linejoin="round" data-orig-style="" style="display:none" />
    <path d="M 84.29875946044922 60.83842086791992 C 95.34587860107422 55.298641204833984 94.82610321044922 70.47917938232422 93.03707885742188 68.57901763916016" stroke-width="2.0" fill="none" stroke="rgb(0, 0, 0)" stroke-opacity="1.0" stroke-linecap="round" stroke-linejoin="round" data-orig-style="" style="display:none" />
    <path d="M 85.20133972167969 39.26099395751953 C 57.667076110839844 72.00636291503906 74.0269775390625 99.85693359375 86.0390853881836 105.71720886230469" stroke-width="2.0" fill="none" stroke="rgb(0, 0, 0)" stroke-opacity="1.0" stroke-linecap="round" stroke-linejoin="round" data-orig-style="" style="display:none" />
    <path d="M 73.33724975585938 64.82728576660156 C 61.42855453491211 97.47540283203125 92.0957260131836 112.70630645751953 102.69721984863281 111.93852996826172" stroke-width="2.0" fill="none" stroke="rgb(0, 0, 0)" stroke-opacity="1.0" stroke-linecap="round" stroke-linejoin="round" data-orig-style="" style="display:none" />
    <path d="M 100.969970703125 31.223491668701172 C 138.67208862304688 26.896596908569336 146.2484588623047 43.74624252319336 154.00108337402344 53.366188049316406" stroke-width="2.0" fill="none" stroke="rgb(0, 0, 0)" stroke-opacity="1.0" stroke-linecap="round" stroke-linejoin="round" data-orig-style="" style="display:none" />
    <path d="M 127.6552963256836 32.58771514892578 C 150.93600463867188 40.37862777709961 158.11341857910156 62.71653747558594 154.63841247558594 79.88388061523438" stroke-width="2.0" fill="none" stroke="rgb(0, 0, 0)" stroke-opacity="1.0" stroke-linecap="round" stroke-linejoin="round" data-orig-style="" style="display:none" />
    <path d="M 101.29706573486328 81.56626892089844 C 113.2799072265625 86.39444732666016 103.24455261230469 94.80155944824219 119.45706176757812 94.70506286621094" stroke-width="2.0" fill="none" stroke="rgb(0, 0, 0)" stroke-opacity="1.0" stroke-linecap="round" stroke-linejoin="round" data-orig-style="" style="display:none" />
    <path d="M 114.77354431152344 64.11221313476562 C 122.49038696289062 64.1798095703125 118.78970336914062 69.71955871582031 125.23847198486328 68.91301727294922" stroke-width="2.0" fill="none" stroke="rgb(0, 0, 0)" stroke-opacity="1.0" stroke-linecap="round" stroke-linejoin="round" data-orig-style="" style="display:none" />
    <path d="M 109.91090393066406 64.27359008789062 C 120.11994934082031 62.01383590698242 118.31365966796875 68.8819351196289 122.81854248046875 68.37062072753906" stroke-width="2.0" fill="none" stroke="rgb(0, 0, 0)" stroke-opacity="1.0" stroke-linecap="round" stroke-linejoin="round" data-orig-style="" style="display:none" />
    <path d="M 86.86910247802734 60.28620529174805 C 97.62413787841797 57.08552551269531 96.75 68.47721862792969 96.23492431640625 68.5379867553711" stroke-width="2.0" fill="none" stroke="rgb(0, 0, 0)" stroke-opacity="1.0" stroke-linecap="round" stroke-linejoin="round" data-orig-style="" style="display:none" />
    <path d="M 105.71778106689453 90.6356430053711 C 115.25346374511719 96.79180908203125 106.01913452148438 106.95002746582031 121.26593780517578 105.23963928222656" stroke-width="2.0" fill="none" stroke="rgb(0, 0, 0)" stroke-opacity="1.0" stroke-linecap="round" stroke-linejoin="round" data-orig-style="" style="display:none" />
    <path d="M 88.45468139648438 60.796653747558594 C 99.99969482421875 57.62950134277344 97.94074249267578 68.41566467285156 98.88517761230469 68.46873474121094" stroke-width="2.0" fill="none" stroke="rgb(0, 0, 0)" stroke-opacity="1.0" stroke-linecap="round" stroke-linejoin="round" data-orig-style="" style="display:none" />
    <path d="M 152.8538360595703 75.54029846191406 C 153.57217407226562 102.84029388427734 128.41580200195312 108.6112289428711 120.35882568359375 113.66896057128906" stroke-width="2.0" fill="none" stroke="rgb(0, 0, 0)" stroke-opacity="1.0" stroke-linecap="round" stroke-linejoin="round" data-orig-style="" style="display:none" />
    <path d="M 95.38964080810547 121.37715911865234 C 114.8379135131836 141.4848175048828 104.0846939086914 134.37680053710938 107.2996597290039 155.61473083496094" stroke-width="2.0" fill="none" stroke="rgb(0, 0, 0)" stroke-opacity="1.0" stroke-linecap="round" stroke-linejoin="round" data-orig-style="" style="display:none" />
    <path d="M 74.3853988647461 86.00272369384766 C 75.93325805664062 111.6004638671875 115.00508880615234 125.95690155029297 133.7953643798828 100.40796661376953" stroke-width="2.0" fill="none" stroke="rgb(0, 0, 0)" stroke-opacity="1.0" stroke-linecap="round" stroke-linejoin="round" data-orig-style="" style="display:none" />
    <path d="M 142.2246856689453 42.79176712036133 C 162.39630126953125 65.38666534423828 153.1212158203125 93.20135498046875 134.86508178710938 102.23845672607422" stroke-width="2.0" fill="none" stroke="rgb(0, 0, 0)" stroke-opacity="1.0" stroke-linecap="round" stroke-linejoin="round" data-orig-style="" style="display:none" />
    <path d="M 150.24691772460938 50.09117126464844 C 164.3046875 75.31996154785156 150.3748779296875 89.0233154296875 149.02084350585938 90.4949951171875" stroke-width="2.0" fill="none" stroke="rgb(0, 0, 0)" stroke-opacity="1.0" stroke-linecap="round" stroke-linejoin="round" data-orig-style="" style="display:none" />
    <path d="M 193.60252380371094 79.4854507446289 C 202.7177734375 91.13501739501953 203.56004333496094 107.8886947631836 202.9742431640625 129.52618408203125" stroke-width="2.0" fill="none" stroke="rgb(0, 0, 0)" stroke-opacity="1.0" stroke-linecap="round" stroke-linejoin="round" data-orig-style="" style="display:none" />
    <path d="M 195.51353454589844 83.12084197998047 C 203.33831787109375 95.36231994628906 203.9456024169922 114.32969665527344 203.19476318359375 141.9497528076172" stroke-width="2.0" fill="none" stroke="rgb(0, 0, 0)" stroke-opacity="1.0" stroke-linecap="round" stroke-linejoin="round" data-orig-style="" style="display:none" />
    <path d="M 201.982666015625 113.65274810791016 C 203.28311157226562 125.36712646484375 207.42578125 163.77073669433594 197.0737762451172 178.32981872558594" stroke-width="2.0" fill="none" stroke="rgb(0, 0, 0)" stroke-opacity="1.0" stroke-linecap="round" stroke-linejoin="round" data-orig-style="" style="display:none" />
    <path d="M 161.62989807128906 182.3357696533203 C 175.2611083984375 175.0805206298828 181.74935913085938 186.21633911132812 197.2138671875 177.3415985107422" stroke-width="2.0" fill="none" stroke="rgb(0, 0, 0)" stroke-opacity="1.0" stroke-linecap="round" stroke-linejoin="round" />
    <path d="M 111.7157211303711 136.9394073486328 C 125.33997344970703 160.94723510742188 126.59937286376953 168.42044067382812 110.60662841796875 193.39219665527344" stroke-width="2.0" fill="none" stroke="rgb(0, 0, 0)" stroke-opacity="1.0" stroke-linecap="round" stroke-linejoin="round" data-orig-style="" style="display:none" />
  </g>
</svg>