<?xml version='1.0' encoding='utf-8'?>
<svg xmlns="http://www.w3.org/2000/svg" version="1.1" width="224" height="224">
  <defs />
  <g>
    <path d="M 85.92102813720703 182.4591827392578 C 91.86763000488281 187.6234588623047 115.53838348388672 191.56324768066406 140.0954132080078 186.59713745117188" stroke-width="2.0" fill="none" stroke="rgb(0, 0, 0)" stroke-opacity="1.0" stroke-linecap="round" stroke-linejoin="round" data-orig-style="" style="display:none" />
    <path d="M 97.50115203857422 49.36095428466797 C 95.5035171508789 19.628753662109375 107.1947021484375 30.00802993774414 110.30414581298828 37.19858169555664" stroke-width="2.0" fill="none" stroke="rgb(0, 0, 0)" stroke-opacity="1.0" stroke-linecap="round" stroke-linejoin="round" data-orig-style="" style="display:none" />
    <path d="M 64.87675476074219 83.85318756103516 C 77.55047607421875 52.912845611572266 79.68701934814453 57.94557189941406 87.75019073486328 46.35454559326172" stroke-width="2.0" fill="none" stroke="rgb(0, 0, 0)" stroke-opacity="1.0" stroke-linecap="round" stroke-linejoin="round" data-orig-style="" style="display:none" />
    <path d="M 119.74285888671875 44.88517379760742 C 137.3658905029297 34.06584548950195 134.5668487548828 43.688331604003906 132.69281005859375 54.964317321777344" stroke-width="2.0" fill="none" stroke="rgb(0, 0, 0)" stroke-opacity="1.0" stroke-linecap="round" stroke-linejoin="round" data-orig-style="" style="display:none" />
    <path d="M 118.35137176513672 66.24842834472656 C 148.9803924560547 57.334251403808594 136.74880981445312 66.63156127929688 149.67013549804688 73.94508361816406" stroke-width="2.0" fill="none" stroke="rgb(0, 0, 0)" stroke-opacity="1.0" stroke-linecap="round" stroke-linejoin="round" data-orig-style="" style="display:none" />
    <path d="M 166.29092407226562 164.37501525878906 C 158.191650390625 174.4727020263672 145.6666259765625 188.29141235351562 128.17196655273438 188.87893676757812" stroke-width="2.0" fill="none" stroke="rgb(0, 0, 0)" stroke-opacity="1.0" stroke-linecap="round" stroke-linejoin="round" data-orig-style="" style="display:none" />
    <path d="M 97.33837890625 50.26778030395508 C 95.69366455078125 19.504558563232422 105.46904754638672 29.555461883544922 109.58616638183594 37.317665100097656" stroke-width="2.0" fill="none" stroke="rgb(0, 0, 0)" stroke-opacity="1.0" stroke-linecap="round" stroke-linejoin="round" data-orig-style="" style="display:none" />
    <path d="M 146.23568725585938 128.48876953125 C 176.3457489013672 130.01693725585938 166.190185546875 134.7738800048828 163.6204376220703 139.13046264648438" stroke-width="2.0" fill="none" stroke="rgb(0, 0, 0)" stroke-opacity="1.0" stroke-linecap="round" stroke-linejoin="round" />
    <path d="M 123.74061584472656 106.16204833984375 C 162.6854248046875 92.6304931640625 164.77891540527344 94.68749237060547 163.24520874023438 98.67362976074219" stroke-width="2.0" fill="none" stroke="rgb(0, 0, 0)" stroke-opacity="1.0" stroke-linecap="round" stroke-linejoin="round" data-orig-style="" style="display:none" />
    <path d="M 57.35179138183594 103.87567138671875 C 84.21870422363281 70.00923919677734 64.19937133789062 102.1121597290039 102.02197265625 83.52896881103516" stroke-width="2.0" fill="none" stroke="rgb(0, 0, 0)" stroke-opacity="1.0" stroke-linecap="round" stroke-linejoin="round" data-orig-style="" style="display:none" />
    <path d="M 51.698486328125 131.15841674804688 C 58.70121765136719 88.24244689941406 62.89979553222656 109.29329681396484 76.1800308227539 95.99378967285156" stroke-width="2.0" fill="none" stroke="rgb(0, 0, 0)" stroke-opacity="1.0" stroke-linecap="round" stroke-linejoin="round" data-orig-style="" style="display:none" />
    <path d="M 111.00700378417969 48.608795166015625 C 131.76914978027344 36.92420196533203 115.16598510742188 49.04658508300781 131.465087890625 47.34625244140625" stroke-width="2.0" fill="none" stroke="rgb(0, 0, 0)" stroke-opacity="1.0" stroke-linecap="round" stroke-linejoin="round" data-orig-style="" style="display:none" />
    <path d="M 118.34959411621094 75.23097229003906 C 148.7969970703125 60.5325927734375 146.86654663085938 70.25930786132812 151.50836181640625 76.21881866455078" stroke-width="2.0" fill="none" stroke="rgb(0, 0, 0)" stroke-opacity="1.0" stroke-linecap="round" stroke-linejoin="round" data-orig-style="" style="display:none" />
    <path d="M 122.64796447753906 89.576904296875 C 151.2003173828125 71.9390869140625 161.2244110107422 79.4179916381836 156.96566772460938 83.47123718261719" stroke-width="2.0" fill="none" stroke="rgb(0, 0, 0)" stroke-opacity="1.0" stroke-linecap="round" stroke-linejoin="round" data-orig-style="" style="display:none" />
    <path d="M 78.23246765136719 58.00819778442383 C 105.72563934326172 74.98827362060547 80.5951156616211 70.75642395019531 102.03230285644531 88.06559753417969" stroke-width="2.0" fill="none" stroke="rgb(0, 0, 0)" stroke-opacity="1.0" stroke-linecap="round" stroke-linejoin="round" data-orig-style="" style="display:none" />
    <path d="M 126.97846984863281 117.56633758544922 C 177.91397094726562 104.82099914550781 170.44976806640625 109.6756591796875 163.75509643554688 126.38883209228516" stroke-width="2.0" fill="none" stroke="rgb(0, 0, 0)" stroke-opacity="1.0" stroke-linecap="round" stroke-linejoin="round" />
    <path d="M 98.05824279785156 73.06897735595703 C 130.12030029296875 78.6190185546875 110.98793029785156 93.57630157470703 156.01776123046875 92.57907104492188" stroke-width="2.0" fill="none" stroke="rgb(0, 0, 0)" stroke-opacity="1.0" stroke-linecap="round" stroke-linejoin="round" data-orig-style="" style="display:none" />
    <path d="M 154.81910705566406 144.40928649902344 C 177.57818603515625 144.94158935546875 176.45132446289062 154.3251190185547 161.37506103515625 167.9734344482422" stroke-width="2.0" fill="none" stroke="rgb(0, 0, 0)" stroke-opacity="1.0" stroke-linecap="round" stroke-linejoin="round" data-orig-style="" style="display:none" />
    <path d="M 129.0349578857422 157.845458984375 C 140.6232452392578 167.7841339111328 145.5440216064453 173.9256134033203 163.0917510986328 160.239990234375" stroke-width="2.0" fill="none" stroke="rgb(0, 0, 0)" stroke-opacity="1.0" stroke-linecap="round" stroke-linejoin="round" data-orig-style="" style="display:none" />
    <path d="M 94.37355041503906 45.7304801940918 C 115.30821990966797 64.09574890136719 93.3130874633789 59.99135971069336 111.99385070800781 72.68597412109375" stroke-width="2.0" fill="none" stroke="rgb(0, 0, 0)" stroke-opacity="1.0" stroke-linecap="round" stroke-linejoin="round" data-orig-style="" style="display:none" />
    <path d="M 125.67354583740234 140.6823272705078 C 154.0198516845703 144.69943237304688 136.53990173339844 156.8193359375 162.69227600097656 152.85247802734375" stroke-width="2.0" fill="none" stroke="rgb(0, 0, 0)" stroke-opacity="1.0" stroke-linecap="round" stroke-linejoin="round" />
    <path d="M 52.38017272949219 145.26055908203125 C 66.82493591308594 133.63177490234375 51.11407470703125 141.32376098632812 74.75395965576172 145.8827362060547" stroke-width="2.0" fill="none" stroke="rgb(0, 0, 0)" stroke-opacity="1.0" stroke-linecap="round" stroke-linejoin="round" data-orig-style="" style="display:none" />
    <path d="M 136.71533203125 135.66021728515625 C 174.17202758789062 137.2237548828125 163.64724731445312 140.5670623779297 168.55247497558594 140.39393615722656" stroke-width="2.0" fill="none" stroke="rgb(0, 0, 0)" stroke-opacity="1.0" stroke-linecap="round" stroke-linejoin="round" />
    <path d="M 92.38082122802734 103.64584350585938 C 128.9744110107422 80.29449462890625 108.33568572998047 103.688720703125 144.7777862548828 84.92710876464844" stroke-width="2.0" fill="none" stroke="rgb(0, 0, 0)" stroke-opacity="1.0" stroke-linecap="round" stroke-linejoin="round" data-orig-style="" style="display:none" />
    <path d="M 55.62147521972656 123.27822875976562 C 105.28014373779297 94.96939086914062 70.43798065185547 125.12773895263672 114.31476593017578 102.77931213378906" stroke-width="2.0" fill="none" stroke="rgb(0, 0, 0)" stroke-opacity="1.0" stroke-linecap="round" stroke-linejoin="round" data-orig-style="" style="display:none" />
    <path d="M 85.84690856933594 166.45523071289062 C 119.94628143310547 138.9194793701172 108.2910385131836 163.5063018798828 132.14471435546875 135.96566772460938" stroke-width="2.0" fill="none" stroke="rgb(0, 0, 0)" stroke-opacity="1.0" stroke-linecap="round" stroke-linejoin="round" data-orig-style="" style="display:none" />
    <path d="M 86.08150482177734 135.12875366210938 C 119.3548583984375 108.29308319091797 100.23966979980469 134.540283203125 136.33599853515625 108.96147155761719" stroke-width="2.0" fill="none" stroke="rgb(0, 0, 0)" stroke-opacity="1.0" stroke-linecap="round" stroke-linejoin="round" />
    <path d="M 64.28752136230469 153.53704833984375 C 84.73332214355469 152.99411010742188 70.02897644042969 177.36679077148438 105.47233581542969 175.24977111816406" stroke-width="2.0" fill="none" stroke="rgb(0, 0, 0)" stroke-opacity="1.0" stroke-linecap="round" stroke-linejoin="round" data-orig-style="" style="display:none" />
    <path d="M 59.76856231689453 153.31382751464844 C 72.15299987792969 165.3844451904297 74.26409149169922 186.70611572265625 109.41561889648438 184.31991577148438" stroke-width="2.0" fill="none" stroke="rgb(0, 0, 0)" stroke-opacity="1.0" stroke-linecap="round" stroke-linejoin="round" data-orig-style="" style="display:none" />
    <path d="M 93.22332763671875 168.43133544921875 C 117.3102798461914 156.6160888671875 101.22264099121094 173.68521118164062 124.92854309082031 154.65878295898438" stroke-width="2.0" fill="none" stroke="rgb(0, 0, 0)" stroke-opacity="1.0" stroke-linecap="round" stroke-linejoin="round" data-orig-style="" style="display:none" />
    <path d="M 118.712158203125 186.53440856933594 C 131.3384552001953 188.4766845703125 151.7008514404297 184.91751098632812 164.17237854003906 167.33853149414062" stroke-width="2.0" fill="none" stroke="rgb(0, 0, 0)" stroke-opacity="1.0" stroke-linecap="round" stroke-linejoin="round" data-orig-style="" style="display:none" />
    <path d="M 108.98454284667969 138.38885498046875 C 160.47784423828125 104.77536010742188 135.5910186767578 136.0324249267578 166.2779998779297 111.9532241821289" stroke-width="2.0" fill="none" stroke="rgb(0, 0, 0)" stroke-opacity="1.0" stroke-linecap="round" stroke-linejoin="round" />
  </g>
</svg>