<?xml version='1.0' encoding='utf-8'?>
<svg xmlns="http://www.w3.org/2000/svg" version="1.1" width="224" height="224">
  <defs />
  <g>
    <path d="M 4.215770721435547 211.19058227539062 C 57.85725784301758 209.00633239746094 141.8470458984375 207.97274780273438 186.987060546875 205.28651428222656" stroke-width="2.0" fill="none" stroke="rgb(0, 0, 0)" stroke-opacity="1.0" stroke-linecap="round" stroke-linejoin="round" data-orig-style="" style="display:none" />
    <path d="M 73.14722442626953 204.01968383789062 C 163.82904052734375 204.37088012695312 182.83480834960938 202.57838439941406 208.8282470703125 203.57028198242188" stroke-width="2.0" fill="none" stroke="rgb(0, 0, 0)" stroke-opacity="1.0" stroke-linecap="round" stroke-linejoin="round" data-orig-style="" style="display:none" />
    <path d="M 146.04823303222656 77.35792541503906 C 170.05099487304688 87.75430297851562 166.32818603515625 92.44319152832031 179.9280242919922 106.6529541015625" stroke-width="2.0" fill="none" stroke="rgb(0, 0, 0)" stroke-opacity="1.0" stroke-linecap="round" stroke-linejoin="round" data-orig-style="" style="display:none" />
    <path d="M 21.070682525634766 135.70181274414062 C 5.67873477935791 162.93809509277344 2.3694000244140625 162.51797485351562 1.0347766876220703 193.920166015625" stroke-width="2.0" fill="none" stroke="rgb(0, 0, 0)" stroke-opacity="1.0" stroke-linecap="round" stroke-linejoin="round" data-orig-style="" style="display:none" />
    <path d="M 24.871156692504883 134.3289794921875 C 48.57905578613281 105.42562866210938 51.07817077636719 102.0672378540039 70.60095977783203 86.81261444091797" stroke-width="2.0" fill="none" stroke="rgb(0, 0, 0)" stroke-opacity="1.0" stroke-linecap="round" stroke-linejoin="round" data-orig-style="" style="display:none" />
    <path d="M 47.47557067871094 104.33789825439453 C 63.78764724731445 81.41144561767578 73.68558502197266 85.01582336425781 93.14046478271484 69.63050842285156" stroke-width="2.0" fill="none" stroke="rgb(0, 0, 0)" stroke-opacity="1.0" stroke-linecap="round" stroke-linejoin="round" data-orig-style="" style="display:none" />
    <path d="M 116.15322875976562 43.04999542236328 C 125.6783218383789 51.830238342285156 133.76763916015625 56.455204010009766 145.65097045898438 74.9778060913086" stroke-width="2.0" fill="none" stroke="rgb(0, 0, 0)" stroke-opacity="1.0" stroke-linecap="round" stroke-linejoin="round" data-orig-style="" style="display:none" />
    <path d="M 140.15512084960938 74.49920654296875 C 167.7979278564453 87.59334564208984 162.7915802001953 83.33549499511719 176.8949737548828 102.78965759277344" stroke-width="2.0" fill="none" stroke="rgb(0, 0, 0)" stroke-opacity="1.0" stroke-linecap="round" stroke-linejoin="round" data-orig-style="" style="display:none" />
    <path d="M 168.78671264648438 94.06940460205078 C 183.5258026123047 112.12222290039062 194.09445190429688 120.02676391601562 210.26171875 133.33164978027344" stroke-width="2.0" fill="none" stroke="rgb(0, 0, 0)" stroke-opacity="1.0" stroke-linecap="round" stroke-linejoin="round" data-orig-style="" style="display:none" />
    <path d="M 106.989013671875 47.275394439697266 C 121.45980072021484 38.28313446044922 116.64631652832031 44.378292083740234 136.29454040527344 64.35806274414062" stroke-width="2.0" fill="none" stroke="rgb(0, 0, 0)" stroke-opacity="1.0" stroke-linecap="round" stroke-linejoin="round" />
    <path d="M 83.6312026977539 72.37904357910156 C 98.53579711914062 50.54350662231445 99.05255126953125 52.51539611816406 112.26558685302734 44.13763427734375" stroke-width="2.0" fill="none" stroke="rgb(0, 0, 0)" stroke-opacity="1.0" stroke-linecap="round" stroke-linejoin="round" />
    <path d="M 84.03821563720703 70.01915740966797 C 97.74222564697266 51.5986328125 100.115966796875 51.52730178833008 113.04358673095703 43.10734176635742" stroke-width="2.0" fill="none" stroke="rgb(0, 0, 0)" stroke-opacity="1.0" stroke-linecap="round" stroke-linejoin="round" />
    <path d="M 23.002328872680664 163.943603515625 C 55.4921989440918 157.23080444335938 98.9329833984375 157.94786071777344 131.97085571289062 152.1084442138672" stroke-width="2.0" fill="none" stroke="rgb(0, 0, 0)" stroke-opacity="1.0" stroke-linecap="round" stroke-linejoin="round" data-orig-style="" style="display:none" />
    <path d="M 13.344551086425781 167.00692749023438 C 33.63325500488281 160.3971710205078 85.33837890625 160.175048828125 120.92401123046875 157.2928924560547" stroke-width="2.0" fill="none" stroke="rgb(0, 0, 0)" stroke-opacity="1.0" stroke-linecap="round" stroke-linejoin="round" data-orig-style="" style="display:none" />
    <path d="M 124.09043884277344 81.62997436523438 C 153.56005859375 78.38008117675781 153.93658447265625 81.03643798828125 162.86648559570312 85.02452087402344" stroke-width="2.0" fill="none" stroke="rgb(0, 0, 0)" stroke-opacity="1.0" stroke-linecap="round" stroke-linejoin="round" data-orig-style="" style="display:none" />
    <path d="M 2.188995361328125 174.1195068359375 C 44.379119873046875 174.038818359375 39.940284729003906 177.75442504882812 72.27566528320312 180.09056091308594" stroke-width="2.0" fill="none" stroke="rgb(0, 0, 0)" stroke-opacity="1.0" stroke-linecap="round" stroke-linejoin="round" data-orig-style="" style="display:none" />
    <path d="M 180.95518493652344 155.31643676757812 C 186.4945526123047 172.11334228515625 172.41622924804688 177.59268188476562 191.60247802734375 180.802978515625" stroke-width="2.0" fill="none" stroke="rgb(0, 0, 0)" stroke-opacity="1.0" stroke-linecap="round" stroke-linejoin="round" data-orig-style="" style="display:none" />
    <path d="M 131.8392791748047 66.89044952392578 C 152.32107543945312 85.1399917602539 156.39892578125 77.01150512695312 164.74948120117188 86.62728118896484" stroke-width="2.0" fill="none" stroke="rgb(0, 0, 0)" stroke-opacity="1.0" stroke-linecap="round" stroke-linejoin="round" data-orig-style="" style="display:none" />
    <path d="M 117.47854614257812 45.456329345703125 C 136.9645233154297 60.67234802246094 136.32196044921875 63.004940032958984 145.56039428710938 76.71815490722656" stroke-width="2.0" fill="none" stroke="rgb(0, 0, 0)" stroke-opacity="1.0" stroke-linecap="round" stroke-linejoin="round" data-orig-style="" style="display:none" />
    <path d="M 218.08526611328125 144.20643615722656 C 221.33590698242188 151.24229431152344 218.1287384033203 143.87722778320312 220.098876953125 183.0216827392578" stroke-width="2.0" fill="none" stroke="rgb(0, 0, 0)" stroke-opacity="1.0" stroke-linecap="round" stroke-linejoin="round" data-orig-style="" style="display:none" />
    <path d="M 117.28340148925781 76.23665618896484 C 134.9041748046875 81.61416625976562 125.4345932006836 83.9831771850586 138.90774536132812 86.74606323242188" stroke-width="2.0" fill="none" stroke="rgb(0, 0, 0)" stroke-opacity="1.0" stroke-linecap="round" stroke-linejoin="round" data-orig-style="" style="display:none" />
    <path d="M 193.04513549804688 166.0625762939453 C 215.83389282226562 158.7532501220703 213.508544921875 160.16586303710938 219.85838317871094 162.6376953125" stroke-width="2.0" fill="none" stroke="rgb(0, 0, 0)" stroke-opacity="1.0" stroke-linecap="round" stroke-linejoin="round" data-orig-style="" style="display:none" />
    <path d="M 186.9117431640625 113.4665756225586 C 201.24166870117188 125.62991333007812 207.2923126220703 133.1749725341797 217.4628448486328 141.51473999023438" stroke-width="2.0" fill="none" stroke="rgb(0, 0, 0)" stroke-opacity="1.0" stroke-linecap="round" stroke-linejoin="round" data-orig-style="" style="display:none" />
    <path d="M 187.962890625 144.46519470214844 C 186.31724548339844 159.86697387695312 182.45213317871094 171.20523071289062 175.6084747314453 184.14125061035156" stroke-width="2.0" fill="none" stroke="rgb(0, 0, 0)" stroke-opacity="1.0" stroke-linecap="round" stroke-linejoin="round" data-orig-style="" style="display:none" />
    <path d="M 111.96829986572266 179.68553161621094 C 150.2957000732422 188.43682861328125 155.6971893310547 189.74986267089844 185.09793090820312 178.32794189453125" stroke-width="2.0" fill="none" stroke="rgb(0, 0, 0)" stroke-opacity="1.0" stroke-linecap="round" stroke-linejoin="round" data-orig-style="" style="display:none" />
    <path d="M 136.69229125976562 146.2247772216797 C 161.7969207763672 149.2646026611328 158.72830200195312 152.1309814453125 171.10203552246094 151.37484741210938" stroke-width="2.0" fill="none" stroke="rgb(0, 0, 0)" stroke-opacity="1.0" stroke-linecap="round" stroke-linejoin="round" data-orig-style="" style="display:none" />
    <path d="M 27.81039047241211 167.49398803710938 C 59.56944274902344 192.47779846191406 45.623600006103516 193.82864379882812 94.98893737792969 192.88760375976562" stroke-width="2.0" fill="none" stroke="rgb(0, 0, 0)" stroke-opacity="1.0" stroke-linecap="round" stroke-linejoin="round" data-orig-style="" style="display:none" />
    <path d="M 211.59283447265625 175.4353485107422 C 218.15139770507812 181.3036346435547 217.65631103515625 176.350341796875 221.4678955078125 184.51966857910156" stroke-width="2.0" fill="none" stroke="rgb(0, 0, 0)" stroke-opacity="1.0" stroke-linecap="round" stroke-linejoin="round" data-orig-style="" style="display:none" />
    <path d="M 97.54288482666016 165.83848571777344 C 84.22154235839844 185.10472106933594 79.98857116699219 189.74774169921875 93.33163452148438 193.45469665527344" stroke-width="2.0" fill="none" stroke="rgb(0, 0, 0)" stroke-opacity="1.0" stroke-linecap="round" stroke-linejoin="round" data-orig-style="" style="display:none" />
    <path d="M 32.158546447753906 167.6822509765625 C 61.558258056640625 191.69674682617188 47.633827209472656 193.896484375 96.88017272949219 192.91610717773438" stroke-width="2.0" fill="none" stroke="rgb(0, 0, 0)" stroke-opacity="1.0" stroke-linecap="round" stroke-linejoin="round" data-orig-style="" style="display:none" />
    <path d="M 73.44397735595703 181.88046264648438 C 100.584716796875 183.29931640625 97.95361328125 186.0743408203125 139.73953247070312 180.90011596679688" stroke-width="2.0" fill="none" stroke="rgb(0, 0, 0)" stroke-opacity="1.0" stroke-linecap="round" stroke-linejoin="round" data-orig-style="" style="display:none" />
    <path d="M 47.42466354370117 180.81007385253906 C 78.12551879882812 189.65097045898438 71.54544067382812 191.6165771484375 117.02897644042969 186.2558135986328" stroke-width="2.0" fill="none" stroke="rgb(0, 0, 0)" stroke-opacity="1.0" stroke-linecap="round" stroke-linejoin="round" data-orig-style="" style="display:none" />
  </g>
</svg>