<?xml version='1.0' encoding='utf-8'?>
<svg xmlns="http://www.w3.org/2000/svg" version="1.1" width="224" height="224">
  <defs />
  <g>
    <path d="M 82.94804382324219 158.21649169921875 C 101.03334045410156 166.80950927734375 115.88795471191406 170.19960021972656 132.6575927734375 159.02418518066406" stroke-width="2.0" fill="none" stroke="rgb(0, 0, 0)" stroke-opacity="1.0" stroke-linecap="round" stroke-linejoin="round" />
    <path d="M 26.89727783203125 137.26087951660156 C 46.94482421875 154.970703125 70.61298370361328 161.12158203125 104.12464904785156 162.4181671142578" stroke-width="2.0" fill="none" stroke="rgb(0, 0, 0)" stroke-opacity="1.0" stroke-linecap="round" stroke-linejoin="round" />
    <path d="M 102.01207733154297 55.97020721435547 C 121.5531005859375 61.43465805053711 132.14202880859375 82.3113784790039 140.3890838623047 99.40059661865234" stroke-width="2.0" fill="none" stroke="rgb(0, 0, 0)" stroke-opacity="1.0" stroke-linecap="round" stroke-linejoin="round" data-orig-style="" style="display:none" />
    <path d="M 33.85297775268555 74.4515609741211 C 58.29664611816406 47.593040466308594 85.15252685546875 52.399559020996094 102.3876953125 56.44921112060547" stroke-width="2.0" fill="none" stroke="rgb(0, 0, 0)" stroke-opacity="1.0" stroke-linecap="round" stroke-linejoin="round" data-orig-style="" style="display:none" />
    <path d="M 57.53133010864258 55.84660339355469 C 86.0325698852539 46.39867401123047 110.37031555175781 56.562828063964844 121.31551361083984 68.79391479492188" stroke-width="2.0" fill="none" stroke="rgb(0, 0, 0)" stroke-opacity="1.0" stroke-linecap="round" stroke-linejoin="round" data-orig-style="" style="display:none" />
    <path d="M 174.28207397460938 126.90156555175781 C 181.85333251953125 143.5431365966797 171.306640625 165.67303466796875 156.03550720214844 160.2367706298828" stroke-width="2.0" fill="none" stroke="rgb(0, 0, 0)" stroke-opacity="1.0" stroke-linecap="round" stroke-linejoin="round" data-orig-style="" style="display:none" />
    <path d="M 53.0372428894043 64.87786865234375 C 23.386329650878906 69.59321594238281 12.026630401611328 100.75868225097656 18.866960525512695 123.7088394165039" stroke-width="2.0" fill="none" stroke="rgb(0, 0, 0)" stroke-opacity="1.0" stroke-linecap="round" stroke-linejoin="round" data-orig-style="" style="display:none" />
    <path d="M 166.29486083984375 105.91864013671875 C 181.24359130859375 85.47528839111328 188.95025634765625 76.9634017944336 206.509033203125 61.55373764038086" stroke-width="2.0" fill="none" stroke="rgb(0, 0, 0)" stroke-opacity="1.0" stroke-linecap="round" stroke-linejoin="round" data-orig-style="" style="display:none" />
    <path d="M 29.705852508544922 80.59835815429688 C 10.156614303588867 95.6141128540039 13.329277038574219 131.0078125 35.09794616699219 149.045166015625" stroke-width="2.0" fill="none" stroke="rgb(0, 0, 0)" stroke-opacity="1.0" stroke-linecap="round" stroke-linejoin="round" data-orig-style="" style="display:none" />
    <path d="M 21.083393096923828 129.27276611328125 C 37.04264831542969 154.10606384277344 63.332096099853516 159.24560546875 94.7146224975586 161.7610321044922" stroke-width="2.0" fill="none" stroke="rgb(0, 0, 0)" stroke-opacity="1.0" stroke-linecap="round" stroke-linejoin="round" />
    <path d="M 169.92428588867188 54.979827880859375 C 165.7271728515625 70.54327392578125 170.31100463867188 103.14969635009766 168.93801879882812 105.07254028320312" stroke-width="2.0" fill="none" stroke="rgb(0, 0, 0)" stroke-opacity="1.0" stroke-linecap="round" stroke-linejoin="round" data-orig-style="" style="display:none" />
    <path d="M 117.7181167602539 65.98320007324219 C 139.56472778320312 86.53031158447266 141.89857482910156 112.29063415527344 149.61126708984375 111.67697143554688" stroke-width="2.0" fill="none" stroke="rgb(0, 0, 0)" stroke-opacity="1.0" stroke-linecap="round" stroke-linejoin="round" data-orig-style="" style="display:none" />
    <path d="M 172.2614288330078 106.71830749511719 C 185.42074584960938 98.16722869873047 184.83477783203125 93.6175765991211 198.2794189453125 73.58463287353516" stroke-width="2.0" fill="none" stroke="rgb(0, 0, 0)" stroke-opacity="1.0" stroke-linecap="round" stroke-linejoin="round" data-orig-style="" style="display:none" />
    <path d="M 172.65072631835938 113.18386840820312 C 184.38497924804688 117.26509857177734 180.01988220214844 122.9964599609375 195.98483276367188 128.6742401123047" stroke-width="2.0" fill="none" stroke="rgb(0, 0, 0)" stroke-opacity="1.0" stroke-linecap="round" stroke-linejoin="round" data-orig-style="" style="display:none" />
    <path d="M 168.54147338867188 62.360321044921875 C 163.995361328125 86.98829650878906 170.1240234375 106.66617584228516 161.18199157714844 109.97728729248047" stroke-width="2.0" fill="none" stroke="rgb(0, 0, 0)" stroke-opacity="1.0" stroke-linecap="round" stroke-linejoin="round" data-orig-style="" style="display:none" />
    <path d="M 41.543365478515625 70.59648895263672 C 64.70765686035156 66.03102111816406 64.37594604492188 88.70435333251953 70.32392120361328 91.36184692382812" stroke-width="2.0" fill="none" stroke="rgb(0, 0, 0)" stroke-opacity="1.0" stroke-linecap="round" stroke-linejoin="round" data-orig-style="" style="display:none" />
    <path d="M 78.57856750488281 57.749473571777344 C 96.0391845703125 79.9163818359375 92.08155059814453 105.8111572265625 89.44644927978516 121.42080688476562" stroke-width="2.0" fill="none" stroke="rgb(0, 0, 0)" stroke-opacity="1.0" stroke-linecap="round" stroke-linejoin="round" data-orig-style="" style="display:none" />
    <path d="M 142.5022430419922 154.2029266357422 C 148.29469299316406 160.146728515625 159.79685974121094 165.61338806152344 170.3988494873047 156.98040771484375" stroke-width="2.0" fill="none" stroke="rgb(0, 0, 0)" stroke-opacity="1.0" stroke-linecap="round" stroke-linejoin="round" data-orig-style="" style="display:none" />
    <path d="M 126.36949920654297 104.94303131103516 C 143.3473663330078 116.42698669433594 153.53311157226562 115.71581268310547 166.82728576660156 110.10369873046875" stroke-width="2.0" fill="none" stroke="rgb(0, 0, 0)" stroke-opacity="1.0" stroke-linecap="round" stroke-linejoin="round" data-orig-style="" style="display:none" />
    <path d="M 86.82804107666016 74.56455993652344 C 94.88743591308594 109.44279479980469 86.25582885742188 110.57771301269531 91.38380432128906 122.66997528076172" stroke-width="2.0" fill="none" stroke="rgb(0, 0, 0)" stroke-opacity="1.0" stroke-linecap="round" stroke-linejoin="round" data-orig-style="" style="display:none" />
    <path d="M 173.65487670898438 124.964599609375 C 183.1433868408203 137.7525177001953 172.82894897460938 166.75083923339844 156.8611602783203 160.7564239501953" stroke-width="2.0" fill="none" stroke="rgb(0, 0, 0)" stroke-opacity="1.0" stroke-linecap="round" stroke-linejoin="round" data-orig-style="" style="display:none" />
    <path d="M 50.16246795654297 82.16719055175781 C 67.87964630126953 100.62144470214844 64.19461822509766 116.95545196533203 47.657833099365234 120.19659423828125" stroke-width="2.0" fill="none" stroke="rgb(0, 0, 0)" stroke-opacity="1.0" stroke-linecap="round" stroke-linejoin="round" data-orig-style="" style="display:none" />
    <path d="M 68.86662292480469 70.06886291503906 C 87.45762634277344 98.12479400634766 83.1766586303711 124.35704040527344 65.19497680664062 133.4815216064453" stroke-width="2.0" fill="none" stroke="rgb(0, 0, 0)" stroke-opacity="1.0" stroke-linecap="round" stroke-linejoin="round" data-orig-style="" style="display:none" />
    <path d="M 86.52946472167969 82.84638214111328 C 94.79156494140625 114.72843170166016 82.84265899658203 116.0177001953125 91.27490234375 126.52045440673828" stroke-width="2.0" fill="none" stroke="rgb(0, 0, 0)" stroke-opacity="1.0" stroke-linecap="round" stroke-linejoin="round" data-orig-style="" style="display:none" />
    <path d="M 171.78155517578125 121.74767303466797 C 181.33470153808594 127.84471130371094 178.49966430664062 158.77734375 163.5089874267578 161.51657104492188" stroke-width="2.0" fill="none" stroke="rgb(0, 0, 0)" stroke-opacity="1.0" stroke-linecap="round" stroke-linejoin="round" data-orig-style="" style="display:none" />
    <path d="M 102.8314208984375 127.69349670410156 C 124.01988983154297 123.31705474853516 129.265380859375 125.3749008178711 152.8262481689453 119.18800354003906" stroke-width="2.0" fill="none" stroke="rgb(0, 0, 0)" stroke-opacity="1.0" stroke-linecap="round" stroke-linejoin="round" data-orig-style="" style="display:none" />
    <path d="M 82.39629364013672 106.63914489746094 C 84.56695556640625 134.81484985351562 69.57698822021484 151.9927215576172 47.233802795410156 150.21258544921875" stroke-width="2.0" fill="none" stroke="rgb(0, 0, 0)" stroke-opacity="1.0" stroke-linecap="round" stroke-linejoin="round" />
    <path d="M 99.42182159423828 128.98292541503906 C 120.53970336914062 125.4851303100586 124.84380340576172 128.33132934570312 146.1602783203125 121.04231262207031" stroke-width="2.0" fill="none" stroke="rgb(0, 0, 0)" stroke-opacity="1.0" stroke-linecap="round" stroke-linejoin="round" data-orig-style="" style="display:none" />
    <path d="M 57.721702575683594 143.68463134765625 C 86.04402160644531 135.98023986816406 83.2934799194336 135.89028930664062 113.98909759521484 128.7978973388672" stroke-width="2.0" fill="none" stroke="rgb(0, 0, 0)" stroke-opacity="1.0" stroke-linecap="round" stroke-linejoin="round" />
    <path d="M 89.13027954101562 129.98208618164062 C 113.01969909667969 122.10597229003906 122.13970947265625 126.92192840576172 144.9459991455078 119.13700103759766" stroke-width="2.0" fill="none" stroke="rgb(0, 0, 0)" stroke-opacity="1.0" stroke-linecap="round" stroke-linejoin="round" data-orig-style="" style="display:none" />
    <path d="M 74.150390625 155.25765991210938 C 95.78681182861328 166.54684448242188 116.34260559082031 172.01419067382812 134.8156280517578 157.7732391357422" stroke-width="2.0" fill="none" stroke="rgb(0, 0, 0)" stroke-opacity="1.0" stroke-linecap="round" stroke-linejoin="round" />
    <path d="M 148.14036560058594 132.20254516601562 C 126.93972778320312 169.2339630126953 122.89737701416016 165.12965393066406 104.68651580810547 167.70599365234375" stroke-width="2.0" fill="none" stroke="rgb(0, 0, 0)" stroke-opacity="1.0" stroke-linecap="round" stroke-linejoin="round" data-orig-style="" style="display:none" />
  </g>
</svg>