<?xml version='1.0' encoding='utf-8'?>
<svg xmlns="http://www.w3.org/2000/svg" version="1.1" width="224" height="224">
  <defs />
  <g>
    <path d="M 133.6748046875 158.74534606933594 C 119.90583801269531 174.7285919189453 117.50065612792969 185.2543487548828 112.68168640136719 195.2409210205078" stroke-width="2.0" fill="none" stroke="rgb(0, 0, 0)" stroke-opacity="1.0" stroke-linecap="round" stroke-linejoin="round" data-orig-style="" style="display:none" />
    <path d="M 147.802734375 90.7238998413086 C 167.9922332763672 74.1730728149414 179.8809356689453 66.45854187011719 185.7886199951172 64.26754760742188" stroke-width="2.0" fill="none" stroke="rgb(0, 0, 0)" stroke-opacity="1.0" stroke-linecap="round" stroke-linejoin="round" data-orig-style="" style="display:none" />
    <path d="M 44.76306915283203 90.50220489501953 C 22.358768463134766 48.9110107421875 51.42340850830078 68.6883773803711 68.11011505126953 73.01329803466797" stroke-width="2.0" fill="none" stroke="rgb(0, 0, 0)" stroke-opacity="1.0" stroke-linecap="round" stroke-linejoin="round" data-orig-style="" style="display:none" />
    <path d="M 104.89517211914062 55.87907028198242 C 102.10720825195312 19.82208251953125 109.26962280273438 18.10546112060547 115.61263275146484 26.69130516052246" stroke-width="2.0" fill="none" stroke="rgb(0, 0, 0)" stroke-opacity="1.0" stroke-linecap="round" stroke-linejoin="round" data-orig-style="" style="display:none" />
    <path d="M 102.85672760009766 41.46169662475586 C 105.22845458984375 13.219047546386719 116.7432861328125 15.32402229309082 120.31414031982422 49.69818878173828" stroke-width="2.0" fill="none" stroke="rgb(0, 0, 0)" stroke-opacity="1.0" stroke-linecap="round" stroke-linejoin="round" data-orig-style="" style="display:none" />
    <path d="M 151.20193481445312 142.12232971191406 C 178.90452575683594 149.76734924316406 170.40731811523438 151.63824462890625 191.7216796875 153.99374389648438" stroke-width="2.0" fill="none" stroke="rgb(0, 0, 0)" stroke-opacity="1.0" stroke-linecap="round" stroke-linejoin="round" data-orig-style="" style="display:none" />
    <path d="M 122.80084991455078 55.40495300292969 C 149.7945556640625 53.75049591064453 137.43435668945312 67.76058197021484 149.3777313232422 79.31600952148438" stroke-width="2.0" fill="none" stroke="rgb(0, 0, 0)" stroke-opacity="1.0" stroke-linecap="round" stroke-linejoin="round" data-orig-style="" style="display:none" />
    <path d="M 151.80348205566406 90.80619049072266 C 165.67332458496094 77.968017578125 176.17796325683594 71.12739562988281 186.0497589111328 64.00249481201172" stroke-width="2.0" fill="none" stroke="rgb(0, 0, 0)" stroke-opacity="1.0" stroke-linecap="round" stroke-linejoin="round" data-orig-style="" style="display:none" />
    <path d="M 138.04766845703125 127.65477752685547 C 179.7635040283203 143.47726440429688 170.91867065429688 139.3509521484375 194.23233032226562 149.67941284179688" stroke-width="2.0" fill="none" stroke="rgb(0, 0, 0)" stroke-opacity="1.0" stroke-linecap="round" stroke-linejoin="round" data-orig-style="" style="display:none" />
    <path d="M 86.82482147216797 59.03450012207031 C 97.68419647216797 48.82422637939453 104.03260040283203 63.30602264404297 112.17896270751953 63.73992919921875" stroke-width="2.0" fill="none" stroke="rgb(0, 0, 0)" stroke-opacity="1.0" stroke-linecap="round" stroke-linejoin="round" data-orig-style="" style="display:none" />
    <path d="M 37.567134857177734 73.24943542480469 C 29.57011604309082 54.794471740722656 68.30621337890625 69.28548431396484 78.63142395019531 69.3192367553711" stroke-width="2.0" fill="none" stroke="rgb(0, 0, 0)" stroke-opacity="1.0" stroke-linecap="round" stroke-linejoin="round" data-orig-style="" style="display:none" />
    <path d="M 127.07078552246094 101.20235443115234 C 132.32086181640625 92.22970581054688 129.60842895507812 99.76673126220703 135.23658752441406 91.57279968261719" stroke-width="2.0" fill="none" stroke="rgb(0, 0, 0)" stroke-opacity="1.0" stroke-linecap="round" stroke-linejoin="round" data-orig-style="" style="display:none" />
    <path d="M 109.9505844116211 25.509702682495117 C 117.2908935546875 60.64469909667969 107.3835220336914 39.18251037597656 114.14474487304688 71.64920806884766" stroke-width="2.0" fill="none" stroke="rgb(0, 0, 0)" stroke-opacity="1.0" stroke-linecap="round" stroke-linejoin="round" data-orig-style="" style="display:none" />
    <path d="M 135.10171508789062 58.81204605102539 C 153.91326904296875 61.47185516357422 138.57481384277344 71.71475219726562 150.59164428710938 81.11006927490234" stroke-width="2.0" fill="none" stroke="rgb(0, 0, 0)" stroke-opacity="1.0" stroke-linecap="round" stroke-linejoin="round" data-orig-style="" style="display:none" />
    <path d="M 89.70626831054688 61.1663818359375 C 92.57494354248047 56.65898895263672 93.48617553710938 62.48662567138672 101.43179321289062 60.344627380371094" stroke-width="2.0" fill="none" stroke="rgb(0, 0, 0)" stroke-opacity="1.0" stroke-linecap="round" stroke-linejoin="round" data-orig-style="" style="display:none" />
    <path d="M 132.13241577148438 120.92840576171875 C 141.9447021484375 111.3028564453125 141.05450439453125 121.14534759521484 160.9393310546875 109.56349182128906" stroke-width="2.0" fill="none" stroke="rgb(0, 0, 0)" stroke-opacity="1.0" stroke-linecap="round" stroke-linejoin="round" data-orig-style="" style="display:none" />
    <path d="M 112.72450256347656 51.943477630615234 C 128.96363830566406 62.78739929199219 113.84005737304688 62.685787200927734 124.73225402832031 84.6567153930664" stroke-width="2.0" fill="none" stroke="rgb(0, 0, 0)" stroke-opacity="1.0" stroke-linecap="round" stroke-linejoin="round" data-orig-style="" style="display:none" />
    <path d="M 144.974365234375 128.4595184326172 C 182.74070739746094 142.88526916503906 176.4899139404297 139.39874267578125 195.29530334472656 149.20538330078125" stroke-width="2.0" fill="none" stroke="rgb(0, 0, 0)" stroke-opacity="1.0" stroke-linecap="round" stroke-linejoin="round" data-orig-style="" style="display:none" />
    <path d="M 139.45724487304688 137.19061279296875 C 173.37998962402344 148.82711791992188 165.3695526123047 149.44610595703125 191.20237731933594 154.25762939453125" stroke-width="2.0" fill="none" stroke="rgb(0, 0, 0)" stroke-opacity="1.0" stroke-linecap="round" stroke-linejoin="round" data-orig-style="" style="display:none" />
    <path d="M 85.48343658447266 62.93157196044922 C 95.5338134765625 80.11465454101562 87.43636322021484 72.20223999023438 107.78221130371094 110.57855987548828" stroke-width="2.0" fill="none" stroke="rgb(0, 0, 0)" stroke-opacity="1.0" stroke-linecap="round" stroke-linejoin="round" data-orig-style="" style="display:none" />
    <path d="M 77.74665069580078 165.56698608398438 C 117.19308471679688 143.6569366455078 98.63377380371094 156.33705139160156 122.28778076171875 148.39962768554688" stroke-width="2.0" fill="none" stroke="rgb(0, 0, 0)" stroke-opacity="1.0" stroke-linecap="round" stroke-linejoin="round" data-orig-style="" style="display:none" />
    <path d="M 32.58266830444336 157.69390869140625 C 50.52098846435547 147.02590942382812 51.79549789428711 153.04652404785156 76.28926849365234 131.0050506591797" stroke-width="2.0" fill="none" stroke="rgb(0, 0, 0)" stroke-opacity="1.0" stroke-linecap="round" stroke-linejoin="round" />
    <path d="M 139.86965942382812 123.0447006225586 C 172.83969116210938 128.44256591796875 163.14248657226562 125.0372314453125 181.89236450195312 132.1016845703125" stroke-width="2.0" fill="none" stroke="rgb(0, 0, 0)" stroke-opacity="1.0" stroke-linecap="round" stroke-linejoin="round" data-orig-style="" style="display:none" />
    <path d="M 144.62588500976562 93.43199920654297 C 149.36822509765625 81.27841186523438 145.40866088867188 96.24958801269531 164.89898681640625 89.61080932617188" stroke-width="2.0" fill="none" stroke="rgb(0, 0, 0)" stroke-opacity="1.0" stroke-linecap="round" stroke-linejoin="round" data-orig-style="" style="display:none" />
    <path d="M 87.31346893310547 86.93424224853516 C 108.32376098632812 112.33759307861328 93.31608581542969 116.12149810791016 112.69822692871094 105.943115234375" stroke-width="2.0" fill="none" stroke="rgb(0, 0, 0)" stroke-opacity="1.0" stroke-linecap="round" stroke-linejoin="round" data-orig-style="" style="display:none" />
    <path d="M 50.61675262451172 149.28195190429688 C 87.07444763183594 126.29804229736328 84.29846954345703 149.7824249267578 107.16749572753906 107.97557830810547" stroke-width="2.0" fill="none" stroke="rgb(0, 0, 0)" stroke-opacity="1.0" stroke-linecap="round" stroke-linejoin="round" data-orig-style="" style="display:none" />
    <path d="M 110.33865356445312 128.79830932617188 C 138.97128295898438 138.1015625 121.50853729248047 143.38563537597656 150.593505859375 156.49012756347656" stroke-width="2.0" fill="none" stroke="rgb(0, 0, 0)" stroke-opacity="1.0" stroke-linecap="round" stroke-linejoin="round" data-orig-style="" style="display:none" />
    <path d="M 104.75480651855469 160.36968994140625 C 117.33619689941406 162.58419799804688 118.89332580566406 171.65904235839844 138.29383850097656 162.4520721435547" stroke-width="2.0" fill="none" stroke="rgb(0, 0, 0)" stroke-opacity="1.0" stroke-linecap="round" stroke-linejoin="round" data-orig-style="" style="display:none" />
    <path d="M 104.4508056640625 140.14793395996094 C 95.4684066772461 173.08572387695312 98.94389343261719 176.62155151367188 107.04811096191406 189.45965576171875" stroke-width="2.0" fill="none" stroke="rgb(0, 0, 0)" stroke-opacity="1.0" stroke-linecap="round" stroke-linejoin="round" data-orig-style="" style="display:none" />
    <path d="M 55.412574768066406 139.91517639160156 C 94.24980926513672 124.96748352050781 94.50205993652344 139.40989685058594 108.61315155029297 102.16844940185547" stroke-width="2.0" fill="none" stroke="rgb(0, 0, 0)" stroke-opacity="1.0" stroke-linecap="round" stroke-linejoin="round" data-orig-style="" style="display:none" />
    <path d="M 108.75285339355469 157.47952270507812 C 125.15526580810547 176.14056396484375 143.94044494628906 173.2889404296875 156.67181396484375 159.41064453125" stroke-width="2.0" fill="none" stroke="rgb(0, 0, 0)" stroke-opacity="1.0" stroke-linecap="round" stroke-linejoin="round" data-orig-style="" style="display:none" />
    <path d="M 101.1575927734375 124.27458190917969 C 138.41064453125 113.76331329345703 123.23527526855469 129.9151153564453 157.81668090820312 133.8565216064453" stroke-width="2.0" fill="none" stroke="rgb(0, 0, 0)" stroke-opacity="1.0" stroke-linecap="round" stroke-linejoin="round" data-orig-style="" style="display:none" />
  </g>
</svg>