<?xml version='1.0' encoding='utf-8'?>
<svg xmlns="http://www.w3.org/2000/svg" version="1.1" width="224" height="224">
  <defs />
  <g>
    <path d="M 41.06913757324219 52.107093811035156 C 57.18216323852539 79.54032135009766 77.0295181274414 102.877197265625 111.83256530761719 105.15383911132812" stroke-width="2.0" fill="none" stroke="rgb(0, 0, 0)" stroke-opacity="1.0" stroke-linecap="round" stroke-linejoin="round" data-orig-style="" style="display:none" />
    <path d="M 140.90151977539062 155.1754608154297 C 170.17813110351562 181.5008544921875 154.6072540283203 192.56134033203125 179.71006774902344 201.0801544189453" stroke-width="2.0" fill="none" stroke="rgb(0, 0, 0)" stroke-opacity="1.0" stroke-linecap="round" stroke-linejoin="round" data-orig-style="" style="display:none" />
    <path d="M 155.2373809814453 169.0206298828125 C 166.7090301513672 200.90032958984375 179.82354736328125 208.25672912597656 193.75155639648438 205.77392578125" stroke-width="2.0" fill="none" stroke="rgb(0, 0, 0)" stroke-opacity="1.0" stroke-linecap="round" stroke-linejoin="round" data-orig-style="" style="display:none" />
    <path d="M 128.88510131835938 85.72015380859375 C 143.97653198242188 103.74806213378906 159.21275329589844 101.53201293945312 181.03883361816406 116.3350830078125" stroke-width="2.0" fill="none" stroke="rgb(0, 0, 0)" stroke-opacity="1.0" stroke-linecap="round" stroke-linejoin="round" data-orig-style="" style="display:none" />
    <path d="M 140.73069763183594 95.97101593017578 C 169.60537719726562 108.55960845947266 168.4515380859375 116.5113296508789 193.48870849609375 118.76274108886719" stroke-width="2.0" fill="none" stroke="rgb(0, 0, 0)" stroke-opacity="1.0" stroke-linecap="round" stroke-linejoin="round" data-orig-style="" style="display:none" />
    <path d="M 11.145448684692383 14.027844429016113 C 22.405519485473633 17.55736541748047 41.156227111816406 19.78664779663086 55.252567291259766 21.065942764282227" stroke-width="2.0" fill="none" stroke="rgb(0, 0, 0)" stroke-opacity="1.0" stroke-linecap="round" stroke-linejoin="round" />
    <path d="M 156.44775390625 124.45455932617188 C 180.22219848632812 141.3857421875 181.4896697998047 144.99998474121094 202.08392333984375 162.68954467773438" stroke-width="2.0" fill="none" stroke="rgb(0, 0, 0)" stroke-opacity="1.0" stroke-linecap="round" stroke-linejoin="round" data-orig-style="" style="display:none" />
    <path d="M 151.98692321777344 120.9727554321289 C 170.17120361328125 129.7469940185547 174.8057098388672 131.19125366210938 196.2012176513672 137.31788635253906" stroke-width="2.0" fill="none" stroke="rgb(0, 0, 0)" stroke-opacity="1.0" stroke-linecap="round" stroke-linejoin="round" data-orig-style="" style="display:none" />
    <path d="M 182.07888793945312 158.95155334472656 C 195.885498046875 186.63169860839844 205.497314453125 177.83798217773438 193.8915252685547 199.09970092773438" stroke-width="2.0" fill="none" stroke="rgb(0, 0, 0)" stroke-opacity="1.0" stroke-linecap="round" stroke-linejoin="round" data-orig-style="" style="display:none" />
    <path d="M 25.93206214904785 17.158157348632812 C 62.965538024902344 21.106403350830078 78.01004028320312 23.866535186767578 86.56453704833984 29.94829559326172" stroke-width="2.0" fill="none" stroke="rgb(0, 0, 0)" stroke-opacity="1.0" stroke-linecap="round" stroke-linejoin="round" data-orig-style="" style="display:none" />
    <path d="M 78.38140869140625 39.3797721862793 C 122.39411926269531 66.98774719238281 120.55870056152344 73.41898345947266 127.13616943359375 91.6407699584961" stroke-width="2.0" fill="none" stroke="rgb(0, 0, 0)" stroke-opacity="1.0" stroke-linecap="round" stroke-linejoin="round" data-orig-style="" style="display:none" />
    <path d="M 12.37857437133789 15.166815757751465 C 6.306098937988281 64.57017517089844 2.1034793853759766 64.67647552490234 24.463056564331055 65.19419860839844" stroke-width="2.0" fill="none" stroke="rgb(0, 0, 0)" stroke-opacity="1.0" stroke-linecap="round" stroke-linejoin="round" />
    <path d="M 32.38678741455078 17.310649871826172 C 72.70352172851562 22.219627380371094 77.93211364746094 24.60669708251953 85.94673156738281 30.91594123840332" stroke-width="2.0" fill="none" stroke="rgb(0, 0, 0)" stroke-opacity="1.0" stroke-linecap="round" stroke-linejoin="round" data-orig-style="" style="display:none" />
    <path d="M 153.15953063964844 133.6254119873047 C 190.41403198242188 169.5574951171875 177.7990264892578 162.59432983398438 192.4945068359375 177.5867919921875" stroke-width="2.0" fill="none" stroke="rgb(0, 0, 0)" stroke-opacity="1.0" stroke-linecap="round" stroke-linejoin="round" data-orig-style="" style="display:none" />
    <path d="M 164.99276733398438 118.5611801147461 C 179.82525634765625 124.34598541259766 195.3521270751953 120.35294342041016 209.20005798339844 107.0350112915039" stroke-width="2.0" fill="none" stroke="rgb(0, 0, 0)" stroke-opacity="1.0" stroke-linecap="round" stroke-linejoin="round" data-orig-style="" style="display:none" />
    <path d="M 40.346275329589844 41.2573127746582 C 57.806209564208984 36.05362319946289 52.24115753173828 38.17741394042969 75.45199584960938 44.57422637939453" stroke-width="2.0" fill="none" stroke="rgb(0, 0, 0)" stroke-opacity="1.0" stroke-linecap="round" stroke-linejoin="round" data-orig-style="" style="display:none" />
    <path d="M 71.19261932373047 171.3085174560547 C 76.01048278808594 167.33135986328125 78.59530639648438 178.93991088867188 105.39929962158203 149.003662109375" stroke-width="2.0" fill="none" stroke="rgb(0, 0, 0)" stroke-opacity="1.0" stroke-linecap="round" stroke-linejoin="round" data-orig-style="" style="display:none" />
    <path d="M 95.58993530273438 91.29984283447266 C 124.8682632446289 110.33295440673828 107.936767578125 116.04161071777344 137.60987854003906 113.23110961914062" stroke-width="2.0" fill="none" stroke="rgb(0, 0, 0)" stroke-opacity="1.0" stroke-linecap="round" stroke-linejoin="round" data-orig-style="" style="display:none" />
    <path d="M 122.42049407958984 109.76451873779297 C 103.24417877197266 171.07720947265625 80.6249771118164 163.1175537109375 75.72383117675781 169.82150268554688" stroke-width="2.0" fill="none" stroke="rgb(0, 0, 0)" stroke-opacity="1.0" stroke-linecap="round" stroke-linejoin="round" data-orig-style="" style="display:none" />
    <path d="M 113.72576904296875 97.24779510498047 C 141.26181030273438 115.11981964111328 121.98078918457031 117.37212371826172 159.6353302001953 131.1853485107422" stroke-width="2.0" fill="none" stroke="rgb(0, 0, 0)" stroke-opacity="1.0" stroke-linecap="round" stroke-linejoin="round" data-orig-style="" style="display:none" />
    <path d="M 90.69470977783203 90.16780090332031 C 127.2210693359375 122.2667236328125 108.74107360839844 108.54183197021484 148.0690155029297 121.11782836914062" stroke-width="2.0" fill="none" stroke="rgb(0, 0, 0)" stroke-opacity="1.0" stroke-linecap="round" stroke-linejoin="round" data-orig-style="" style="display:none" />
    <path d="M 65.66096496582031 76.92546081542969 C 95.05640411376953 64.76349639892578 86.73384094238281 75.63243865966797 110.16799926757812 86.48060607910156" stroke-width="2.0" fill="none" stroke="rgb(0, 0, 0)" stroke-opacity="1.0" stroke-linecap="round" stroke-linejoin="round" data-orig-style="" style="display:none" />
    <path d="M 124.44498443603516 122.56632995605469 C 144.25486755371094 158.8638153076172 140.25196838378906 171.56227111816406 164.8526153564453 188.49755859375" stroke-width="2.0" fill="none" stroke="rgb(0, 0, 0)" stroke-opacity="1.0" stroke-linecap="round" stroke-linejoin="round" data-orig-style="" style="display:none" />
    <path d="M 92.29325866699219 95.71695709228516 C 130.72207641601562 69.30081176757812 116.37122344970703 87.89331817626953 128.62908935546875 86.98941802978516" stroke-width="2.0" fill="none" stroke="rgb(0, 0, 0)" stroke-opacity="1.0" stroke-linecap="round" stroke-linejoin="round" data-orig-style="" style="display:none" />
    <path d="M 120.14361572265625 114.60733795166016 C 135.6461181640625 139.3444061279297 131.494384765625 160.06358337402344 159.57879638671875 180.9681396484375" stroke-width="2.0" fill="none" stroke="rgb(0, 0, 0)" stroke-opacity="1.0" stroke-linecap="round" stroke-linejoin="round" data-orig-style="" style="display:none" />
    <path d="M 111.6023178100586 103.302734375 C 138.17230224609375 119.4164047241211 119.90626525878906 127.71790313720703 151.90602111816406 151.617919921875" stroke-width="2.0" fill="none" stroke="rgb(0, 0, 0)" stroke-opacity="1.0" stroke-linecap="round" stroke-linejoin="round" data-orig-style="" style="display:none" />
    <path d="M 41.137351989746094 22.401607513427734 C 76.68668365478516 40.246315002441406 54.43457794189453 34.61431884765625 78.37523651123047 45.15608215332031" stroke-width="2.0" fill="none" stroke="rgb(0, 0, 0)" stroke-opacity="1.0" stroke-linecap="round" stroke-linejoin="round" data-orig-style="" style="display:none" />
    <path d="M 10.021430969238281 36.000823974609375 C 21.291507720947266 24.757429122924805 18.24300765991211 36.261505126953125 31.664342880249023 19.623180389404297" stroke-width="2.0" fill="none" stroke="rgb(0, 0, 0)" stroke-opacity="1.0" stroke-linecap="round" stroke-linejoin="round" />
    <path d="M 91.84707641601562 78.18704223632812 C 114.93769073486328 83.20600128173828 89.09898376464844 97.50086975097656 122.52229309082031 109.20596313476562" stroke-width="2.0" fill="none" stroke="rgb(0, 0, 0)" stroke-opacity="1.0" stroke-linecap="round" stroke-linejoin="round" data-orig-style="" style="display:none" />
    <path d="M 79.21440124511719 80.91635131835938 C 104.6932601928711 96.00109100341797 89.4055404663086 112.66621398925781 121.89846801757812 104.83052062988281" stroke-width="2.0" fill="none" stroke="rgb(0, 0, 0)" stroke-opacity="1.0" stroke-linecap="round" stroke-linejoin="round" data-orig-style="" style="display:none" />
    <path d="M 115.07279205322266 92.11766052246094 C 122.53868103027344 149.8813934326172 92.84434509277344 170.056640625 89.16529846191406 175.95401000976562" stroke-width="2.0" fill="none" stroke="rgb(0, 0, 0)" stroke-opacity="1.0" stroke-linecap="round" stroke-linejoin="round" data-orig-style="" style="display:none" />
    <path d="M 108.49459838867188 95.47483825683594 C 111.06077575683594 118.34691619873047 98.86811065673828 135.16212463378906 78.66383361816406 148.01641845703125" stroke-width="2.0" fill="none" stroke="rgb(0, 0, 0)" stroke-opacity="1.0" stroke-linecap="round" stroke-linejoin="round" data-orig-style="" style="display:none" />
  </g>
</svg>