<?xml version='1.0' encoding='utf-8'?>
<svg xmlns="http://www.w3.org/2000/svg" version="1.1" width="224" height="224">
  <defs />
  <g>
    <path d="M 86.01882934570312 165.70306396484375 C 60.83562469482422 181.0620574951172 69.5191879272461 190.23226928710938 96.59884643554688 174.60031127929688" stroke-width="2.0" fill="none" stroke="rgb(0, 0, 0)" stroke-opacity="1.0" stroke-linecap="round" stroke-linejoin="round" data-orig-style="" style="display:none" />
    <path d="M 183.63531494140625 87.84358215332031 C 186.2852783203125 88.87545776367188 195.35874938964844 125.42606353759766 186.91404724121094 138.72134399414062" stroke-width="2.0" fill="none" stroke="rgb(0, 0, 0)" stroke-opacity="1.0" stroke-linecap="round" stroke-linejoin="round" data-orig-style="" style="display:none" />
    <path d="M 121.57864379882812 41.91798400878906 C 126.05194091796875 16.3691463470459 147.65011596679688 22.677600860595703 151.32962036132812 17.329547882080078" stroke-width="2.0" fill="none" stroke="rgb(0, 0, 0)" stroke-opacity="1.0" stroke-linecap="round" stroke-linejoin="round" data-orig-style="" style="display:none" />
    <path d="M 87.04635620117188 74.75337982177734 C 77.54510498046875 30.465517044067383 87.03623962402344 37.36598205566406 100.0613021850586 60.11211013793945" stroke-width="2.0" fill="none" stroke="rgb(0, 0, 0)" stroke-opacity="1.0" stroke-linecap="round" stroke-linejoin="round" data-orig-style="" style="display:none" />
    <path d="M 174.59332275390625 40.92072296142578 C 188.35882568359375 33.278106689453125 189.47702026367188 36.0274543762207 199.61306762695312 30.631702423095703" stroke-width="2.0" fill="none" stroke="rgb(0, 0, 0)" stroke-opacity="1.0" stroke-linecap="round" stroke-linejoin="round" />
    <path d="M 185.70556640625 39.247344970703125 C 208.33615112304688 37.76166534423828 207.40347290039062 54.27222442626953 204.93702697753906 74.24873352050781" stroke-width="2.0" fill="none" stroke="rgb(0, 0, 0)" stroke-opacity="1.0" stroke-linecap="round" stroke-linejoin="round" />
    <path d="M 144.50685119628906 181.86013793945312 C 153.88291931152344 187.92703247070312 182.684814453125 191.71107482910156 167.86172485351562 172.66481018066406" stroke-width="2.0" fill="none" stroke="rgb(0, 0, 0)" stroke-opacity="1.0" stroke-linecap="round" stroke-linejoin="round" data-orig-style="" style="display:none" />
    <path d="M 141.30111694335938 28.16278076171875 C 147.46986389160156 23.7198486328125 171.80455017089844 14.978547096252441 184.25823974609375 22.407875061035156" stroke-width="2.0" fill="none" stroke="rgb(0, 0, 0)" stroke-opacity="1.0" stroke-linecap="round" stroke-linejoin="round" />
    <path d="M 192.0775146484375 54.968299865722656 C 205.76051330566406 66.6835708618164 205.67147827148438 81.25283813476562 200.1901092529297 86.62181091308594" stroke-width="2.0" fill="none" stroke="rgb(0, 0, 0)" stroke-opacity="1.0" stroke-linecap="round" stroke-linejoin="round" data-orig-style="" style="display:none" />
    <path d="M 86.42071533203125 96.42776489257812 C 72.93023681640625 82.83012390136719 91.05751037597656 84.65953063964844 88.51982116699219 78.04159545898438" stroke-width="2.0" fill="none" stroke="rgb(0, 0, 0)" stroke-opacity="1.0" stroke-linecap="round" stroke-linejoin="round" data-orig-style="" style="display:none" />
    <path d="M 112.95880889892578 63.40675354003906 C 112.24805450439453 54.4935302734375 116.03050231933594 53.716983795166016 120.72283935546875 49.56565856933594" stroke-width="2.0" fill="none" stroke="rgb(0, 0, 0)" stroke-opacity="1.0" stroke-linecap="round" stroke-linejoin="round" data-orig-style="" style="display:none" />
    <path d="M 88.9581527709961 70.25055694580078 C 102.79481506347656 56.75656509399414 127.90313720703125 59.48801040649414 126.38842010498047 67.18986511230469" stroke-width="2.0" fill="none" stroke="rgb(0, 0, 0)" stroke-opacity="1.0" stroke-linecap="round" stroke-linejoin="round" data-orig-style="" style="display:none" />
    <path d="M 89.31785583496094 70.62413787841797 C 76.1815185546875 90.27278137207031 81.01155090332031 106.32744598388672 96.57884979248047 104.28047180175781" stroke-width="2.0" fill="none" stroke="rgb(0, 0, 0)" stroke-opacity="1.0" stroke-linecap="round" stroke-linejoin="round" data-orig-style="" style="display:none" />
    <path d="M 87.54414367675781 90.65806579589844 C 66.11048889160156 126.61172485351562 96.0721435546875 147.82852172851562 78.21638488769531 174.30914306640625" stroke-width="2.0" fill="none" stroke="rgb(0, 0, 0)" stroke-opacity="1.0" stroke-linecap="round" stroke-linejoin="round" data-orig-style="" style="display:none" />
    <path d="M 117.74964904785156 52.1757926940918 C 120.86015319824219 49.59819793701172 122.7254638671875 54.22980499267578 125.92423248291016 50.849815368652344" stroke-width="2.0" fill="none" stroke="rgb(0, 0, 0)" stroke-opacity="1.0" stroke-linecap="round" stroke-linejoin="round" data-orig-style="" style="display:none" />
    <path d="M 111.2759780883789 132.43191528320312 C 134.08462524414062 189.73480224609375 91.34291076660156 191.57415771484375 132.74166870117188 188.78111267089844" stroke-width="2.0" fill="none" stroke="rgb(0, 0, 0)" stroke-opacity="1.0" stroke-linecap="round" stroke-linejoin="round" data-orig-style="" style="display:none" />
    <path d="M 116.07423400878906 57.915924072265625 C 120.94207763671875 30.776779174804688 128.7371826171875 29.5743350982666 134.6682891845703 29.400325775146484" stroke-width="2.0" fill="none" stroke="rgb(0, 0, 0)" stroke-opacity="1.0" stroke-linecap="round" stroke-linejoin="round" data-orig-style="" style="display:none" />
    <path d="M 107.86104583740234 129.700927734375 C 125.67290496826172 158.8571319580078 114.76209259033203 182.19671630859375 108.769287109375 185.89593505859375" stroke-width="2.0" fill="none" stroke="rgb(0, 0, 0)" stroke-opacity="1.0" stroke-linecap="round" stroke-linejoin="round" data-orig-style="" style="display:none" />
    <path d="M 96.12794494628906 136.07362365722656 C 102.14673614501953 152.35174560546875 97.25933074951172 158.52061462402344 85.39605712890625 179.3682861328125" stroke-width="2.0" fill="none" stroke="rgb(0, 0, 0)" stroke-opacity="1.0" stroke-linecap="round" stroke-linejoin="round" data-orig-style="" style="display:none" />
    <path d="M 171.94810485839844 121.88301849365234 C 183.8233184814453 138.9495849609375 173.6528778076172 161.87301635742188 165.50033569335938 171.63023376464844" stroke-width="2.0" fill="none" stroke="rgb(0, 0, 0)" stroke-opacity="1.0" stroke-linecap="round" stroke-linejoin="round" data-orig-style="" style="display:none" />
    <path d="M 98.88343811035156 94.275390625 C 110.20985412597656 94.50508880615234 106.04774475097656 107.99002075195312 102.2103271484375 104.18379974365234" stroke-width="2.0" fill="none" stroke="rgb(0, 0, 0)" stroke-opacity="1.0" stroke-linecap="round" stroke-linejoin="round" data-orig-style="" style="display:none" />
    <path d="M 102.4683609008789 92.76197814941406 C 113.8376235961914 91.96744537353516 109.39077758789062 104.52356719970703 105.29694366455078 102.33583068847656" stroke-width="2.0" fill="none" stroke="rgb(0, 0, 0)" stroke-opacity="1.0" stroke-linecap="round" stroke-linejoin="round" data-orig-style="" style="display:none" />
    <path d="M 120.72169494628906 70.57726287841797 C 135.54473876953125 84.2557144165039 128.1312255859375 110.68000030517578 105.9865951538086 105.90262603759766" stroke-width="2.0" fill="none" stroke="rgb(0, 0, 0)" stroke-opacity="1.0" stroke-linecap="round" stroke-linejoin="round" data-orig-style="" style="display:none" />
    <path d="M 127.11561584472656 85.43045806884766 C 142.95533752441406 93.96532440185547 143.08694458007812 103.89242553710938 159.9528045654297 119.78865814208984" stroke-width="2.0" fill="none" stroke="rgb(0, 0, 0)" stroke-opacity="1.0" stroke-linecap="round" stroke-linejoin="round" data-orig-style="" style="display:none" />
    <path d="M 119.5900650024414 64.80020904541016 C 133.99151611328125 83.21078491210938 127.78453063964844 96.95210266113281 131.9642791748047 99.452392578125" stroke-width="2.0" fill="none" stroke="rgb(0, 0, 0)" stroke-opacity="1.0" stroke-linecap="round" stroke-linejoin="round" data-orig-style="" style="display:none" />
    <path d="M 125.81808471679688 81.03389739990234 C 134.2410430908203 91.99376678466797 120.91507720947266 111.10477447509766 109.75646209716797 105.82959747314453" stroke-width="2.0" fill="none" stroke="rgb(0, 0, 0)" stroke-opacity="1.0" stroke-linecap="round" stroke-linejoin="round" data-orig-style="" style="display:none" />
    <path d="M 131.43185424804688 90.1304931640625 C 148.73439025878906 102.57733154296875 149.0034637451172 113.68395233154297 157.81874084472656 121.32110595703125" stroke-width="2.0" fill="none" stroke="rgb(0, 0, 0)" stroke-opacity="1.0" stroke-linecap="round" stroke-linejoin="round" data-orig-style="" style="display:none" />
    <path d="M 144.8583984375 66.34149169921875 C 147.94631958007812 75.20555114746094 141.58517456054688 83.23657989501953 141.80270385742188 92.61885833740234" stroke-width="2.0" fill="none" stroke="rgb(0, 0, 0)" stroke-opacity="1.0" stroke-linecap="round" stroke-linejoin="round" data-orig-style="" style="display:none" />
    <path d="M 153.59735107421875 113.81262969970703 C 164.12545776367188 128.1560821533203 170.17295837402344 134.56951904296875 181.66531372070312 141.3572998046875" stroke-width="2.0" fill="none" stroke="rgb(0, 0, 0)" stroke-opacity="1.0" stroke-linecap="round" stroke-linejoin="round" data-orig-style="" style="display:none" />
    <path d="M 177.26861572265625 68.05125427246094 C 190.00534057617188 80.53350830078125 181.65121459960938 83.59977722167969 190.19041442871094 90.21942138671875" stroke-width="2.0" fill="none" stroke="rgb(0, 0, 0)" stroke-opacity="1.0" stroke-linecap="round" stroke-linejoin="round" data-orig-style="" style="display:none" />
    <path d="M 176.09873962402344 59.74184799194336 C 191.0993194580078 69.92152404785156 190.3030242919922 81.83544921875 200.59811401367188 86.57258605957031" stroke-width="2.0" fill="none" stroke="rgb(0, 0, 0)" stroke-opacity="1.0" stroke-linecap="round" stroke-linejoin="round" data-orig-style="" style="display:none" />
    <path d="M 130.00315856933594 175.89846801757812 C 141.47853088378906 174.437255859375 142.34414672851562 177.84153747558594 164.89501953125 169.12347412109375" stroke-width="2.0" fill="none" stroke="rgb(0, 0, 0)" stroke-opacity="1.0" stroke-linecap="round" stroke-linejoin="round" data-orig-style="" style="display:none" />
  </g>
</svg>