<?xml version='1.0' encoding='utf-8'?>
<svg xmlns="http://www.w3.org/2000/svg" version="1.1" width="224" height="224">
  <defs />
  <g>
    <path d="M 13.505375862121582 189.01412963867188 C 4.57473087310791 193.8497314453125 2.456624984741211 195.1280975341797 5.590228080749512 207.0619354248047" stroke-width="2.0" fill="none" stroke="rgb(0, 0, 0)" stroke-opacity="1.0" stroke-linecap="round" stroke-linejoin="round" data-orig-style="" style="display:none" />
    <path d="M 133.25759887695312 126.75939178466797 C 152.11624145507812 149.86721801757812 170.7930145263672 168.9967498779297 197.2125244140625 168.31826782226562" stroke-width="2.0" fill="none" stroke="rgb(0, 0, 0)" stroke-opacity="1.0" stroke-linecap="round" stroke-linejoin="round" data-orig-style="" style="display:none" />
    <path d="M 132.833740234375 97.57438659667969 C 155.0742950439453 108.99681091308594 168.07801818847656 113.18391418457031 171.42752075195312 119.83529663085938" stroke-width="2.0" fill="none" stroke="rgb(0, 0, 0)" stroke-opacity="1.0" stroke-linecap="round" stroke-linejoin="round" data-orig-style="" style="display:none" />
    <path d="M 188.5263671875 147.25440979003906 C 202.2688446044922 159.737060546875 207.630859375 169.00845336914062 196.01434326171875 167.26419067382812" stroke-width="2.0" fill="none" stroke="rgb(0, 0, 0)" stroke-opacity="1.0" stroke-linecap="round" stroke-linejoin="round" data-orig-style="" style="display:none" />
    <path d="M 95.05897521972656 63.43035888671875 C 85.1888198852539 17.455238342285156 105.66558074951172 9.193134307861328 111.87057495117188 31.316884994506836" stroke-width="2.0" fill="none" stroke="rgb(0, 0, 0)" stroke-opacity="1.0" stroke-linecap="round" stroke-linejoin="round" data-orig-style="" style="display:none" />
    <path d="M 6.404085159301758 77.04927062988281 C 30.878103256225586 75.26588439941406 64.65985870361328 83.4157943725586 87.5045394897461 80.77397155761719" stroke-width="2.0" fill="none" stroke="rgb(0, 0, 0)" stroke-opacity="1.0" stroke-linecap="round" stroke-linejoin="round" />
    <path d="M 107.62809753417969 25.858936309814453 C 120.42927551269531 53.91560745239258 121.37814331054688 58.5747184753418 121.4197769165039 80.9688720703125" stroke-width="2.0" fill="none" stroke="rgb(0, 0, 0)" stroke-opacity="1.0" stroke-linecap="round" stroke-linejoin="round" data-orig-style="" style="display:none" />
    <path d="M 171.921630859375 124.77758026123047 C 183.58546447753906 142.2463836669922 197.6322784423828 151.8463134765625 202.990966796875 161.05735778808594" stroke-width="2.0" fill="none" stroke="rgb(0, 0, 0)" stroke-opacity="1.0" stroke-linecap="round" stroke-linejoin="round" data-orig-style="" style="display:none" />
    <path d="M 129.12643432617188 79.27372741699219 C 154.43316650390625 60.04993438720703 169.0284423828125 59.808712005615234 193.38136291503906 55.208412170410156" stroke-width="2.0" fill="none" stroke="rgb(0, 0, 0)" stroke-opacity="1.0" stroke-linecap="round" stroke-linejoin="round" data-orig-style="" style="display:none" />
    <path d="M 121.746337890625 89.01193237304688 C 137.10592651367188 104.24495697021484 146.58944702148438 103.8405532836914 163.0731964111328 111.14483642578125" stroke-width="2.0" fill="none" stroke="rgb(0, 0, 0)" stroke-opacity="1.0" stroke-linecap="round" stroke-linejoin="round" data-orig-style="" style="display:none" />
    <path d="M 106.62837219238281 24.13077163696289 C 118.73136901855469 44.380374908447266 121.45755004882812 55.69200897216797 120.50907135009766 83.52137756347656" stroke-width="2.0" fill="none" stroke="rgb(0, 0, 0)" stroke-opacity="1.0" stroke-linecap="round" stroke-linejoin="round" data-orig-style="" style="display:none" />
    <path d="M 8.707061767578125 75.11504364013672 C 53.89715576171875 75.60163879394531 76.19768524169922 81.15101623535156 92.09805297851562 76.34266662597656" stroke-width="2.0" fill="none" stroke="rgb(0, 0, 0)" stroke-opacity="1.0" stroke-linecap="round" stroke-linejoin="round" />
    <path d="M 117.56892395019531 61.77978515625 C 126.75614929199219 70.55748748779297 125.66073608398438 69.33527374267578 130.28628540039062 70.66525268554688" stroke-width="2.0" fill="none" stroke="rgb(0, 0, 0)" stroke-opacity="1.0" stroke-linecap="round" stroke-linejoin="round" data-orig-style="" style="display:none" />
    <path d="M 198.63246154785156 56.11961364746094 C 202.84017944335938 56.31913375854492 203.15914916992188 68.9554672241211 169.7518310546875 91.3571548461914" stroke-width="2.0" fill="none" stroke="rgb(0, 0, 0)" stroke-opacity="1.0" stroke-linecap="round" stroke-linejoin="round" data-orig-style="" style="display:none" />
    <path d="M 185.85073852539062 57.24989318847656 C 204.8590850830078 51.33714294433594 207.25900268554688 56.17139434814453 184.646728515625 82.46436309814453" stroke-width="2.0" fill="none" stroke="rgb(0, 0, 0)" stroke-opacity="1.0" stroke-linecap="round" stroke-linejoin="round" data-orig-style="" style="display:none" />
    <path d="M 115.10968017578125 61.76976013183594 C 131.85548400878906 77.37789916992188 126.77845764160156 74.22103881835938 134.97076416015625 67.73917388916016" stroke-width="2.0" fill="none" stroke="rgb(0, 0, 0)" stroke-opacity="1.0" stroke-linecap="round" stroke-linejoin="round" data-orig-style="" style="display:none" />
    <path d="M 172.0962371826172 93.89381408691406 C 172.25889587402344 95.65943908691406 178.3529510498047 96.13740539550781 173.99044799804688 90.62786102294922" stroke-width="2.0" fill="none" stroke="rgb(0, 0, 0)" stroke-opacity="1.0" stroke-linecap="round" stroke-linejoin="round" data-orig-style="" style="display:none" />
    <path d="M 36.684967041015625 183.0768585205078 C 36.79873275756836 184.03428649902344 65.9268798828125 188.34097290039062 94.82272338867188 140.9517822265625" stroke-width="2.0" fill="none" stroke="rgb(0, 0, 0)" stroke-opacity="1.0" stroke-linecap="round" stroke-linejoin="round" data-orig-style="" style="display:none" />
    <path d="M 107.70246887207031 109.38958740234375 C 101.46038818359375 145.607421875 85.27384185791016 170.4763946533203 52.34489440917969 178.47378540039062" stroke-width="2.0" fill="none" stroke="rgb(0, 0, 0)" stroke-opacity="1.0" stroke-linecap="round" stroke-linejoin="round" data-orig-style="" style="display:none" />
    <path d="M 140.2994384765625 101.8269271850586 C 172.42990112304688 116.2150650024414 171.75320434570312 121.25834655761719 178.4028778076172 131.4998779296875" stroke-width="2.0" fill="none" stroke="rgb(0, 0, 0)" stroke-opacity="1.0" stroke-linecap="round" stroke-linejoin="round" data-orig-style="" style="display:none" />
    <path d="M 74.05622100830078 78.15289306640625 C 110.62564086914062 85.24659729003906 96.36540985107422 91.50712585449219 99.5503158569336 99.30131530761719" stroke-width="2.0" fill="none" stroke="rgb(0, 0, 0)" stroke-opacity="1.0" stroke-linecap="round" stroke-linejoin="round" data-orig-style="" style="display:none" />
    <path d="M 129.2251739501953 121.29588317871094 C 143.58203125 144.7532196044922 162.55859375 159.2308807373047 186.15431213378906 165.61068725585938" stroke-width="2.0" fill="none" stroke="rgb(0, 0, 0)" stroke-opacity="1.0" stroke-linecap="round" stroke-linejoin="round" data-orig-style="" style="display:none" />
    <path d="M 121.13031768798828 85.22163391113281 C 135.86923217773438 95.47000122070312 149.22987365722656 107.12101745605469 169.67459106445312 99.3976821899414" stroke-width="2.0" fill="none" stroke="rgb(0, 0, 0)" stroke-opacity="1.0" stroke-linecap="round" stroke-linejoin="round" data-orig-style="" style="display:none" />
    <path d="M 126.92060852050781 120.65839385986328 C 139.12557983398438 140.37391662597656 154.4715576171875 152.24159240722656 173.7290496826172 160.99864196777344" stroke-width="2.0" fill="none" stroke="rgb(0, 0, 0)" stroke-opacity="1.0" stroke-linecap="round" stroke-linejoin="round" data-orig-style="" style="display:none" />
    <path d="M 109.28428649902344 107.48081970214844 C 98.55057525634766 148.8784637451172 86.06214141845703 169.312255859375 52.42449188232422 177.63552856445312" stroke-width="2.0" fill="none" stroke="rgb(0, 0, 0)" stroke-opacity="1.0" stroke-linecap="round" stroke-linejoin="round" data-orig-style="" style="display:none" />
    <path d="M 103.53718566894531 76.941162109375 C 132.59567260742188 94.3387451171875 116.84794616699219 98.66571044921875 127.60038757324219 124.28201293945312" stroke-width="2.0" fill="none" stroke="rgb(0, 0, 0)" stroke-opacity="1.0" stroke-linecap="round" stroke-linejoin="round" data-orig-style="" style="display:none" />
    <path d="M 115.55145263671875 91.7009048461914 C 126.17738342285156 113.53330993652344 121.59542846679688 128.62493896484375 106.19361877441406 140.66238403320312" stroke-width="2.0" fill="none" stroke="rgb(0, 0, 0)" stroke-opacity="1.0" stroke-linecap="round" stroke-linejoin="round" data-orig-style="" style="display:none" />
    <path d="M 111.6988296508789 104.37960052490234 C 101.13394165039062 145.92417907714844 91.89399719238281 164.0582275390625 56.4034423828125 174.06668090820312" stroke-width="2.0" fill="none" stroke="rgb(0, 0, 0)" stroke-opacity="1.0" stroke-linecap="round" stroke-linejoin="round" data-orig-style="" style="display:none" />
    <path d="M 51.066123962402344 106.00126647949219 C 94.03096008300781 108.76461029052734 89.11964416503906 103.75493621826172 92.95545196533203 100.84192657470703" stroke-width="2.0" fill="none" stroke="rgb(0, 0, 0)" stroke-opacity="1.0" stroke-linecap="round" stroke-linejoin="round" data-orig-style="" style="display:none" />
    <path d="M 117.60859680175781 96.16616821289062 C 119.50399017333984 120.11424255371094 121.27326965332031 131.298095703125 94.78842163085938 145.1907501220703" stroke-width="2.0" fill="none" stroke="rgb(0, 0, 0)" stroke-opacity="1.0" stroke-linecap="round" stroke-linejoin="round" data-orig-style="" style="display:none" />
    <path d="M 43.716888427734375 87.18777465820312 C 71.2206802368164 91.87016296386719 85.3408432006836 91.17535400390625 102.45394897460938 86.1013412475586" stroke-width="2.0" fill="none" stroke="rgb(0, 0, 0)" stroke-opacity="1.0" stroke-linecap="round" stroke-linejoin="round" data-orig-style="" style="display:none" />
    <path d="M 39.165687561035156 175.04270935058594 C 53.6690788269043 138.13385009765625 62.06059265136719 136.3508758544922 84.63032531738281 104.97306823730469" stroke-width="2.0" fill="none" stroke="rgb(0, 0, 0)" stroke-opacity="1.0" stroke-linecap="round" stroke-linejoin="round" data-orig-style="" style="display:none" />
  </g>
</svg>