<?xml version='1.0' encoding='utf-8'?>
<svg xmlns="http://www.w3.org/2000/svg" version="1.1" width="224" height="224">
  <defs />
  <g>
    <path d="M 18.368118286132812 86.60694122314453 C 44.289424896240234 79.44393920898438 43.881717681884766 56.350502014160156 68.41667175292969 68.20418548583984" stroke-width="2.0" fill="none" stroke="rgb(0, 0, 0)" stroke-opacity="1.0" stroke-linecap="round" stroke-linejoin="round" data-orig-style="" style="display:none" />
    <path d="M 51.76274871826172 92.83428955078125 C 51.077980041503906 96.65300750732422 49.997459411621094 108.49943542480469 41.96428680419922 164.64755249023438" stroke-width="2.0" fill="none" stroke="rgb(0, 0, 0)" stroke-opacity="1.0" stroke-linecap="round" stroke-linejoin="round" />
    <path d="M 49.150211334228516 42.080047607421875 C 88.93260955810547 38.142234802246094 93.98587036132812 36.40211486816406 124.27522277832031 39.41122817993164" stroke-width="2.0" fill="none" stroke="rgb(0, 0, 0)" stroke-opacity="1.0" stroke-linecap="round" stroke-linejoin="round" data-orig-style="" style="display:none" />
    <path d="M 41.29945755004883 73.0623550415039 C 79.80304718017578 65.38996887207031 61.14373779296875 82.6180191040039 103.24180603027344 108.78240203857422" stroke-width="2.0" fill="none" stroke="rgb(0, 0, 0)" stroke-opacity="1.0" stroke-linecap="round" stroke-linejoin="round" data-orig-style="" style="display:none" />
    <path d="M 159.10726928710938 160.62759399414062 C 154.38070678710938 199.20504760742188 148.73516845703125 189.50242614746094 187.45773315429688 193.20530700683594" stroke-width="2.0" fill="none" stroke="rgb(0, 0, 0)" stroke-opacity="1.0" stroke-linecap="round" stroke-linejoin="round" data-orig-style="" style="display:none" />
    <path d="M 170.6132354736328 142.8186798095703 C 179.18936157226562 158.73304748535156 177.91018676757812 159.5680694580078 180.96231079101562 172.814208984375" stroke-width="2.0" fill="none" stroke="rgb(0, 0, 0)" stroke-opacity="1.0" stroke-linecap="round" stroke-linejoin="round" data-orig-style="" style="display:none" />
    <path d="M 169.6249542236328 81.07943725585938 C 173.58859252929688 99.98674774169922 172.87918090820312 136.3339385986328 175.57679748535156 155.1432342529297" stroke-width="2.0" fill="none" stroke="rgb(0, 0, 0)" stroke-opacity="1.0" stroke-linecap="round" stroke-linejoin="round" data-orig-style="" style="display:none" />
    <path d="M 55.10807800292969 73.84231567382812 C 101.77242279052734 88.02165985107422 76.12291717529297 111.27092742919922 121.11872863769531 95.94091796875" stroke-width="2.0" fill="none" stroke="rgb(0, 0, 0)" stroke-opacity="1.0" stroke-linecap="round" stroke-linejoin="round" data-orig-style="" style="display:none" />
    <path d="M 33.93806076049805 192.06138610839844 C 41.7668571472168 193.75189208984375 66.83311462402344 194.08523559570312 66.23411560058594 181.56687927246094" stroke-width="2.0" fill="none" stroke="rgb(0, 0, 0)" stroke-opacity="1.0" stroke-linecap="round" stroke-linejoin="round" data-orig-style="" style="display:none" />
    <path d="M 186.43072509765625 32.49549865722656 C 217.862548828125 25.036300659179688 217.87339782714844 29.58462905883789 192.7598419189453 52.3670654296875" stroke-width="2.0" fill="none" stroke="rgb(0, 0, 0)" stroke-opacity="1.0" stroke-linecap="round" stroke-linejoin="round" data-orig-style="" style="display:none" />
    <path d="M 76.82624816894531 39.705936431884766 C 104.42857360839844 38.397193908691406 129.5607452392578 37.58182144165039 149.08816528320312 38.753448486328125" stroke-width="2.0" fill="none" stroke="rgb(0, 0, 0)" stroke-opacity="1.0" stroke-linecap="round" stroke-linejoin="round" data-orig-style="" style="display:none" />
    <path d="M 167.36679077148438 82.46048736572266 C 164.84039306640625 115.21475982666016 162.32542419433594 134.49949645996094 167.60191345214844 150.47854614257812" stroke-width="2.0" fill="none" stroke="rgb(0, 0, 0)" stroke-opacity="1.0" stroke-linecap="round" stroke-linejoin="round" data-orig-style="" style="display:none" />
    <path d="M 80.36058044433594 39.6192626953125 C 107.78477478027344 38.4266471862793 134.3121795654297 37.441619873046875 152.2593536376953 38.68069839477539" stroke-width="2.0" fill="none" stroke="rgb(0, 0, 0)" stroke-opacity="1.0" stroke-linecap="round" stroke-linejoin="round" data-orig-style="" style="display:none" />
    <path d="M 162.441650390625 35.135990142822266 C 194.00909423828125 32.17293167114258 207.64785766601562 29.148090362548828 210.94656372070312 28.82626724243164" stroke-width="2.0" fill="none" stroke="rgb(0, 0, 0)" stroke-opacity="1.0" stroke-linecap="round" stroke-linejoin="round" data-orig-style="" style="display:none" />
    <path d="M 49.86341094970703 116.65516662597656 C 41.66551971435547 146.82687377929688 40.195213317871094 173.99444580078125 39.211647033691406 193.6917266845703" stroke-width="2.0" fill="none" stroke="rgb(0, 0, 0)" stroke-opacity="1.0" stroke-linecap="round" stroke-linejoin="round" />
    <path d="M 110.0638656616211 39.67113494873047 C 141.8384552001953 35.867950439453125 154.7522735595703 36.55254364013672 184.81777954101562 34.49146270751953" stroke-width="2.0" fill="none" stroke="rgb(0, 0, 0)" stroke-opacity="1.0" stroke-linecap="round" stroke-linejoin="round" data-orig-style="" style="display:none" />
    <path d="M 32.80907440185547 46.75099182128906 C 80.5603256225586 51.30245590209961 52.96965026855469 52.04734802246094 62.23189926147461 53.595706939697266" stroke-width="2.0" fill="none" stroke="rgb(0, 0, 0)" stroke-opacity="1.0" stroke-linecap="round" stroke-linejoin="round" data-orig-style="" style="display:none" />
    <path d="M 109.55229187011719 105.99697875976562 C 140.80987548828125 98.12969207763672 148.836669921875 92.06039428710938 173.10409545898438 66.80581665039062" stroke-width="2.0" fill="none" stroke="rgb(0, 0, 0)" stroke-opacity="1.0" stroke-linecap="round" stroke-linejoin="round" data-orig-style="" style="display:none" />
    <path d="M 38.53291320800781 50.883949279785156 C 81.6957015991211 41.941680908203125 100.8459243774414 44.175697326660156 127.90318298339844 47.100318908691406" stroke-width="2.0" fill="none" stroke="rgb(0, 0, 0)" stroke-opacity="1.0" stroke-linecap="round" stroke-linejoin="round" data-orig-style="" style="display:none" />
    <path d="M 9.695021629333496 21.584091186523438 C 34.50037384033203 34.40227508544922 53.876495361328125 42.46028518676758 68.32040405273438 42.37980270385742" stroke-width="2.0" fill="none" stroke="rgb(0, 0, 0)" stroke-opacity="1.0" stroke-linecap="round" stroke-linejoin="round" data-orig-style="" style="display:none" />
    <path d="M 25.41208267211914 46.057464599609375 C 66.89405059814453 48.948143005371094 82.40331268310547 40.95018768310547 123.46653747558594 47.87819290161133" stroke-width="2.0" fill="none" stroke="rgb(0, 0, 0)" stroke-opacity="1.0" stroke-linecap="round" stroke-linejoin="round" data-orig-style="" style="display:none" />
    <path d="M 64.32984161376953 39.541446685791016 C 55.36114501953125 67.90494537353516 52.91325378417969 63.75709915161133 69.02273559570312 83.56610870361328" stroke-width="2.0" fill="none" stroke="rgb(0, 0, 0)" stroke-opacity="1.0" stroke-linecap="round" stroke-linejoin="round" data-orig-style="" style="display:none" />
    <path d="M 158.42433166503906 73.04182434082031 C 188.80836486816406 61.432472229003906 184.37608337402344 78.23149871826172 205.06396484375 51.006534576416016" stroke-width="2.0" fill="none" stroke="rgb(0, 0, 0)" stroke-opacity="1.0" stroke-linecap="round" stroke-linejoin="round" data-orig-style="" style="display:none" />
    <path d="M 154.6143035888672 65.59010314941406 C 172.96585083007812 56.865211486816406 179.075439453125 81.93124389648438 200.34848022460938 69.85794067382812" stroke-width="2.0" fill="none" stroke="rgb(0, 0, 0)" stroke-opacity="1.0" stroke-linecap="round" stroke-linejoin="round" data-orig-style="" style="display:none" />
    <path d="M 161.61338806152344 44.048439025878906 C 169.42044067382812 59.674556732177734 172.83306884765625 56.242916107177734 146.67001342773438 83.82972717285156" stroke-width="2.0" fill="none" stroke="rgb(0, 0, 0)" stroke-opacity="1.0" stroke-linecap="round" stroke-linejoin="round" data-orig-style="" style="display:none" />
    <path d="M 162.87667846679688 72.15267944335938 C 131.09561157226562 108.1986083984375 126.8063735961914 102.40624237060547 106.57205200195312 112.32520294189453" stroke-width="2.0" fill="none" stroke="rgb(0, 0, 0)" stroke-opacity="1.0" stroke-linecap="round" stroke-linejoin="round" data-orig-style="" style="display:none" />
    <path d="M 67.83682250976562 78.74170684814453 C 108.06246948242188 104.635986328125 77.8130111694336 117.97968292236328 120.22069549560547 100.20999908447266" stroke-width="2.0" fill="none" stroke="rgb(0, 0, 0)" stroke-opacity="1.0" stroke-linecap="round" stroke-linejoin="round" data-orig-style="" style="display:none" />
    <path d="M 162.9921875 70.70149993896484 C 175.1719970703125 75.46294403076172 169.2230682373047 89.21976470947266 175.647705078125 139.8303985595703" stroke-width="2.0" fill="none" stroke="rgb(0, 0, 0)" stroke-opacity="1.0" stroke-linecap="round" stroke-linejoin="round" data-orig-style="" style="display:none" />
    <path d="M 169.3857421875 150.29721069335938 C 186.08865356445312 161.0878143310547 177.91107177734375 169.68775939941406 181.60482788085938 187.19456481933594" stroke-width="2.0" fill="none" stroke="rgb(0, 0, 0)" stroke-opacity="1.0" stroke-linecap="round" stroke-linejoin="round" data-orig-style="" style="display:none" />
    <path d="M 58.79692840576172 128.85757446289062 C 54.97024917602539 161.77085876464844 46.24159240722656 143.22119140625 44.44343948364258 168.17965698242188" stroke-width="2.0" fill="none" stroke="rgb(0, 0, 0)" stroke-opacity="1.0" stroke-linecap="round" stroke-linejoin="round" />
    <path d="M 91.89628601074219 112.95037078857422 C 123.80036163330078 89.14086151123047 112.99977111816406 113.09597778320312 142.0792694091797 80.81475830078125" stroke-width="2.0" fill="none" stroke="rgb(0, 0, 0)" stroke-opacity="1.0" stroke-linecap="round" stroke-linejoin="round" data-orig-style="" style="display:none" />
    <path d="M 43.07326889038086 146.88272094726562 C 58.229156494140625 150.29058837890625 60.362945556640625 146.25978088378906 65.60649108886719 155.1647186279297" stroke-width="2.0" fill="none" stroke="rgb(0, 0, 0)" stroke-opacity="1.0" stroke-linecap="round" stroke-linejoin="round" />
  </g>
</svg>