<?xml version='1.0' encoding='utf-8'?>
<svg xmlns="http://www.w3.org/2000/svg" version="1.1" width="224" height="224">
  <defs />
  <g>
    <path d="M 179.33700561523438 111.23401641845703 C 185.85043334960938 132.77618408203125 190.49468994140625 144.56875610351562 195.13014221191406 166.8857879638672" stroke-width="2.0" fill="none" stroke="rgb(0, 0, 0)" stroke-opacity="1.0" stroke-linecap="round" stroke-linejoin="round" data-orig-style="" style="display:none" />
    <path d="M 69.45464324951172 116.93632507324219 C 74.66741943359375 153.1834716796875 73.77365112304688 175.02731323242188 69.91998291015625 194.5421600341797" stroke-width="2.0" fill="none" stroke="rgb(0, 0, 0)" stroke-opacity="1.0" stroke-linecap="round" stroke-linejoin="round" data-orig-style="" style="display:none" />
    <path d="M 45.35868835449219 68.07353210449219 C 41.772403717041016 36.778465270996094 66.55988311767578 35.48814392089844 74.46456146240234 25.870351791381836" stroke-width="2.0" fill="none" stroke="rgb(0, 0, 0)" stroke-opacity="1.0" stroke-linecap="round" stroke-linejoin="round" data-orig-style="" style="display:none" />
    <path d="M 122.76195526123047 32.0726318359375 C 138.0266876220703 45.23357391357422 157.9781036376953 59.75481414794922 135.7617950439453 78.42387390136719" stroke-width="2.0" fill="none" stroke="rgb(0, 0, 0)" stroke-opacity="1.0" stroke-linecap="round" stroke-linejoin="round" data-orig-style="" style="display:none" />
    <path d="M 64.0368423461914 37.00769805908203 C 74.35871124267578 20.981781005859375 89.01461029052734 19.1436767578125 98.65801239013672 17.907405853271484" stroke-width="2.0" fill="none" stroke="rgb(0, 0, 0)" stroke-opacity="1.0" stroke-linecap="round" stroke-linejoin="round" data-orig-style="" style="display:none" />
    <path d="M 172.3633575439453 144.37451171875 C 186.93258666992188 191.80130004882812 176.80975341796875 191.32298278808594 178.65243530273438 190.27540588378906" stroke-width="2.0" fill="none" stroke="rgb(0, 0, 0)" stroke-opacity="1.0" stroke-linecap="round" stroke-linejoin="round" data-orig-style="" style="display:none" />
    <path d="M 82.09193420410156 21.897537231445312 C 108.80819702148438 12.861442565917969 117.38130187988281 21.59046173095703 128.61512756347656 35.48110580444336" stroke-width="2.0" fill="none" stroke="rgb(0, 0, 0)" stroke-opacity="1.0" stroke-linecap="round" stroke-linejoin="round" data-orig-style="" style="display:none" />
    <path d="M 157.1320343017578 64.14729309082031 C 182.513916015625 59.816322326660156 200.2772674560547 83.45269775390625 178.97874450683594 99.69247436523438" stroke-width="2.0" fill="none" stroke="rgb(0, 0, 0)" stroke-opacity="1.0" stroke-linecap="round" stroke-linejoin="round" data-orig-style="" style="display:none" />
    <path d="M 89.10264587402344 199.58786010742188 C 99.18789672851562 195.58358764648438 93.91812133789062 209.51507568359375 122.50875854492188 201.83290100097656" stroke-width="2.0" fill="none" stroke="rgb(0, 0, 0)" stroke-opacity="1.0" stroke-linecap="round" stroke-linejoin="round" data-orig-style="" style="display:none" />
    <path d="M 48.66423034667969 50.06563186645508 C 44.16957092285156 70.23031616210938 51.34447479248047 79.770751953125 71.09585571289062 81.84889221191406" stroke-width="2.0" fill="none" stroke="rgb(0, 0, 0)" stroke-opacity="1.0" stroke-linecap="round" stroke-linejoin="round" data-orig-style="" style="display:none" />
    <path d="M 137.9359588623047 95.38015747070312 C 151.24786376953125 117.49012756347656 136.42803955078125 135.0294952392578 134.684326171875 146.19606018066406" stroke-width="2.0" fill="none" stroke="rgb(0, 0, 0)" stroke-opacity="1.0" stroke-linecap="round" stroke-linejoin="round" data-orig-style="" style="display:none" />
    <path d="M 134.90643310546875 78.92086029052734 C 162.2903594970703 80.58161163330078 161.55862426757812 85.11552429199219 174.97259521484375 94.75310516357422" stroke-width="2.0" fill="none" stroke="rgb(0, 0, 0)" stroke-opacity="1.0" stroke-linecap="round" stroke-linejoin="round" data-orig-style="" style="display:none" />
    <path d="M 139.4893341064453 58.68865203857422 C 136.65408325195312 72.88465881347656 128.1050567626953 76.65515899658203 119.28240966796875 83.4713363647461" stroke-width="2.0" fill="none" stroke="rgb(0, 0, 0)" stroke-opacity="1.0" stroke-linecap="round" stroke-linejoin="round" data-orig-style="" style="display:none" />
    <path d="M 74.89959716796875 64.65504455566406 C 70.64994812011719 101.74827575683594 83.4952621459961 98.59595489501953 95.25572967529297 109.36225128173828" stroke-width="2.0" fill="none" stroke="rgb(0, 0, 0)" stroke-opacity="1.0" stroke-linecap="round" stroke-linejoin="round" />
    <path d="M 133.33082580566406 78.84161376953125 C 160.9024658203125 80.08110809326172 160.87026977539062 84.35201263427734 174.2426300048828 94.16357421875" stroke-width="2.0" fill="none" stroke="rgb(0, 0, 0)" stroke-opacity="1.0" stroke-linecap="round" stroke-linejoin="round" data-orig-style="" style="display:none" />
    <path d="M 79.9703140258789 29.20178985595703 C 70.37972259521484 57.0914192199707 67.22869110107422 64.60128784179688 78.1874771118164 79.66129302978516" stroke-width="2.0" fill="none" stroke="rgb(0, 0, 0)" stroke-opacity="1.0" stroke-linecap="round" stroke-linejoin="round" data-orig-style="" style="display:none" />
    <path d="M 78.52668762207031 28.588998794555664 C 75.715087890625 54.77075958251953 65.13197326660156 55.30467224121094 77.70283508300781 74.77122497558594" stroke-width="2.0" fill="none" stroke="rgb(0, 0, 0)" stroke-opacity="1.0" stroke-linecap="round" stroke-linejoin="round" data-orig-style="" style="display:none" />
    <path d="M 106.23707580566406 94.76844787597656 C 100.71765899658203 99.988525390625 103.23106384277344 104.02021789550781 99.32711791992188 101.55775451660156" stroke-width="2.0" fill="none" stroke="rgb(0, 0, 0)" stroke-opacity="1.0" stroke-linecap="round" stroke-linejoin="round" />
    <path d="M 129.7979736328125 37.59586715698242 C 144.46856689453125 50.887786865234375 148.37606811523438 68.58885192871094 122.25438690185547 85.09204864501953" stroke-width="2.0" fill="none" stroke="rgb(0, 0, 0)" stroke-opacity="1.0" stroke-linecap="round" stroke-linejoin="round" data-orig-style="" style="display:none" />
    <path d="M 124.71786499023438 33.918800354003906 C 132.2436065673828 49.91313171386719 127.22642517089844 51.39817810058594 127.6054458618164 68.759033203125" stroke-width="2.0" fill="none" stroke="rgb(0, 0, 0)" stroke-opacity="1.0" stroke-linecap="round" stroke-linejoin="round" data-orig-style="" style="display:none" />
    <path d="M 113.95709228515625 40.888214111328125 C 123.03872680664062 47.1869010925293 113.52751159667969 52.311798095703125 124.29048156738281 59.608707427978516" stroke-width="2.0" fill="none" stroke="rgb(0, 0, 0)" stroke-opacity="1.0" stroke-linecap="round" stroke-linejoin="round" data-orig-style="" style="display:none" />
    <path d="M 124.72808837890625 35.64939880371094 C 129.65573120117188 52.225372314453125 124.24319458007812 54.26146697998047 125.87480163574219 70.59738159179688" stroke-width="2.0" fill="none" stroke="rgb(0, 0, 0)" stroke-opacity="1.0" stroke-linecap="round" stroke-linejoin="round" data-orig-style="" style="display:none" />
    <path d="M 80.5119857788086 65.49531555175781 C 96.39212799072266 59.33842849731445 90.61886596679688 86.3050308227539 106.88053131103516 74.03640747070312" stroke-width="2.0" fill="none" stroke="rgb(0, 0, 0)" stroke-opacity="1.0" stroke-linecap="round" stroke-linejoin="round" />
    <path d="M 77.37387084960938 56.76348876953125 C 92.47311401367188 46.19794464111328 85.15990447998047 68.82482147216797 103.92967224121094 66.19669342041016" stroke-width="2.0" fill="none" stroke="rgb(0, 0, 0)" stroke-opacity="1.0" stroke-linecap="round" stroke-linejoin="round" />
    <path d="M 79.4845962524414 63.029632568359375 C 95.3468017578125 54.91619873046875 87.7196044921875 81.78977966308594 105.3665542602539 72.40271759033203" stroke-width="2.0" fill="none" stroke="rgb(0, 0, 0)" stroke-opacity="1.0" stroke-linecap="round" stroke-linejoin="round" />
    <path d="M 86.12538146972656 65.09048461914062 C 105.57391357421875 58.72702407836914 95.25923156738281 81.59733581542969 109.7624282836914 76.84324645996094" stroke-width="2.0" fill="none" stroke="rgb(0, 0, 0)" stroke-opacity="1.0" stroke-linecap="round" stroke-linejoin="round" />
    <path d="M 80.97425842285156 67.65719604492188 C 93.98455810546875 62.366111755371094 91.75022888183594 90.6720962524414 110.21675109863281 73.31468200683594" stroke-width="2.0" fill="none" stroke="rgb(0, 0, 0)" stroke-opacity="1.0" stroke-linecap="round" stroke-linejoin="round" />
    <path d="M 77.12858581542969 77.57258605957031 C 83.32444763183594 80.86457061767578 96.0019302368164 102.42729949951172 115.93586730957031 72.79689025878906" stroke-width="2.0" fill="none" stroke="rgb(0, 0, 0)" stroke-opacity="1.0" stroke-linecap="round" stroke-linejoin="round" />
    <path d="M 98.98035430908203 131.45359802246094 C 103.7876205444336 149.5642852783203 108.26792907714844 145.400146484375 104.54649353027344 167.0634002685547" stroke-width="2.0" fill="none" stroke="rgb(0, 0, 0)" stroke-opacity="1.0" stroke-linecap="round" stroke-linejoin="round" data-orig-style="" style="display:none" />
    <path d="M 152.19876098632812 123.97293090820312 C 141.04837036132812 135.08309936523438 135.17739868164062 143.20960998535156 134.68606567382812 151.61065673828125" stroke-width="2.0" fill="none" stroke="rgb(0, 0, 0)" stroke-opacity="1.0" stroke-linecap="round" stroke-linejoin="round" data-orig-style="" style="display:none" />
    <path d="M 88.6622314453125 133.36627197265625 C 103.89501953125 150.043701171875 104.47265625 184.57977294921875 90.54368591308594 199.3198699951172" stroke-width="2.0" fill="none" stroke="rgb(0, 0, 0)" stroke-opacity="1.0" stroke-linecap="round" stroke-linejoin="round" data-orig-style="" style="display:none" />
    <path d="M 139.85325622558594 132.374755859375 C 134.44680786132812 153.92538452148438 139.00018310546875 197.0974578857422 127.28230285644531 202.3472900390625" stroke-width="2.0" fill="none" stroke="rgb(0, 0, 0)" stroke-opacity="1.0" stroke-linecap="round" stroke-linejoin="round" data-orig-style="" style="display:none" />
  </g>
</svg>