<?xml version='1.0' encoding='utf-8'?>
<svg xmlns="http://www.w3.org/2000/svg" version="1.1" width="224" height="224">
  <defs />
  <g>
    <path d="M 50.59314727783203 100.79625701904297 C 60.53176498413086 88.69361114501953 85.79259490966797 87.67806243896484 98.50155639648438 71.61331939697266" stroke-width="2.0" fill="none" stroke="rgb(0, 0, 0)" stroke-opacity="1.0" stroke-linecap="round" stroke-linejoin="round" data-orig-style="" style="display:none" />
    <path d="M 53.412376403808594 111.75263214111328 C 63.75653839111328 100.04965209960938 82.041259765625 98.36888122558594 92.53589630126953 82.26412963867188" stroke-width="2.0" fill="none" stroke="rgb(0, 0, 0)" stroke-opacity="1.0" stroke-linecap="round" stroke-linejoin="round" data-orig-style="" style="display:none" />
    <path d="M 60.31521987915039 90.44488525390625 C 95.62822723388672 74.07952880859375 90.71621704101562 83.97473907470703 115.02561950683594 59.079200744628906" stroke-width="2.0" fill="none" stroke="rgb(0, 0, 0)" stroke-opacity="1.0" stroke-linecap="round" stroke-linejoin="round" data-orig-style="" style="display:none" />
    <path d="M 112.40727233886719 98.3270263671875 C 103.96835327148438 127.65655517578125 103.05858612060547 124.25469970703125 105.55711364746094 127.50334167480469" stroke-width="2.0" fill="none" stroke="rgb(0, 0, 0)" stroke-opacity="1.0" stroke-linecap="round" stroke-linejoin="round" data-orig-style="" style="display:none" />
    <path d="M 98.46363067626953 32.91535186767578 C 72.56221008300781 8.84695816040039 89.52120208740234 12.018232345581055 92.3626708984375 14.695122718811035" stroke-width="2.0" fill="none" stroke="rgb(0, 0, 0)" stroke-opacity="1.0" stroke-linecap="round" stroke-linejoin="round" data-orig-style="" style="display:none" />
    <path d="M 85.0733871459961 13.093063354492188 C 100.9707260131836 26.0375919342041 105.01700592041016 25.93080711364746 115.11212921142578 62.342647552490234" stroke-width="2.0" fill="none" stroke="rgb(0, 0, 0)" stroke-opacity="1.0" stroke-linecap="round" stroke-linejoin="round" data-orig-style="" style="display:none" />
    <path d="M 86.11844635009766 12.368694305419922 C 97.46794891357422 21.81047821044922 103.79048156738281 19.99251937866211 118.42428588867188 60.46697998046875" stroke-width="2.0" fill="none" stroke="rgb(0, 0, 0)" stroke-opacity="1.0" stroke-linecap="round" stroke-linejoin="round" data-orig-style="" style="display:none" />
    <path d="M 139.96311950683594 113.26638793945312 C 154.45901489257812 139.8902130126953 147.13735961914062 128.5151824951172 149.15489196777344 142.50045776367188" stroke-width="2.0" fill="none" stroke="rgb(0, 0, 0)" stroke-opacity="1.0" stroke-linecap="round" stroke-linejoin="round" data-orig-style="" style="display:none" />
    <path d="M 117.25199127197266 57.08460235595703 C 146.4364776611328 28.4776611328125 163.81756591796875 26.269760131835938 170.01646423339844 22.793685913085938" stroke-width="2.0" fill="none" stroke="rgb(0, 0, 0)" stroke-opacity="1.0" stroke-linecap="round" stroke-linejoin="round" />
    <path d="M 95.6369857788086 22.4454402923584 C 127.56222534179688 61.953060150146484 100.81620025634766 48.939239501953125 129.4376983642578 63.24042510986328" stroke-width="2.0" fill="none" stroke="rgb(0, 0, 0)" stroke-opacity="1.0" stroke-linecap="round" stroke-linejoin="round" data-orig-style="" style="display:none" />
    <path d="M 133.57235717773438 52.75340270996094 C 175.03591918945312 21.8907470703125 172.42578125 28.733253479003906 171.91038513183594 29.97049903869629" stroke-width="2.0" fill="none" stroke="rgb(0, 0, 0)" stroke-opacity="1.0" stroke-linecap="round" stroke-linejoin="round" />
    <path d="M 56.51742172241211 93.79129028320312 C 88.40087890625 77.91767883300781 91.70905303955078 84.22269439697266 112.75606536865234 62.38921356201172" stroke-width="2.0" fill="none" stroke="rgb(0, 0, 0)" stroke-opacity="1.0" stroke-linecap="round" stroke-linejoin="round" data-orig-style="" style="display:none" />
    <path d="M 117.96417236328125 67.58753204345703 C 101.31735229492188 104.4381332397461 112.71546173095703 96.07154846191406 99.00621032714844 119.79116821289062" stroke-width="2.0" fill="none" stroke="rgb(0, 0, 0)" stroke-opacity="1.0" stroke-linecap="round" stroke-linejoin="round" data-orig-style="" style="display:none" />
    <path d="M 159.0487060546875 32.14377975463867 C 176.1909942626953 23.978412628173828 170.4082794189453 31.03386688232422 173.34884643554688 29.044923782348633" stroke-width="2.0" fill="none" stroke="rgb(0, 0, 0)" stroke-opacity="1.0" stroke-linecap="round" stroke-linejoin="round" />
    <path d="M 128.07443237304688 59.14287567138672 C 166.05067443847656 29.298974990844727 164.78170776367188 37.7470703125 175.44021606445312 26.272951126098633" stroke-width="2.0" fill="none" stroke="rgb(0, 0, 0)" stroke-opacity="1.0" stroke-linecap="round" stroke-linejoin="round" />
    <path d="M 117.29324340820312 58.738311767578125 C 143.51914978027344 92.9172134399414 142.38916015625 78.88743591308594 157.27020263671875 94.84037780761719" stroke-width="2.0" fill="none" stroke="rgb(0, 0, 0)" stroke-opacity="1.0" stroke-linecap="round" stroke-linejoin="round" data-orig-style="" style="display:none" />
    <path d="M 100.5608901977539 63.134674072265625 C 133.02064514160156 61.596160888671875 103.69639587402344 67.41566467285156 125.08049774169922 71.95482635498047" stroke-width="2.0" fill="none" stroke="rgb(0, 0, 0)" stroke-opacity="1.0" stroke-linecap="round" stroke-linejoin="round" data-orig-style="" style="display:none" />
    <path d="M 138.79998779296875 111.0470962524414 C 153.31895446777344 141.0272216796875 146.69680786132812 128.54437255859375 149.34226989746094 141.45013427734375" stroke-width="2.0" fill="none" stroke="rgb(0, 0, 0)" stroke-opacity="1.0" stroke-linecap="round" stroke-linejoin="round" data-orig-style="" style="display:none" />
    <path d="M 53.36894607543945 104.0733871459961 C 48.89106750488281 89.24468994140625 70.12751770019531 95.23847198486328 94.35301971435547 74.74385833740234" stroke-width="2.0" fill="none" stroke="rgb(0, 0, 0)" stroke-opacity="1.0" stroke-linecap="round" stroke-linejoin="round" data-orig-style="" style="display:none" />
    <path d="M 122.57950592041016 130.23069763183594 C 147.98448181152344 138.3209686279297 143.3989715576172 134.15072631835938 148.6827850341797 136.99844360351562" stroke-width="2.0" fill="none" stroke="rgb(0, 0, 0)" stroke-opacity="1.0" stroke-linecap="round" stroke-linejoin="round" data-orig-style="" style="display:none" />
    <path d="M 124.90040588378906 77.4636001586914 C 137.5404052734375 70.70613861083984 145.23416137695312 75.38215637207031 152.0399169921875 62.737457275390625" stroke-width="2.0" fill="none" stroke="rgb(0, 0, 0)" stroke-opacity="1.0" stroke-linecap="round" stroke-linejoin="round" data-orig-style="" style="display:none" />
    <path d="M 104.15007781982422 29.27056312561035 C 138.73548889160156 71.05622863769531 99.12356567382812 47.698890686035156 136.2686309814453 78.4786605834961" stroke-width="2.0" fill="none" stroke="rgb(0, 0, 0)" stroke-opacity="1.0" stroke-linecap="round" stroke-linejoin="round" data-orig-style="" style="display:none" />
    <path d="M 145.42694091796875 91.7968521118164 C 171.01551818847656 116.63277435302734 165.48321533203125 106.92668914794922 163.9486846923828 113.49658966064453" stroke-width="2.0" fill="none" stroke="rgb(0, 0, 0)" stroke-opacity="1.0" stroke-linecap="round" stroke-linejoin="round" data-orig-style="" style="display:none" />
    <path d="M 142.3802032470703 101.26013946533203 C 166.20474243164062 119.93155670166016 162.80979919433594 113.00166320800781 168.73098754882812 113.05766296386719" stroke-width="2.0" fill="none" stroke="rgb(0, 0, 0)" stroke-opacity="1.0" stroke-linecap="round" stroke-linejoin="round" data-orig-style="" style="display:none" />
    <path d="M 96.23162841796875 123.19196319580078 C 107.46903991699219 119.39277648925781 106.84032440185547 128.80857849121094 130.2445831298828 115.25445556640625" stroke-width="2.0" fill="none" stroke="rgb(0, 0, 0)" stroke-opacity="1.0" stroke-linecap="round" stroke-linejoin="round" data-orig-style="" style="display:none" />
    <path d="M 97.81694793701172 118.98896026611328 C 118.39447021484375 109.93002319335938 120.24197387695312 120.1153564453125 152.13937377929688 116.2250747680664" stroke-width="2.0" fill="none" stroke="rgb(0, 0, 0)" stroke-opacity="1.0" stroke-linecap="round" stroke-linejoin="round" data-orig-style="" style="display:none" />
    <path d="M 112.49813079833984 51.39323806762695 C 142.27610778808594 62.269073486328125 117.19388580322266 68.15203857421875 143.94668579101562 77.06321716308594" stroke-width="2.0" fill="none" stroke="rgb(0, 0, 0)" stroke-opacity="1.0" stroke-linecap="round" stroke-linejoin="round" data-orig-style="" style="display:none" />
    <path d="M 96.61412048339844 125.20541381835938 C 119.94964599609375 122.86164855957031 134.40005493164062 126.72211456298828 162.26907348632812 121.43054962158203" stroke-width="2.0" fill="none" stroke="rgb(0, 0, 0)" stroke-opacity="1.0" stroke-linecap="round" stroke-linejoin="round" data-orig-style="" style="display:none" />
    <path d="M 119.71188354492188 63.66582489013672 C 142.16525268554688 102.36598205566406 122.04170227050781 94.61357879638672 146.81138610839844 121.02619934082031" stroke-width="2.0" fill="none" stroke="rgb(0, 0, 0)" stroke-opacity="1.0" stroke-linecap="round" stroke-linejoin="round" data-orig-style="" style="display:none" />
    <path d="M 101.82927703857422 125.44059753417969 C 115.86844635009766 127.2435302734375 135.09707641601562 129.1407012939453 147.09149169921875 124.6359634399414" stroke-width="2.0" fill="none" stroke="rgb(0, 0, 0)" stroke-opacity="1.0" stroke-linecap="round" stroke-linejoin="round" data-orig-style="" style="display:none" />
    <path d="M 95.21092224121094 123.91554260253906 C 105.59716033935547 122.513916015625 120.04029083251953 129.11997985839844 148.54591369628906 120.97245025634766" stroke-width="2.0" fill="none" stroke="rgb(0, 0, 0)" stroke-opacity="1.0" stroke-linecap="round" stroke-linejoin="round" data-orig-style="" style="display:none" />
    <path d="M 95.26642608642578 124.46194458007812 C 111.06892395019531 122.76225280761719 129.613037109375 127.88009643554688 161.32208251953125 122.07357025146484" stroke-width="2.0" fill="none" stroke="rgb(0, 0, 0)" stroke-opacity="1.0" stroke-linecap="round" stroke-linejoin="round" data-orig-style="" style="display:none" />
  </g>
</svg>